<?xml version="1.0" encoding="utf-8"?>
<!-- Generator: Adobe Illustrator 27.7.0, SVG Export Plug-In . SVG Version: 6.00 Build 0)  -->
<svg version="1.1" id="Layer_1" xmlns="http://www.w3.org/2000/svg" xmlns:xlink="http://www.w3.org/1999/xlink" x="0px" y="0px"
	 viewBox="0 0 216 216" style="enable-background:new 0 0 216 216;" xml:space="preserve">
<g>
	<g>
		<g>
			<path d="M56.83,165.58c0,1.77-0.52,3.56-1.59,5.07c-2.55,3.58-7.26,4.2-10.52,1.4c-2.04-1.76-9.56-9.58-17-22.06
				c-9.6-16.08-15.23-33.65-16.28-50.79c-1.81-29.39,9.14-57.68,32.53-84.09c2.88-3.25,7.62-3.33,10.59-0.16
				c2.96,3.17,3.03,8.37,0.15,11.63C34.55,49.33,25.01,73.21,26.34,97.55c1,18.13,7.96,33.39,13.64,42.99
				c6.3,10.67,12.73,17.46,13.98,18.58C55.84,160.73,56.83,163.15,56.83,165.58z M73,140.34c-1.97-1.89-19.32-19.17-20.36-44.02
				c-0.71-16.94,6.31-34.02,20.86-50.76c2.85-3.29,2.74-8.49-0.25-11.63c-2.99-3.13-7.73-3.01-10.58,0.27
				C45.19,54.33,36.78,75.48,37.69,97.08c1.3,31.02,21.45,51.81,25.48,55.66c3.12,2.98,7.85,2.63,10.56-0.8
				c1.23-1.56,1.84-3.48,1.84-5.4C75.57,144.25,74.7,141.97,73,140.34z M92.12,120.8c-2.42-1.59-11.36-11.21-12.61-24
				c-1.06-10.83,3.61-21.67,13.89-32.23c3.02-3.1,3.17-8.31,0.35-11.62c-2.83-3.32-7.56-3.49-10.58-0.39
				c-17.31,17.78-19.64,34.83-18.55,46c1.85,18.86,14.15,32.65,19.82,36.36c3.55,2.33,8.15,1.05,10.26-2.85
				c0.72-1.32,1.06-2.77,1.06-4.21C95.77,125.07,94.47,122.34,92.12,120.8z M94.11,92.99c0,8.72,6.44,15.79,14.37,15.79
				s14.37-7.07,14.37-15.79c0-8.72-6.44-15.79-14.37-15.79S94.11,84.27,94.11,92.99z"/>
		</g>
	</g>
	<g>
		<g>
			<path d="M163.07,159.14c1.25-1.11,7.68-7.9,13.98-18.58c5.67-9.6,12.64-24.86,13.64-42.99c1.33-24.34-8.2-48.22-28.35-70.97
				c-2.88-3.26-2.82-8.46,0.15-11.63c2.96-3.17,7.7-3.1,10.59,0.16c23.4,26.41,34.34,54.7,32.53,84.09
				c-1.06,17.14-6.69,34.71-16.28,50.79c-7.44,12.48-14.96,20.3-17,22.06c-3.26,2.8-7.97,2.18-10.52-1.4
				c-1.07-1.51-1.59-3.29-1.59-5.07C160.2,163.18,161.18,160.76,163.07,159.14z M141.45,146.58c0,1.92,0.61,3.84,1.84,5.4
				c2.71,3.43,7.44,3.78,10.56,0.8c4.02-3.85,24.18-24.64,25.48-55.66c0.91-21.6-7.5-42.75-24.98-62.88
				c-2.85-3.29-7.59-3.41-10.58-0.27c-2.99,3.14-3.1,8.34-0.25,11.63c14.55,16.75,21.56,33.83,20.86,50.76
				c-1.04,24.85-18.39,42.13-20.36,44.02C142.32,142,141.45,144.28,141.45,146.58z M121.25,127.9c0,1.43,0.34,2.89,1.06,4.21
				c2.12,3.9,6.72,5.17,10.26,2.85c5.67-3.72,17.98-17.5,19.82-36.36c1.09-11.17-1.24-28.22-18.55-46
				c-3.02-3.1-7.76-2.93-10.58,0.39c-2.82,3.32-2.67,8.52,0.35,11.62c10.28,10.56,14.95,21.4,13.89,32.23
				c-1.25,12.78-10.19,22.41-12.61,24C122.56,122.37,121.25,125.1,121.25,127.9z M108.54,77.24c-7.94,0-14.37,7.07-14.37,15.79
				c0,8.72,6.44,15.79,14.37,15.79s14.37-7.07,14.37-15.79C122.92,84.3,116.48,77.24,108.54,77.24z"/>
		</g>
	</g>
</g>
<polygon points="108.51,121.98 73.13,197.72 143.89,197.72 "/>
</svg>
