<?xml version="1.0" encoding="utf-8"?>
<!-- Generator: Adobe Illustrator 27.7.0, SVG Export Plug-In . SVG Version: 6.00 Build 0)  -->
<svg version="1.1" id="Layer_1" xmlns="http://www.w3.org/2000/svg" xmlns:xlink="http://www.w3.org/1999/xlink" x="0px" y="0px"
	 viewBox="0 0 216 216" style="enable-background:new 0 0 216 216;" xml:space="preserve">
<style type="text/css">
	.st0{fill:none;stroke:#006B50;stroke-width:6.9748;stroke-linecap:round;stroke-miterlimit:10;}
	.st1{fill:none;stroke:#006B50;stroke-width:10.193;stroke-linecap:round;stroke-miterlimit:15.1181;}
	.st2{fill:#006B50;stroke:#006B50;stroke-width:10.193;stroke-linecap:round;stroke-miterlimit:15.1181;}
	.st3{fill:none;stroke:#FFFFFF;stroke-width:8.4941;stroke-linecap:round;stroke-miterlimit:15.1181;}
</style>
<g>
	<path class="st0" d="M162.03,19.62c12.69,4.13,23.98,12.7,31.34,25.07c7.35,12.37,9.49,26.39,7.05,39.5"/>
	<path class="st0" d="M156.66,40.28c7.61,2.48,14.4,7.62,18.81,15.05c4.41,7.42,5.69,15.84,4.23,23.71"/>
</g>
<g>
	<path class="st0" d="M55.33,19.62C42.65,23.75,31.35,32.32,24,44.69s-9.49,26.39-7.05,39.5"/>
	<path class="st0" d="M60.7,40.28c-7.61,2.48-14.4,7.62-18.81,15.05c-4.41,7.42-5.69,15.84-4.23,23.71"/>
</g>
<g id="g22271" transform="translate(-329.67868,1.6742894)">
	<path id="path21118" class="st1" d="M424.94,41.26v-9.73c0-8.32,6.13-15.02,13.74-15.02l0,0c7.61,0,13.74,6.7,13.74,15.02v9.73"/>
	<path id="path21120" class="st2" d="M460.12,170.67c0.14,1.01,0.22,2.03,0.22,3.05l0,0c0,11.96-9.7,21.66-21.66,21.66l0,0
		c-11.96,0-21.66-9.7-21.66-21.66l0,0c0-1.02,0.07-2.04,0.22-3.05"/>
	<path id="path21122" class="st2" d="M438.68,39.59c-30.12,0-54.36,23.12-54.36,51.85c-0.74,35.29,2.46,58.52-24.37,74.33
		c-0.61,0.36-1.11,1.22-1.11,1.93v2.99h79.84h79.84v-2.99c0-0.71-0.5-1.57-1.11-1.93c-26.83-15.82-23.63-39.04-24.37-74.33
		C493.04,62.72,468.8,39.59,438.68,39.59L438.68,39.59z"/>
	<path id="path21124" class="st3" d="M403.47,86.87c0-15.47,12.54-28.01,28.01-28.01"/>
</g>
</svg>
