<?xml version="1.0" encoding="utf-8"?>
<!-- Generator: Adobe Illustrator 27.7.0, SVG Export Plug-In . SVG Version: 6.00 Build 0)  -->
<svg version="1.1" id="Layer_1" xmlns="http://www.w3.org/2000/svg" xmlns:xlink="http://www.w3.org/1999/xlink" x="0px" y="0px"
	 viewBox="0 0 216 216" style="enable-background:new 0 0 216 216;" xml:space="preserve">
<style type="text/css">
	.st0{fill:#006B50;}
	
		.st1{fill-rule:evenodd;clip-rule:evenodd;fill:#006B50;stroke:#006B50;stroke-width:0.75;stroke-linejoin:round;stroke-miterlimit:64.7349;}
	.st2{fill-rule:evenodd;clip-rule:evenodd;fill:#FFFFFF;}
	.st3{fill:none;stroke:#FFFFFF;stroke-width:2;stroke-linecap:round;stroke-linejoin:round;stroke-miterlimit:16.0916;}
	.st4{fill:none;stroke:#FFFFFF;stroke-width:2.2917;stroke-linejoin:round;stroke-miterlimit:16.0916;}
	.st5{fill:none;stroke:#FFFFFF;stroke-width:2;stroke-linejoin:round;stroke-miterlimit:16.0916;}
	.st6{fill:none;stroke:#FFFFFF;stroke-width:0.5346;stroke-linejoin:round;stroke-miterlimit:16.0916;}
	.st7{fill:none;stroke:#FFFFFF;stroke-width:2;stroke-miterlimit:16.0916;}
</style>
<g>
	<path class="st0" d="M147.28,44.98v66.9l23.94,40.48h9.62l24.06-40.72l-1.92-68.17l-22.43-14.54v-2.69c0,0,0.14-1.08-5.8-1.08
		s-5.31,1.08-5.31,1.08l-0.12,3L147.28,44.98z"/>
	<rect x="147.04" y="97.23" class="st0" width="1.36" height="75.67"/>
	<rect x="200.9" y="96.35" class="st0" width="3.8" height="71.67"/>
	<rect x="156.29" y="93.27" class="st0" width="2.51" height="81.37"/>
	<rect x="163.52" y="88.94" class="st0" width="2.51" height="81.37"/>
	<rect x="188.2" y="92.71" class="st0" width="2.51" height="81.37"/>
	<rect x="189.35" y="88.14" class="st0" width="4.73" height="81.37"/>
</g>
<polygon class="st1" points="0.12,60.48 125.72,72.3 200.34,118.72 194.87,120.22 194.65,174.71 58.98,214.09 -0.32,178.65 "/>
<path class="st2" d="M90.3,215.78l51.65-0.22"/>
<path class="st2" d="M57.67,215.35H23.78"/>
<path class="st2" d="M216,216h-29.38"/>
<polyline class="st3" points="122.78,79.88 54.61,150.04 0.74,128.76 "/>
<path class="st4" d="M64.25,148.05"/>
<path class="st4" d="M184.3,118.12"/>
<line class="st5" x1="60.26" y1="156.69" x2="60.26" y2="202.25"/>
<line class="st6" x1="132.95" y1="81.96" x2="190.71" y2="117.19"/>
<polygon class="st7" points="158.11,138.42 105.81,150.51 105.81,202.09 158.11,186.99 "/>
</svg>
