<?xml version="1.0" encoding="utf-8"?>
<!-- Generator: Adobe Illustrator 27.7.0, SVG Export Plug-In . SVG Version: 6.00 Build 0)  -->
<svg version="1.1" id="Layer_1" xmlns="http://www.w3.org/2000/svg" xmlns:xlink="http://www.w3.org/1999/xlink" x="0px" y="0px"
	 viewBox="0 0 216 216" style="enable-background:new 0 0 216 216;" xml:space="preserve">
<style type="text/css">
	.st0{fill-rule:evenodd;clip-rule:evenodd;}
	.st1{fill-rule:evenodd;clip-rule:evenodd;stroke:#000000;stroke-width:1.1442;}
	.st2{fill-rule:evenodd;clip-rule:evenodd;fill-opacity:0.091;}
	.st3{fill-rule:evenodd;clip-rule:evenodd;stroke:#000000;stroke-width:0.2803;}
	.st4{fill-rule:evenodd;clip-rule:evenodd;stroke:#000000;stroke-width:0.3814;}
	.st5{fill-rule:evenodd;clip-rule:evenodd;stroke:#000000;stroke-width:0.7628;}
</style>
<g>
	<g>
		<path class="st0" d="M134,194.06c0,0-6.39,1.53-7.03,2.57c-0.65,1.04-1.4,2.63-1.4,2.63s3.19-0.67,3.46-1.6
			c0.27-0.94,7.85,0.29,7.85,0.29"/>
		<path class="st1" d="M134,194.06c0,0-6.39,1.53-7.03,2.57c-0.65,1.04-1.4,2.63-1.4,2.63s3.19-0.67,3.46-1.6
			c0.27-0.94,7.85,0.29,7.85,0.29"/>
	</g>
	<g>
		<path class="st0" d="M102.14,181.18c0,0,9.16-1.31,11.66-0.97c2.5,0.34,5.46,1.92,5.46,1.92s-4.59-0.56-5.86-0.21
			c-1.27,0.35-3.52,2.2-3.52,2.2"/>
		<path class="st1" d="M102.14,181.18c0,0,9.16-1.31,11.66-0.97c2.5,0.34,5.46,1.92,5.46,1.92s-4.59-0.56-5.86-0.21
			c-1.27,0.35-3.52,2.2-3.52,2.2"/>
		<path class="st0" d="M109.84,188.27c-0.77-0.72,14.43-2.67,14.72-3.55c0.3-0.88-20.67-3.04-20.67-3.04"/>
		<path class="st1" d="M109.84,188.27c-2.22-0.62,11.74-2.84,14.72-3.55c2.99-0.71-20.76-2.41-20.76-2.41"/>
		<path class="st0" d="M90.28,152.65c0.81,4.01,8.69,33.51,11.53,34.29c2.84,0.78,11.6,4.09,12.36,4.42
			c0.93,0.41,4.91,3.57,4.91,3.57s-2.47-5.09-3.63-5.36c-1.15-0.27-8.97-5.55-9.4-6.69c-5.16-9.8-8.58-24.89-9.25-30.64"/>
		<path class="st1" d="M90.28,152.65c0.81,4.01,8.69,33.51,11.53,34.29c2.84,0.78,11.6,4.09,12.36,4.42
			c0.93,0.41,4.91,3.57,4.91,3.57s-2.47-5.09-3.63-5.36c-1.15-0.27-8.97-5.55-9.4-6.69c-5.16-9.8-8.58-24.89-9.25-30.64"/>
	</g>
	<g>
		<path class="st0" d="M65.07,128.95c0,0,2.56,16.73,9.5,18.39c6.93,1.66,14.62,9.8,16.13,10.1c1.51,0.3,7.09,2.71,7.99,2.71
			c0.9,0,19.15-10.55,19.15-10.55"/>
		<path class="st1" d="M65.07,128.95c0,0,2.56,16.73,9.5,18.39c6.93,1.66,14.62,9.8,16.13,10.1c1.51,0.3,7.09,2.71,7.99,2.71
			c0.9,0,19.15-10.55,19.15-10.55"/>
		<path class="st0" d="M136.37,60.45c-15.8,13.25-17.33,9.51-18.52,9.85c-1.19,0.34-12.4,8.83-17.33,8.83s-15.97-2.04-22.08-0.51
			c-6.12,1.53-36.18,12.23-36.18,12.23s2.04,32.28,12.23,38.9c10.19,6.62,28.37,10.19,28.37,10.19s69.31,4.42,78.48-15.63
			c9.17-20.05,7.47-36.01,7.47-36.01l-16.99-28.2"/>
		<path class="st1" d="M136.37,60.45c-15.8,13.25-17.33,9.51-18.52,9.85c-1.19,0.34-12.4,8.83-17.33,8.83s-15.97-2.04-22.08-0.51
			c-6.12,1.53-36.18,12.23-36.18,12.23s2.04,32.28,12.23,38.9c10.19,6.62,28.37,10.19,28.37,10.19s69.31,4.42,78.48-15.63
			c9.17-20.05,7.47-36.01,7.47-36.01l-16.99-28.2"/>
		<path class="st0" d="M135.94,194.11c0,0,8.63-3.34,11.14-3.57c2.51-0.23,5.76,0.64,5.76,0.64s-4.6,0.49-5.76,1.12
			c-1.16,0.63-2.93,2.93-2.93,2.93"/>
		<path class="st1" d="M135.94,194.11c0,0,8.63-3.34,11.14-3.57c2.51-0.23,5.76,0.64,5.76,0.64s-4.6,0.49-5.76,1.12
			c-1.16,0.63-2.93,2.93-2.93,2.93"/>
		<path class="st0" d="M145.04,199.28c-0.92-0.52,13.45-5.85,13.54-6.77c0.09-0.93-20.82,1.69-20.82,1.69"/>
		<path class="st1" d="M145.04,199.28c-2.31-0.11,10.79-5.41,13.54-6.77c2.75-1.36-20.77,2.33-20.77,2.33"/>
		<path class="st0" d="M117.95,168.98c1.69,3.72,16.02,30.69,18.96,30.81c2.94,0.12,12.22,1.37,13.04,1.52
			c1,0.19,5.59,2.37,5.59,2.37s-3.56-4.4-4.74-4.4c-1.19,0-9.99-3.39-10.67-4.4c-7.24-8.39-13.97-22.31-15.91-27.76"/>
		<path class="st1" d="M117.95,168.98c1.69,3.72,16.02,30.69,18.96,30.81c2.94,0.12,12.22,1.37,13.04,1.52
			c1,0.19,5.59,2.37,5.59,2.37s-3.56-4.4-4.74-4.4c-1.19,0-9.99-3.39-10.67-4.4c-7.24-8.39-13.97-22.31-15.91-27.76"/>
		<path class="st2" d="M77.09,147.96c0,0,11.69,8.82,12.51,9.02c0.82,0.21,7.38,2.87,8.61,2.87c1.23,0,6.77-3.28,6.77-3.28
			l0.62-10.25C97.29,146.95,97.1,152.7,77.09,147.96L77.09,147.96z"/>
		<path class="st0" d="M149.28,130.74c-3.39,14.63-3.22,19.9-12.78,29.93c-0.62,1.87-6.86,10.6-9.04,10.91
			c-2.18,0.31-9.04,0-10.6-1.25c-1.56-1.25-5.3-10.6-7.48-11.54c-2.18-0.94-20.58-11.23-21.2-12.78
			c-0.62-1.56-8.11-10.29-8.11-10.29"/>
		<path class="st1" d="M149.28,130.74c-3.39,14.63-3.22,19.9-12.78,29.93c-0.62,1.87-6.86,10.6-9.04,10.91
			c-2.18,0.31-9.04,0-10.6-1.25c-1.56-1.25-5.3-10.6-7.48-11.54c-2.18-0.94-20.58-11.23-21.2-12.78
			c-0.62-1.56-8.11-10.29-8.11-10.29"/>
	</g>
	<g>
		<path class="st0" d="M160.82,91.84c-0.44,22.92-6.39,32.62-18.73,34.6c-12.34,1.98-41.87,10.36-44.52,9.48
			c-2.64-0.88-15.65-0.44-15.65-3.09c0-2.64,30.19-10.58,30.19-10.58s-27.77,9.48-28.65,6.17c-0.88-3.31,25.78-12.12,25.78-12.12
			s-19.83,8.15-20.28,3.75c-0.44-4.41,16.53-8.15,16.53-8.15s-15.65,3.75-14.99,0.88c0.66-2.86,10.8-4.19,10.8-4.19
			s-5.73-0.44-5.51-1.98c0.22-1.54,7.93-3.75,7.93-3.75l24.46,13.66"/>
		<path class="st1" d="M160.82,91.84c-0.44,22.92-15.17,22.62-18.73,34.6c-1.74,5.84-39.76,11.13-44.52,9.48
			c-2.63-0.91-15.65-0.44-15.65-3.09c0-2.64,30.19-10.58,30.19-10.58s-27.77,9.48-28.65,6.17c-0.88-3.31,25.78-12.12,25.78-12.12
			s-19.83,8.15-20.28,3.75c-0.44-4.41,16.53-8.15,16.53-8.15s-15.65,3.75-14.99,0.88c0.66-2.86,10.8-4.19,10.8-4.19
			s-5.73-0.44-5.51-1.98c0.22-1.54,14.98-5.17,14.98-5.17l17.41,15.09"/>
		<g>
			<g>
				<path class="st3" d="M112.66,113.27c-18.52,5.03-21.02,6.08-19.95,7.85c2.25,3.71,26.68-2.72,26.68-2.73"/>
				<path class="st3" d="M112.99,102.46c-18.52,5.03-21.02,6.08-19.95,7.85c2.25,3.71,26.68-2.72,26.68-2.73"/>
			</g>
			<path class="st4" d="M122.02,124.09c-24.26,6.03-27.56,7.38-26.3,9.96c2.65,5.44,34.64-2.22,34.63-2.24"/>
		</g>
	</g>
	<g>
		<path class="st0" d="M166.98,95.14c0,15.23-15.52,32.05-23.01,32.05s-34.61-7.21-36.39-20.03c-1.78-12.82,27.47-16.03,27.47-16.03
			"/>
		<path class="st1" d="M166.98,95.14c0,15.23-15.52,32.05-23.01,32.05s-34.61-7.21-36.39-20.03c-1.78-12.82,27.47-16.03,27.47-16.03
			"/>
		<g>
			<path class="st4" d="M131.79,91.47l-12.59,8.31l17.18-1.6l-6.4,5.93l22.76-2.99l-11.92,10.42l14.5-2.79l-2.53,8.98l7.28-3.3"/>
			<path class="st4" d="M116.51,96.68l-6.14,7.79l11.82-0.1l-5.99,6.5l17.18,0.15l-6.97,7.95l17.91-1.39l-4.54,7.12l10.78-0.57"/>
		</g>
	</g>
	<g>
		<path class="st0" d="M176.98,53.71c5.84-1.97,4.09-10.51,4.09-10.51l-3.41-3.61l-10.5,5.98l1.18,4.92
			C168.33,50.5,171.27,54.62,176.98,53.71L176.98,53.71z"/>
		<path class="st1" d="M177.4,54.14c5.84-1.97,3.66-10.94,3.66-10.94l-3.41-3.61l-10.5,5.98l1.18,4.92
			C168.33,50.49,171.69,55.04,177.4,54.14L177.4,54.14z"/>
		<path class="st0" d="M159.35,26.5c-13.56,7.9-15.81,11.88-17.9,16.05c-2.09,4.17-6.11,17.74-8.65,20.27
			c-2.53,2.53-4.62,3.58-4.62,3.58l7.3-2.53L134.59,74c2.6-3.19,4.01-6.54,4.77-9.99l1.94,12.97c0.91-4.1,2.54-7.24,5.81-8.2
			l0.3,9.24c3.88-0.09,6.5-2.07,7.75-6.11l-0.3,12.07c1.35-2.72,3.09-4.66,6.26-3.73c1.2,6.44,0.39,9.53-0.75,12.07l4.62-2.09
			l-0.45,7.45c0,0,5.22-7.16,4.92-9.24c-0.3-2.09-2.38-3.88-1.79-6.26c1.25-4.98,4.02-15.65,3.13-18.48
			c-0.89-2.83-6.41-22.96-6.41-22.96L159.35,26.5L159.35,26.5z"/>
		<path class="st1" d="M158.79,26.36c-13.56,7.9-15.25,12.02-17.34,16.19c-2.09,4.17-6.11,17.74-8.65,20.27
			c-2.53,2.53-4.62,3.58-4.62,3.58l7.3-2.53L134.59,74c2.6-3.19,4.01-6.54,4.77-9.99l1.94,12.97c0.91-4.1,2.54-7.24,5.81-8.2
			l0.3,9.24c3.88-0.09,6.5-2.07,7.75-6.11l-0.3,12.07c1.35-2.72,3.09-4.66,6.26-3.73c1.2,6.44,0.39,9.53-0.75,12.07l4.62-2.09
			l-0.45,7.45c0,0,5.22-7.16,4.92-9.24c-0.3-2.09-2.38-3.88-1.79-6.26c1.25-4.98,4.02-15.65,3.13-18.48
			c-0.89-2.83-6.41-22.96-6.41-22.96L158.79,26.36L158.79,26.36z"/>
		<path class="st0" d="M176.07,28.66c-2.46-4.82-13.57-4.1-17.46-2.31c-3.97,1.83-6.66,9.17-6.66,9.17l5.71-3.8l-5.03,8.36l5.09-3.6
			l-4.69,11.75l5.03-6.05l-1.63,7.27l2.11-3.33l-0.27,7.74l3.67-5.91l1.09,10.87l1.22-4.48l2.11,7.47l0.88-7.06l3.12,7.27
			c0,0-0.79-8.16-1.63-9.65c-2.26-4.01,6.49-11.21,8.14-9.62l5.91-6.16L176.07,28.66L176.07,28.66z"/>
		<path class="st1" d="M176.07,28.66c-2.46-4.82-13.57-4.1-17.46-2.31c-3.97,1.83-6.66,9.17-6.66,9.17l5.71-3.8l-5.03,8.36l5.09-3.6
			l-4.69,11.75l5.03-6.05l-1.63,7.27l2.11-3.33l-0.27,7.74l3.67-5.91l1.09,10.87l1.22-4.48l2.11,7.47l0.88-7.06l3.12,7.27
			c0,0-1.77-7.95-1.63-9.65c0.14-1.7,0.12-4.92,2.55-7.35c0.96-0.96,5.36-2.59,8.65-3.06c4.23-0.61,4.27-4.26,4.27-4.26
			L176.07,28.66L176.07,28.66z"/>
		<path class="st0" d="M168.05,31.25c-1.41,0-5.54,1.41-5.54,4.31c0,2.9,3.78,7.65,4.49,7.65c0.7,0,1.76-0.62,2.73-0.62
			c0.97,0,1.76,1.94,1.76,1.94l4.4-2.2L175,37.5l2.64-2.46C177.64,35.03,172.89,31.16,168.05,31.25L168.05,31.25z"/>
		<path class="st5" d="M168.05,31.25c-1.41,0-5.54,1.41-5.54,4.31c0,2.9,3.78,7.65,4.49,7.65c0.7,0,1.76-0.62,2.73-0.62
			c0.97,0,1.76,1.94,1.76,1.94l4.4-2.2L175,37.5l2.64-2.46C177.64,35.03,172.89,31.16,168.05,31.25L168.05,31.25z"/>
		<path class="st0" d="M180.52,34.2c6.36,4.8,9.75,9.79,6.67,9.94c-2.59,0.12-2.69-1.25-3.27-1.25c-0.58,0-6.29-0.29-6.29-0.29
			l-0.81-4.6"/>
		<path class="st1" d="M176.83,38.15c2.19-1.53,2.11-4.61,3.44-3.87c6.81,3.77,9.59,10,6.93,9.86c-2.59-0.14-2.69-1.25-3.27-1.25
			s-6.29-0.29-6.29-0.29L176.83,38.15L176.83,38.15z"/>
		<path class="st2" d="M186.33,43.84c-2.93-2.02-4.95-5.48-5.72-5c-0.77,0.48-2.69,3.51-2.69,3.51"/>
		<path class="st0" d="M165.14,24.36c-1.4-2.54-4.2-10.9-3.34-11.16c2.62,2.01,3.07,3.47,5.3,4.49c0,0,0.67-6.26,1.25-6.98
			c1.27,0.87,3.6,7.99,3.6,7.99s3.96-8.58,5.08-9.9c1.28,1.24-0.1,13.17-0.1,13.17s3.69-6.97,5.22-7.55
			c0.79,1.66,0.48,8.08,0.48,8.08c2.42-3.52,1.66-0.73,2.6-1.34c1.73,4.19,1.44,11.78-3.21,13.61
			C178.08,35.6,165.93,28.05,165.14,24.36L165.14,24.36z"/>
		<path class="st1" d="M165.14,24.36c-1.4-2.54-4.2-10.9-3.34-11.16c2.62,2.01,3.07,3.47,5.3,4.49c0,0,0.67-6.26,1.25-6.98
			c1.27,0.87,3.6,7.99,3.6,7.99s3.96-8.58,5.08-9.9c1.28,1.24-0.1,13.17-0.1,13.17s3.69-6.97,5.22-7.55
			c0.79,1.66,0.48,8.08,0.48,8.08c2.42-3.52,1.66-0.73,2.6-1.34c1.73,4.19,1.44,11.78-3.21,13.61
			C178.08,35.6,165.93,28.05,165.14,24.36L165.14,24.36z"/>
		<g>
			<path class="st0" d="M171.96,35.81c0.01,1.6-1.35,2.91-3.04,2.92c-1.69,0.01-3.07-1.28-3.08-2.88c0-0.01,0-0.03,0-0.04"/>
			<path class="st0" d="M171.59,35.78c0.01,1.42-1.2,2.59-2.71,2.59c-1.5,0.01-2.73-1.14-2.74-2.57c0-0.01,0-0.02,0-0.03"/>
			<path class="st0" d="M170.91,35.74c0.01,1.03-0.89,1.86-2.01,1.87c-1.12,0.01-2.03-0.82-2.04-1.84c0-0.01,0-0.02,0-0.03"/>
		</g>
		<path class="st0" d="M167.82,33.69c0.43,2.08,1.89,2.07,3.68,1.6C169.47,35.17,168.89,35.04,167.82,33.69z"/>
		<path class="st4" d="M187.49,43.97c0,0-2.86-2.74-5.15-3.48c-2.29-0.75-5.29-2.24-5.29-2.24"/>
		<path class="st0" d="M46.59,99.9c-17.08-5.15-23.04-1.9-22.5-0.54c0.54,1.36,22.5,5.15,22.5,5.15s-19.25-3.25-19.25,1.63
			s26.3,2.17,26.3,2.17s-19.79,4.07-16.81,8.95c2.98,4.88,27.92-6.51,27.92-6.51"/>
		<path class="st1" d="M46.59,99.9c-17.08-5.15-23.04-1.9-22.5-0.54c0.54,1.36,22.5,5.15,22.5,5.15s-19.25-3.25-19.25,1.63
			s26.3,2.17,26.3,2.17s-19.79,4.07-16.81,8.95c2.98,4.88,27.92-6.51,27.92-6.51"/>
		<path class="st4" d="M54.24,102.18c-23.94,7.2-27.17,8.7-25.78,11.22c2.91,5.31,34.49-3.89,34.48-3.91"/>
		<path class="st0" d="M76.55,82.98C57.5,82.13,49.87,30.38,39.7,34.34C34.03,36.06,61.44,80.4,61.44,80.4s-19.76-38.74-25.16-37.2
			c-7.66,2.19,16.59,42.22,16.59,42.22S32.85,47.04,28.99,49.38c-3.87,2.34,14.72,38.41,14.72,38.41c0,0-14.66-27.41-18.23-23.42
			c-3.58,3.99,16.16,31.11,16.16,31.11S26.13,75.82,24.42,79.51c-1.77,3.82,12.8,21.86,12.8,21.86s13.29,13.89,30.14,10.93
			c16.84-2.95,16.84-2.95,16.84-2.95"/>
		<path class="st1" d="M76.55,82.98C57.5,82.13,49.87,30.38,39.7,34.34C34.03,36.06,61.44,80.4,61.44,80.4s-19.76-38.74-25.16-37.2
			c-7.66,2.19,16.59,42.22,16.59,42.22S32.85,47.04,28.99,49.38c-3.87,2.34,14.72,38.41,14.72,38.41c0,0-14.8-27.48-18.38-23.49
			c-3.58,3.99,16.31,31.17,16.31,31.17S26.13,75.82,24.42,79.51c-1.77,3.82,12.8,21.86,12.8,21.86s13.29,13.89,30.14,10.93
			c16.84-2.95,16.84-2.95,16.84-2.95"/>
		<path class="st0" d="M89.84,98.55c0,0-27.21,5.18-28.29,3.02c-1.08-2.16,11.01-3.02,11.01-3.02s-15.21,2.52-15.76,0.43
			c-0.55-2.1,14.68-3.89,14.68-3.89s-15.99-0.05-15.98-3.02c0.01-2.98,11.44-1.94,11.44-1.94s-13.43-1.1-13.6-4.97
			c-0.17-3.83,13.39,1.73,13.39,1.73s-14.25-6.53-12.34-9.18c2.05-2.85,14.93,7.02,14.93,7.02s-13.64-9.35-11.01-11.88
			c2.61-2.51,5.83,2.59,7.99,4.75c2.16,2.16,9.41,1.6,12,1.68c2.46,0.07,14.7,5.8,14.7,5.8"/>
		<path class="st0" d="M101.14,183.37c0,0-6.13,2.36-6.63,3.48c-0.5,1.12-1.03,2.79-1.03,2.79s3.07-1.09,3.21-2.05
			c0.15-0.96,7.81-0.76,7.81-0.76"/>
		<path class="st1" d="M101.14,183.37c0,0-6.13,2.36-6.63,3.48c-0.5,1.12-1.03,2.79-1.03,2.79s3.07-1.09,3.21-2.05
			c0.15-0.96,7.81-0.76,7.81-0.76"/>
		<g>
			<path class="st4" d="M48.56,83.28c-15.87-19.32-18.5-21.71-20.3-19.46c-3.77,4.73,16.89,30.32,16.9,30.31"/>
			<path class="st4" d="M55.76,82.08C42.87,60.66,40.62,57.91,38.52,59.87C34.1,64,50.81,92.33,50.82,92.32"/>
			<path class="st1" d="M89.84,98.55c0,0-27.21,5.18-28.29,3.02c-1.08-2.16,11.01-3.02,11.01-3.02s-15.21,2.52-15.76,0.43
				c-0.55-2.1,14.68-3.89,14.68-3.89s-15.99-0.05-15.98-3.02c0.01-2.98,11.44-1.94,11.44-1.94s-13.43-1.1-13.6-4.97
				c-0.17-3.83,13.39,1.73,13.39,1.73s-14.25-6.53-12.34-9.18c2.05-2.85,14.93,7.02,14.93,7.02s-13.64-9.35-11.01-11.88
				c2.61-2.51,5.83,2.59,7.99,4.75c2.16,2.16,9.41,1.6,12,1.68c2.46,0.07,14.7,5.8,14.7,5.8"/>
		</g>
		<g>
			<path class="st2" d="M148.05,136.88c0,0-2.46,13.54-4.31,15.38c-1.85,1.85-6.77,7.79-6.77,7.79s-7.79,11.48-9.02,11.69
				c-1.23,0.21-10.87-1.23-10.87-1.23l11.07-9.43l6.36-20.51C142.61,133,144.8,138.14,148.05,136.88L148.05,136.88z"/>
			<path class="st2" d="M138.7,196.54l5.61,0.83l-3.91-2.1l-10.4-15.13l-3.66-8.54l-3.27-0.1
				C128.95,183.38,133.68,191.49,138.7,196.54L138.7,196.54z"/>
			<path class="st2" d="M103.75,183.45l2.59,0.05l-5.08-12.3l-1.95-7.03l-0.73-4l-2.59-0.83
				C96.61,168.09,99.88,175.71,103.75,183.45L103.75,183.45z"/>
			<path class="st2" d="M170.63,46.02c0,0-7.59,6.73-9.59,9.59c-2.01,2.87-0.29,10.74-2.44,15.33c-2.15,4.59,5.3,17.92,5.3,18.64
				c0,0.5-1.04,5.27-1.8,8.74c-2.43,1.31-4.78,2.63-5.93,3.76c-1.94,1.91-5.79,8.15-11.85,12.78c-6.06,4.63-21.35,12.67-29.6,15.5
				c-8.25,2.82-24.32,4.36-24.32,4.36l8.72,1.32c0,0,12.67-1.63,22.9-2.13c18-4.79,19.04-8.08,22.89-6.79
				c20.37-10.74,23.86-28.84,23.86-28.84l0.7-9.13c0,0-2.42-5.44-1.85-6.3c0.57-0.86,3.58-15.2,3.58-18.78
				c0-3.58-1.86-6.59-2.43-9.17L170.63,46.02L170.63,46.02z"/>
			<path class="st2" d="M80.78,133.3l-0.57,3.15l3.44,3.3c0,0-26.23-6.02-30.24-10.61s-6.16-11.61-6.16-11.61l6.02-2.15
				C59.63,123.04,68.44,129.75,80.78,133.3L80.78,133.3z"/>
		</g>
	</g>
</g>
</svg>
