<?xml version="1.0" encoding="utf-8"?>
<!-- Generator: Adobe Illustrator 27.7.0, SVG Export Plug-In . SVG Version: 6.00 Build 0)  -->
<svg version="1.1" id="Layer_1" xmlns="http://www.w3.org/2000/svg" xmlns:xlink="http://www.w3.org/1999/xlink" x="0px" y="0px"
	 viewBox="0 0 216 216" style="enable-background:new 0 0 216 216;" xml:space="preserve">
<style type="text/css">
	.st0{fill:none;stroke:#000000;stroke-width:4.0836;stroke-miterlimit:4;}
	.st1{fill:none;stroke:#000000;stroke-width:3.3179;stroke-miterlimit:4;}
	.st2{fill:none;stroke:#000000;stroke-width:3.0627;stroke-miterlimit:4;}
	.st3{fill:none;stroke:#000000;stroke-width:4.8493;}
	.st4{fill:#231F20;stroke:#FFFFFF;stroke-width:0.7403;stroke-miterlimit:4.8256;}
	.st5{fill:#231F20;stroke:#FFFFFF;stroke-width:1.0209;stroke-miterlimit:3.3116;}
	.st6{fill:#231F20;stroke:#FFFFFF;stroke-width:1.0209;}
	.st7{fill:#FFFFFF;stroke:#FFFFFF;stroke-width:0.7403;stroke-miterlimit:4.8256;}
	.st8{fill:none;stroke:#FFFFFF;stroke-miterlimit:4.8256;}
</style>
<path class="st0" d="M55.09,50.24l51.94,62.11l-0.29,0.25L54.8,50.49L55.09,50.24z"/>
<path class="st1" d="M104.87,119.4l42.67-48.42l0.23,0.19l-42.67,48.42L104.87,119.4z"/>
<path class="st2" d="M160.58,141.9l-38.64-17.09l0.08-0.18l38.64,17.09L160.58,141.9z"/>
<path class="st3" d="M68.02,169.58l25.88-39.2l0.17,0.14l-25.88,39.2L68.02,169.58z"/>
<path class="st4" d="M145.18,115.89c0,21.61-17.53,39.14-39.15,39.14s-39.15-17.52-39.15-39.14s17.53-39.14,39.15-39.14
	S145.18,94.27,145.18,115.89z"/>
<path class="st5" d="M182.75,50.84c0,12.38-10.04,22.42-22.43,22.42c-12.39,0-22.43-10.04-22.43-22.42s10.04-22.42,22.43-22.42
	C172.71,28.42,182.75,38.46,182.75,50.84z"/>
<path class="st5" d="M75.28,34.63c0,14.83-12.03,26.86-26.87,26.86S21.55,49.47,21.55,34.63S33.58,7.78,48.42,7.78
	S75.28,19.8,75.28,34.63z"/>
<path class="st5" d="M203.66,159.95c0,14.83-12.03,26.86-26.87,26.86s-26.87-12.02-26.87-26.86s12.03-26.86,26.87-26.86
	S203.66,145.12,203.66,159.95z"/>
<path class="st6" d="M74.11,169.83c3.74,15.83-6.09,31.69-21.95,35.44s-31.76-6.04-35.5-21.87s6.09-31.69,21.95-35.44
	S70.37,154,74.11,169.83z"/>
<circle class="st7" cx="106.03" cy="115.89" r="7.66"/>
<circle class="st8" cx="106.03" cy="115.89" r="11.8"/>
<circle class="st8" cx="106.03" cy="115.89" r="15.93"/>
<circle class="st8" cx="106.03" cy="115.89" r="21.22"/>
<circle class="st8" cx="106.03" cy="115.89" r="26.28"/>
</svg>
