<?xml version="1.0" encoding="utf-8"?>
<!-- Generator: Adobe Illustrator 27.7.0, SVG Export Plug-In . SVG Version: 6.00 Build 0)  -->
<svg version="1.1" id="Layer_1" xmlns="http://www.w3.org/2000/svg" xmlns:xlink="http://www.w3.org/1999/xlink" x="0px" y="0px"
	 viewBox="0 0 216 216" style="enable-background:new 0 0 216 216;" xml:space="preserve">
<path d="M189.53,37.29H26.26c-9.35,0-16.96,7.61-16.96,16.96v106.19c0,2.24,0.45,4.37,1.24,6.33l-0.05,0.06l0.1,0.08
	c2.55,6.15,8.61,10.49,15.67,10.49h163.27c9.35,0,16.96-7.61,16.96-16.96V54.25C206.49,44.9,198.88,37.29,189.53,37.29z
	 M196.11,159.47l-34.12-41.31c-1.42,3.62-3.25,6.87-5.43,9.72l32.32,39.13H26.26c-0.76,0-1.47-0.15-2.14-0.39l29.11-35.24
	c-1.34-4.02-2.26-8.36-2.68-13.05L19.69,155.7V56.88l34.17,33.37c1.21-3.55,2.71-6.94,4.47-10.14L25.22,47.78
	c0.34-0.06,0.68-0.11,1.04-0.11h163.27c0.1,0,0.19,0.02,0.28,0.03l-30.2,26.39c1.71,3.19,3.07,6.61,4.06,10.24l32.44-28.34
	L196.11,159.47L196.11,159.47z"/>
<path d="M113.32,54.16c-34.39,0-57.16,27.05-57.16,58.24c0,29.96,22.31,48.15,47.69,48.15c11.01,0,18.95-1.38,28.12-5.5l-2.75-8.71
	c-6.11,3.06-14.52,4.74-22.32,4.74c-22.77,0-38.97-14.37-38.97-40.04c0-29.35,20.33-47.53,43.87-47.53
	c23.69,0,36.53,15.28,36.53,35.31c0,17.73-8.25,26.14-14.83,25.83c-4.28-0.15-5.35-4.28-3.82-13.3l4.59-28.43
	c-3.82-1.99-11.46-3.67-18.19-3.67c-22.01,0-35.92,16.81-35.92,35.61c0,12.53,7.34,20.02,17.12,20.02c8.25,0,14.98-4.13,19.87-11.77
	h0.3c0.76,7.95,5.96,11.77,13.14,11.77c16.51,0,29.04-14.06,29.04-36.53C159.64,72.65,140.38,54.16,113.32,54.16z M116.23,106.43
	c-1.37,8.86-7.34,16.05-12.99,16.05c-5.05,0-7.64-3.67-7.64-9.48c0-11.77,7.95-21.7,18.03-21.7c1.83,0,3.52,0.31,4.74,0.61
	C118.37,91.91,116.23,106.43,116.23,106.43z"/>
</svg>
