<?xml version="1.0" encoding="utf-8"?>
<!-- Generator: Adobe Illustrator 27.7.0, SVG Export Plug-In . SVG Version: 6.00 Build 0)  -->
<svg version="1.1" id="Layer_1" xmlns="http://www.w3.org/2000/svg" xmlns:xlink="http://www.w3.org/1999/xlink" x="0px" y="0px"
	 viewBox="0 0 216 216" style="enable-background:new 0 0 216 216;" xml:space="preserve">
<path d="M216.42,40.67c-18.03-8.46-48.74-10-68.03-21.98c-26.99-16.75-55.2,7.32-81.81,9.31C32.66,6.72,0.27,3.98,0.27,3.98
	L0.07,66.55l216.11,1.57L216.42,40.67z"/>
<polygon points="7.22,72.24 28.64,72.24 -0.01,96.04 -0.17,76.34 "/>
<polygon points="46.45,72.24 69.91,72.24 -0.17,154.1 -0.17,117.35 "/>
<polygon points="89.15,72.24 112.28,72.24 20.43,215.98 -1.17,215.98 -1.01,183.92 "/>
<polygon points="130.87,72.24 156.47,72.24 109.84,216.15 51.32,216.31 "/>
<polygon points="174.13,72.24 195.55,72.24 204.62,216.14 144.11,216.14 "/>
<polygon points="210.99,72.24 215.96,72.24 215.82,114.91 "/>
</svg>
