<?xml version="1.0" encoding="utf-8"?>
<!-- Generator: Adobe Illustrator 27.7.0, SVG Export Plug-In . SVG Version: 6.00 Build 0)  -->
<svg version="1.1" id="Layer_1" xmlns="http://www.w3.org/2000/svg" xmlns:xlink="http://www.w3.org/1999/xlink" x="0px" y="0px"
	 viewBox="0 0 216 216" style="enable-background:new 0 0 216 216;" xml:space="preserve">
<style type="text/css">
	.st0{fill:#006B50;}
	.st1{fill-rule:evenodd;clip-rule:evenodd;fill:#FFFFFF;stroke:#FFFFFF;stroke-miterlimit:10;}
	.st2{fill-rule:evenodd;clip-rule:evenodd;fill:#006B50;}
	.st3{fill:#006B50;stroke:#FFFFFF;stroke-miterlimit:10;}
	.st4{fill-rule:evenodd;clip-rule:evenodd;fill:#FFFFFF;}
</style>
<path class="st0" d="M216.36,66.16C160.62,24.39,114.68,26.14,72.88,37.04C39.78,11.45-3.4,24.99,0.05,22.32l-0.31,81.89
	l216.49,4.62L216.36,66.16L216.36,66.16z"/>
<path class="st1" d="M215.87,159.14v-87.3c0,0-68.83-2.86-104.61,14.55c-59.77,29.1-79.7,72.75-79.7,72.75H215.87L215.87,159.14z"/>
<path class="st2" d="M215.53,71.8c-26.02,13.15-54.59,49.4-54.59,49.4l17.63,6.88c0,0,6.65-18.38,15.72-31.89
	s22.07-24.94,21.35-24.21L215.53,71.8z"/>
<path class="st2" d="M215.82,72.54c0,0-12.49,19.44-18.21,36.84c-4.47,13.59-6.26,25.48-6.26,25.48l12.38,7.52
	c0,0,0.63-22.81,3.52-35.22s8.57-34.11,8.57-34.84L215.82,72.54L215.82,72.54z"/>
<path class="st2" d="M215.93,71.74c0,0-36.45,12.46-53.01,24.34c-12.38,8.88-19.62,19.11-19.62,19.11l-27.19-5.16
	c0,0,25.04-19.69,36.69-22.79c11.41-4.57,62.74-16.52,62.24-15.43L215.93,71.74z"/>
<path class="st2" d="M215.87,74.39l-4.5,67.14l0.2,6.71l4.29,3.1L215.87,74.39L215.87,74.39z"/>
<path class="st3" d="M0.07,81.84c125.7-5.94,215.88,54.48,215.88,54.48v79.73L0.5,215.48L0.07,81.84L0.07,81.84z"/>
<path class="st4" d="M0.21,81.84c23.3,26.86,43.68,27.85,77.68,107.43c14,32.76,12.41,26.51,12.41,26.51l51.65-0.22
	c0,0-28.16-44.12-67.3-88.26C48.95,95.81-1.01,81.85,0.21,81.84L0.21,81.84z"/>
<path class="st4" d="M0.62,81.84c0,0,26.98,37.19,40.88,78.51s16.17,55,16.17,55H23.78c0,0,1.7-10.85-1.98-40.8
	C17.95,143.19,1.44,80.82,0.62,81.84L0.62,81.84z"/>
<path class="st4" d="M1.24,82.12c0,0,82.78,4.88,133.88,41.04c39.37,27.85,80.88,64.1,80.88,64.1V216h-29.38
	c0,0-6.59-21.84-69.11-75.89S1.05,82.32,1.05,82.32L1.24,82.12z"/>
</svg>
