<?xml version="1.0" encoding="utf-8"?>
<!-- Generator: Adobe Illustrator 27.7.0, SVG Export Plug-In . SVG Version: 6.00 Build 0)  -->
<svg version="1.1" id="Layer_1" xmlns="http://www.w3.org/2000/svg" xmlns:xlink="http://www.w3.org/1999/xlink" x="0px" y="0px"
	 viewBox="0 0 216 216" style="enable-background:new 0 0 216 216;" xml:space="preserve">
<style type="text/css">
	.st0{fill:#006B50;}
</style>
<g shape-rendering="auto" transform="translate(0 -252.36)">
	<path color-rendering="auto" image-rendering="auto" class="st0" d="M52.05,327.72c-4.17,0-7.53,3.36-7.53,7.53v110.24
		c0,4.17,3.36,7.53,7.53,7.53H164.7c4.17,0,7.52-3.36,7.52-7.53V335.25c0-4.17-3.35-7.53-7.52-7.53H52.05L52.05,327.72z
		 M57.18,333.42h102.4c3.79,0,6.84,3.05,6.84,6.84v100.21c0,3.79-3.05,6.84-6.84,6.84H57.18c-3.79,0-6.84-3.05-6.84-6.84V340.26
		C50.34,336.47,53.39,333.42,57.18,333.42L57.18,333.42z"/>
	<path color-rendering="auto" image-rendering="auto" class="st0" d="M104.48,262.81c-22.05,0-39.81,17.75-39.81,39.81v25.24h5.46
		v-24.57c0-19.3,15.53-34.84,34.83-34.84h6.81c19.3,0,34.84,15.54,34.84,34.84v24.57h5.46v-25.24c0-22.05-17.76-39.81-39.81-39.81
		H104.48L104.48,262.81z"/>
	<path color-rendering="auto" image-rendering="auto" class="st0" d="M105.61,276.31c-15.68,0-28.3,12.62-28.3,28.3v23.25h3.88
		v-22.77c0-13.72,11.04-24.76,24.76-24.76h4.85c13.72,0,24.76,11.05,24.76,24.76v22.77h3.88v-23.25c0-15.68-12.62-28.3-28.3-28.3
		H105.61L105.61,276.31z"/>
	<path color-rendering="auto" image-rendering="auto" class="st0" d="M52.05,327.72c-4.17,0-7.53,3.36-7.53,7.53v110.24
		c0,4.17,3.36,7.53,7.53,7.53H164.7c4.17,0,7.52-3.36,7.52-7.53V335.25c0-4.17-3.35-7.53-7.52-7.53H52.05L52.05,327.72z
		 M57.18,333.42h102.4c3.79,0,6.84,3.05,6.84,6.84v100.21c0,3.79-3.05,6.84-6.84,6.84H57.18c-3.79,0-6.84-3.05-6.84-6.84V340.26
		C50.34,336.47,53.39,333.42,57.18,333.42L57.18,333.42z"/>
	<path color-rendering="auto" image-rendering="auto" class="st0" d="M78.78,364.05h59.19c1.28,0,2.33,1.04,2.33,2.33l0,0
		c0,1.28-1.04,2.33-2.33,2.33H78.78c-1.28,0-2.33-1.04-2.33-2.33l0,0C76.45,365.09,77.49,364.05,78.78,364.05z"/>
	<path color-rendering="auto" image-rendering="auto" class="st0" d="M78.78,413.68h59.19c1.28,0,2.33,1.04,2.33,2.33l0,0
		c0,1.28-1.04,2.33-2.33,2.33H78.78c-1.28,0-2.33-1.04-2.33-2.33l0,0C76.45,414.72,77.49,413.68,78.78,413.68z"/>
	<path color-rendering="auto" image-rendering="auto" class="st0" d="M78.78,388.35h59.19c1.28,0,2.33,1.04,2.33,2.33l0,0
		c0,1.28-1.04,2.33-2.33,2.33H78.78c-1.28,0-2.33-1.04-2.33-2.33l0,0C76.45,389.39,77.49,388.35,78.78,388.35z"/>
</g>
</svg>
