<?xml version="1.0" encoding="utf-8"?>
<!-- Generator: Adobe Illustrator 27.7.0, SVG Export Plug-In . SVG Version: 6.00 Build 0)  -->
<svg version="1.1" id="Layer_1" xmlns="http://www.w3.org/2000/svg" xmlns:xlink="http://www.w3.org/1999/xlink" x="0px" y="0px"
	 viewBox="0 0 216 216" style="enable-background:new 0 0 216 216;" xml:space="preserve">
<style type="text/css">
	.st0{fill:#010101;}
</style>
<path class="st0" d="M77.27,10.01c0,0-42.48,0.56-41.93,39.04s8.28,72.51,20.97,91.47s45.23,68.6,82.2,63.58
	c0,0,18.21-3.91,32-12.83l-44.68-35.14c0,0-13.24,8.37-21.52-2.79S70.1,90.32,70.1,90.32s-7.17-16.73,8.83-23.98
	C78.93,66.34,77.27,10.01,77.27,10.01z"/>
<path class="st0" d="M82.24,10.01c0,0,3.31-1.11,9.38,2.23c6.07,3.34,6.07,6.13,6.07,6.13l0.55,38.49c0,0-1.66,2.23-3.86,4.46
	c-2.21,2.23-9.38,5.58-10.48,3.35C82.79,62.44,82.24,10.01,82.24,10.01z"/>
<path class="st0" d="M129.53,152.02l12.28-6.48c0,0,2.76-0.55,7.17,2.23c4.41,2.79,27.59,21.2,27.59,21.2s3.86,3.35,2.76,7.25
	c-1.1,3.9-3.86,12.27-3.86,12.27S129.53,152.02,129.53,152.02z"/>
</svg>
