<?xml version="1.0" encoding="utf-8"?>
<!-- Generator: Adobe Illustrator 27.7.0, SVG Export Plug-In . SVG Version: 6.00 Build 0)  -->
<svg version="1.1" id="Layer_1" xmlns="http://www.w3.org/2000/svg" xmlns:xlink="http://www.w3.org/1999/xlink" x="0px" y="0px"
	 viewBox="0 0 216 216" style="enable-background:new 0 0 216 216;" xml:space="preserve">
<style type="text/css">
	.st0{fill-rule:evenodd;clip-rule:evenodd;}
</style>
<path class="st0" d="M207.64,118.58c-0.84-0.93-2.22-0.73-3.28-0.91c-0.57-0.1-0.64-0.41-0.89-0.96c-0.19-0.42-0.76-0.33-1.06-0.55
	c-0.72-0.51-1.07-1.65-1.8-2.28c-1.22-1.06-1.97-2.9-2.72-4.39c-1.37-2.73-2.28-5.67-2.41-8.85c-0.12-3.04,0.2-7.42-1.25-10.1
	c-0.57-1.05-0.08-2.21-0.06-3.43c0.04-1.65-0.04-3.13,0.71-4.59c1.63-3.22,3.07-5.95,3.48-9.74c0.42-3.89,0.76-7.8,1.19-11.69
	c0.16-1.44,0.93-3.97,0.59-5.36c-0.27-1.14-2.35,1.6-2.43,1.69c-3.24,3.73-5.87,7.6-8.53,11.86c-0.15,0.24-1.95,3.2-2.23,2.84
	c-0.99-1.24,0.18-5.35-1.26-5.91c-0.48-0.19-3.64,3.3-4.09,3.73c-0.67,0.63-1.09,1.85-1.97,1.26c-0.69-0.47-1.32-1.05-1.98-1.56
	c-5.52-4.24-11.21-7.39-17.3-10.3c-5.81-2.77-11.39-5.39-17.49-7.19c-6.02-1.77-12.07-4.05-18.28-4.59
	c-13.15-1.14-26.41-2.5-39.6-2.31c-12.53,0.19-19.96,0.94-32.34,3.23c-5.87,1.08-11.76,2.65-17.25,5.33
	c-2.75,1.34-5.4,2.99-7.79,5.08c-2.13,1.86-3.75,5.42-6.69,3.65c4.36-0.92,9.83-6.48,5.66-11.59c-2.9-3.55-8.9-2.05-11.46,1.38
	c-0.43,0.58-1.14,2.79-1.92,2.63c-0.84-0.17-1.43-1.17-2.12-1.67c-2.6-1.89-3.81,1.76-1.34,3.53c1.88,1.34,3.67,2.37,4.45,4.88
	c1.08,3.46,3.4,4.96,6.02,6.57c-4.66,6.99-7.22,15.68-6.42,24.57c0.42,4.67,1.8,8.9,3.39,13.17c1.59,4.27,3.48,8.61,6.03,12.2
	c1.56,2.2-3.32,3.11-4.33,4.52c-1.19,1.66-1.47,4.02-1.6,6.1c-0.07,1.12-0.09,2.24-0.16,3.35c-0.07,1.07-0.58,2.03-0.58,3.12
	c0,1.93,0.51,4.16-0.38,5.93c-0.73,1.45-2.07,2.38-3.29,3.19c-1.3,0.85-1.77,1.42-2.47,2.98c-0.44,0.98-1.09,3.7,0.85,2.66
	c-0.15,1.99-2.03,3.8-1.62,5.72c0.37,1.73,1.55,3.26,2.58,4.51c0.93,1.13,2.2,2.78,3.7,2.27c2.1-0.72,1.66-4.29,2.68-6.08
	c1.22-2.14,2.9-3.98,3.9-6.26c0.93-2.11,1.07-4.65,1.76-6.89c1.38-4.46,3.83-9.16,7.72-11.09c0.3,1.36,0.64,2.46,0.33,3.86
	c-0.31,1.39-0.72,2.68-0.7,4.15c0.03,3.44,2.88,6.83,4.5,9.47c1.73,2.82,3.37,5.67,3.42,9.25c0.04,3.2-0.81,7.1,0.62,9.98
	c0.35,0.7,0.83,2.39,1.59,2.56c0.91,0.21,0.61-1.29,1.4-0.97c1.64,0.65,0.96,3.83,2.64,4.67c1.92,0.96,4.25,0.42,6.24,0.08
	c2.43-0.41,4.61-0.78,2.86-4.01c-0.49-0.91-1.13-1.53-1.75-2.3c-0.88-1.11-0.99-2.72-1.3-4.12c-0.35-1.57-0.48-3.08-0.73-4.66
	c-0.27-1.74-1.12-3.22-1.79-4.77c-2.56-5.92-1.95-14.76-0.87-21.07c0.3-1.74,0.73-3.46,1.32-5.1c0.38-1.07,0.76-3.35,1.6-4.05
	c0.74-0.61,1.96,0.08,2.67,0.44c1.57,0.79,3.42,0.91,5.09,1.27c6.85,1.49,8.23,2.9,15.15,3.89c6.89,0.99,13.14,0.52,19.97-0.8
	c3.26-0.63,6.54-1.13,9.81-1.64c3.53-0.54,6.51-1.68,9.88-2.94c2.63-0.99,5.22-2.1,7.82-3.19c1.89-0.79,4.21,5.51,5.02,7.12
	c1.44,2.89,2.7,5.82,3.46,9.06c0.39,1.67,0.65,3.37,1.2,4.98c0.63,1.86,1.65,3.56,2.23,5.44c0.86,2.85,0.1,5.97,0.18,8.9
	c0.07,2.58,0.78,8.03,3.68,7.84c1.13-0.08,1.3,1.2,1.77,2.13c0.68,1.34,1.74,1.33,2.96,1.42c1.16,0.08,7.1,0.42,7.31-1.52
	c0.27-2.54-2.6-4.64-3.48-6.62c-1.21-2.75-2-6.41-2.56-9.42c-0.65-3.53-0.15-7.51-0.19-11.12c-0.02-1.79,0.12-3.62,0.3-5.4
	c0.12-1.24-0.06-2.32,1.14-1.8c2.03,0.88,4.11,1.65,6.05,2.78c1.89,1.11,3.52,2.72,5.19,4.22c1.49,1.34,1.88,4.02,1.71,6.17
	c-0.29,3.7-4.39,7.51-1.3,11.13c1.3,1.52,1.11,1.57,1.29,3.76c0.16,1.92,3.46,3.02,4.69,3.66c1.44,0.75,2.95,1.53,4.46,2.08
	c1.79,0.66,1.52-1.37,1.37-2.98c-0.23-2.44-0.77-4.36-0.42-6.87c0.37-2.59,1.09-5.14,1.02-7.79c-0.07-2.45-0.9-4.8-1.06-7.26
	c-0.16-2.4,0.07-4.85-0.29-7.22c-0.34-2.23-1.34-4.14-2.72-5.7c-1.84-2.08-2.78-3.94-3.84-6.66c4.82,1.45,9.13,3.98,14.1,4.76
	c2.58,0.41,5.19,0.46,7.76,0.86c2.98,0.47,5.88,1.58,8.85,2.2c2.27,0.48,4.66,1.08,6.96,1.21c1.02,0.06,2.1-0.06,2.99-0.68
	c0.88-0.62,1.4-1.59,2.54-1.53c1.52,0.08,1.59-2.98,2.13-4.28C206.98,123.2,208.23,120.77,207.64,118.58
	C206.86,117.72,207.66,118.64,207.64,118.58z M19.43,57.9c-2.11,0-0.5-1.82,0.65-2.28c1.22-0.49,2.52-0.57,3.79-0.74
	C23.34,57.2,21.23,57.53,19.43,57.9C19.08,57.9,21.23,57.53,19.43,57.9z"/>
</svg>
