<?xml version="1.0" encoding="utf-8"?>
<!-- Generator: Adobe Illustrator 27.7.0, SVG Export Plug-In . SVG Version: 6.00 Build 0)  -->
<svg version="1.1" id="Layer_1" xmlns="http://www.w3.org/2000/svg" xmlns:xlink="http://www.w3.org/1999/xlink" x="0px" y="0px"
	 viewBox="0 0 216 216" style="enable-background:new 0 0 216 216;" xml:space="preserve">
<style type="text/css">
	.st0{fill:#FFFFFF;}
</style>
<g id="layer1">
	<g>
		<path d="M107.43,8.54c-27.4,0.5-50.69,10.19-69.87,29.07C18.67,57.02,9.06,80.33,8.72,107.52c0.42,27.2,10.07,50.47,28.95,69.81
			c19.27,18.89,42.6,28.54,69.97,28.96c27.4-0.47,50.7-10.13,69.91-29c18.91-19.4,28.55-42.69,28.92-69.88
			c-0.39-27.2-10.02-50.48-28.88-69.84c-19.25-18.91-42.56-28.58-69.94-29.04H107.43z"/>
	</g>
	<g>
		<path class="st0" d="M107.49,18.79c-24.46,0.43-45.36,9.13-62.7,26.08c-16.96,17.68-25.57,38.52-25.82,62.52
			c0.34,24.34,9.02,45.27,26.04,62.79c17.43,16.92,38.38,25.55,62.82,25.87c24.46-0.47,45.35-9.19,62.66-26.17
			c16.93-17.7,25.51-38.54,25.74-62.54c-0.46-24.43-9.08-45.27-25.86-62.5c-17.38-16.96-38.29-25.64-62.74-26.04H107.49z"/>
	</g>
	<g>
		<g>
			<path d="M50.4,101.22c-0.06-0.02-0.11-0.06-0.11-0.11c0-0.06-0.04-0.12-0.08-0.18c-0.35-0.41-0.4-0.53-0.4-0.75
				c0-0.15-0.07-0.32-0.19-0.42c-0.1-0.11-0.22-0.3-0.25-0.42c-0.02-0.14-0.09-0.23-0.13-0.23c-0.05,0-0.08-0.04-0.08-0.1
				s-0.06-0.14-0.12-0.2c-0.07-0.08-0.12-0.22-0.12-0.33c0-0.14-0.05-0.21-0.13-0.21c-0.07,0-0.12-0.06-0.12-0.12
				c0-0.07-0.03-0.13-0.08-0.13c-0.04,0-0.09-0.11-0.09-0.25c0-0.16-0.07-0.33-0.23-0.49c-0.13-0.14-0.27-0.34-0.29-0.46
				c-0.03-0.11-0.09-0.22-0.13-0.22c-0.05,0-0.08-0.1-0.08-0.21c0-0.12-0.03-0.22-0.07-0.22s-0.11-0.08-0.14-0.19
				c-0.02-0.1-0.1-0.22-0.16-0.29c-0.06-0.05-0.11-0.18-0.11-0.27s-0.04-0.16-0.08-0.16s-0.09-0.07-0.09-0.17s-0.06-0.19-0.12-0.22
				c-0.07-0.03-0.12-0.12-0.12-0.2c0-0.09-0.06-0.21-0.13-0.28c-0.07-0.07-0.12-0.15-0.12-0.18c0-0.04-0.06-0.1-0.13-0.18
				c-0.07-0.08-0.12-0.23-0.12-0.33c0-0.13-0.04-0.26-0.1-0.33c-0.26-0.29-0.31-0.38-0.31-0.49c0-0.06-0.05-0.18-0.12-0.23
				c-0.06-0.08-0.14-0.22-0.16-0.31c-0.03-0.1-0.1-0.19-0.14-0.2c-0.04,0-0.08-0.09-0.08-0.2c0-0.1-0.05-0.22-0.12-0.25
				c-0.06-0.02-0.12-0.1-0.12-0.18c0-0.06-0.04-0.12-0.08-0.12c-0.04,0-0.1-0.1-0.13-0.25c-0.03-0.14-0.09-0.25-0.14-0.25
				s-0.09-0.09-0.12-0.21c-0.03-0.12-0.08-0.21-0.12-0.21c-0.04-0.01-0.08-0.1-0.08-0.21c0-0.1-0.06-0.24-0.12-0.3
				c-0.06-0.05-0.12-0.15-0.12-0.21c0-0.07-0.04-0.11-0.08-0.11s-0.1-0.11-0.12-0.22c-0.04-0.13-0.12-0.27-0.17-0.34
				c-0.06-0.06-0.12-0.2-0.12-0.29c0-0.08-0.04-0.15-0.09-0.15c-0.04,0-0.1-0.1-0.13-0.22c-0.03-0.11-0.08-0.21-0.12-0.21
				c-0.04-0.01-0.08-0.08-0.08-0.17c0.01-0.1-0.05-0.22-0.12-0.29c-0.06-0.06-0.12-0.14-0.12-0.17c0-0.03-0.06-0.11-0.12-0.18
				c-0.07-0.08-0.12-0.23-0.12-0.35c-0.01-0.14-0.08-0.3-0.24-0.43c-0.14-0.13-0.25-0.29-0.25-0.4c0-0.1-0.02-0.18-0.07-0.18
				c-0.04,0-0.1-0.11-0.12-0.22c-0.04-0.11-0.09-0.21-0.14-0.21s-0.08-0.06-0.08-0.13c0-0.08-0.09-0.23-0.21-0.34
				c-0.12-0.12-0.2-0.3-0.2-0.45c0-0.14-0.02-0.25-0.07-0.27c-0.03,0-0.14-0.18-0.23-0.39c-0.1-0.22-0.25-0.5-0.35-0.6
				c-0.1-0.12-0.16-0.29-0.17-0.38c0-0.1-0.07-0.24-0.16-0.33c-0.1-0.07-0.17-0.22-0.17-0.31c0-0.09-0.03-0.17-0.08-0.17
				c-0.04,0-0.12-0.13-0.17-0.29c-0.06-0.16-0.13-0.29-0.17-0.29s-0.09-0.1-0.12-0.25c-0.04-0.14-0.09-0.25-0.12-0.25
				c-0.04,0-0.11-0.15-0.16-0.33c-0.05-0.18-0.12-0.34-0.17-0.34c-0.05,0-0.08-0.04-0.08-0.1c0-0.1-0.07-0.22-0.49-0.71
				c-0.09-0.11-0.17-0.29-0.16-0.4c0-0.11-0.03-0.22-0.08-0.22c-0.03,0-0.09-0.1-0.13-0.25c-0.03-0.13-0.1-0.25-0.13-0.25
				c-0.04,0-0.12-0.16-0.18-0.34c-0.05-0.2-0.14-0.4-0.2-0.43c-0.06-0.02-0.1-0.14-0.1-0.22c0-0.09-0.03-0.17-0.08-0.17
				c-0.04,0-0.08-0.07-0.08-0.14c0-0.09-0.09-0.27-0.21-0.41c-0.12-0.14-0.21-0.34-0.2-0.47c0-0.16-0.05-0.25-0.17-0.29
				c-0.09-0.03-0.16-0.11-0.16-0.18c0-0.06-0.03-0.12-0.08-0.12s-0.11-0.11-0.13-0.26c-0.03-0.14-0.11-0.32-0.18-0.39
				c-0.07-0.06-0.14-0.22-0.16-0.35c-0.03-0.13-0.08-0.25-0.15-0.28c-0.07-0.02-0.12-0.14-0.12-0.25c0-0.12-0.03-0.22-0.08-0.22
				c-0.04,0-0.08-0.03-0.08-0.09c0-0.05-0.1-0.2-0.22-0.34c-0.11-0.13-0.2-0.32-0.2-0.4c0-0.09-0.06-0.18-0.13-0.2
				c-0.15-0.06-0.45-0.67-0.45-0.91c0-0.09-0.04-0.17-0.08-0.17s-0.1-0.11-0.13-0.26c-0.03-0.14-0.12-0.33-0.21-0.43
				s-0.16-0.24-0.16-0.32c0-0.09-0.03-0.15-0.08-0.15c-0.04,0-0.11-0.1-0.16-0.25c-0.05-0.13-0.12-0.25-0.16-0.25
				c-0.06,0-0.11-0.14-0.14-0.31c-0.04-0.17-0.14-0.38-0.24-0.48c-0.1-0.1-0.23-0.33-0.29-0.49c-0.06-0.18-0.13-0.32-0.16-0.32
				c-0.03,0-0.08-0.12-0.1-0.28c-0.04-0.18-0.11-0.3-0.22-0.33c-0.13-0.04-0.17-0.12-0.16-0.38c0-0.36,0.14-0.52,0.39-0.47
				c0.67,0.14,1.12,0.26,1.12,0.31c0,0.03,0.2,0.09,0.44,0.11c0.24,0.02,0.61,0.12,0.8,0.22c0.2,0.1,0.64,0.22,0.96,0.29
				c0.33,0.06,0.63,0.14,0.67,0.18c0.06,0.04,0.33,0.12,0.62,0.2c0.29,0.07,0.74,0.19,1,0.29c0.24,0.1,0.57,0.18,0.72,0.18
				c0.14,0,0.29,0.05,0.31,0.1c0.02,0.05,0.16,0.08,0.28,0.09c0.13,0,0.26,0.03,0.31,0.08c0.08,0.08,1.35,0.48,1.78,0.56
				c0.15,0.03,0.53,0.14,0.84,0.24c0.59,0.18,0.98,0.17,0.98-0.06c0-0.06,0.05-0.13,0.12-0.17c0.07-0.02,0.14-0.12,0.17-0.25
				c0.03-0.1,0.09-0.2,0.13-0.2c0.05,0,0.09-0.07,0.09-0.16c0-0.08,0.06-0.18,0.13-0.2c0.07-0.03,0.12-0.1,0.13-0.17
				c0-0.07,0.04-0.14,0.09-0.14c0.04,0,0.08-0.1,0.12-0.22c0.03-0.11,0.09-0.21,0.12-0.21c0.04,0,0.09-0.09,0.12-0.22
				c0.03-0.11,0.1-0.2,0.14-0.2c0.05,0,0.09-0.06,0.09-0.13c0-0.07,0.06-0.14,0.13-0.17c0.06-0.03,0.12-0.1,0.12-0.17
				c0-0.06,0.04-0.11,0.09-0.11c0.04,0.01,0.1-0.09,0.14-0.19c0.03-0.12,0.1-0.22,0.17-0.25c0.07-0.02,0.12-0.1,0.12-0.17
				s0.05-0.14,0.09-0.14c0.05,0,0.08-0.06,0.08-0.12c0-0.07,0.06-0.15,0.12-0.17c0.08-0.04,0.13-0.17,0.14-0.3
				c0-0.16,0.08-0.33,0.25-0.48c0.14-0.13,0.25-0.29,0.25-0.34c0-0.05,0.09-0.17,0.2-0.27c0.11-0.1,0.22-0.26,0.25-0.37
				c0.03-0.1,0.1-0.18,0.14-0.18s0.08-0.06,0.08-0.12c0-0.07,0.12-0.23,0.25-0.35c0.14-0.14,0.25-0.29,0.25-0.33
				c0-0.05,0.06-0.1,0.14-0.13c0.06-0.02,0.12-0.1,0.12-0.17c0-0.06,0.06-0.14,0.13-0.17c0.06-0.02,0.12-0.11,0.12-0.18
				c0-0.07,0.09-0.22,0.2-0.32c0.11-0.1,0.22-0.24,0.25-0.33c0.03-0.08,0.1-0.14,0.15-0.14c0.04,0,0.08-0.05,0.08-0.11
				c0-0.07,0.06-0.12,0.12-0.16c0.07-0.02,0.13-0.1,0.13-0.16c0-0.06,0.1-0.17,0.21-0.22c0.11-0.06,0.22-0.15,0.22-0.21
				c0-0.1,0.17-0.33,0.53-0.73C50.89,60.4,51,60.23,51,60.16c0-0.06,0.04-0.11,0.08-0.11c0.06,0,0.11-0.06,0.14-0.14
				c0.06-0.17,0.53-0.61,0.64-0.61c0.03,0,0.06-0.06,0.06-0.14c0.02-0.08,0.12-0.24,0.25-0.34c0.15-0.1,0.25-0.23,0.25-0.27
				s0.1-0.15,0.21-0.25c0.12-0.11,0.21-0.25,0.21-0.31c0-0.12,0.56-0.65,0.68-0.65c0.04,0,0.08-0.05,0.08-0.09
				c0-0.13,0.11-0.25,0.84-0.94c0.34-0.35,0.65-0.63,0.68-0.63c0.04,0,0.08-0.06,0.08-0.12c0-0.06,0.05-0.13,0.11-0.13
				c0.06,0,0.16-0.08,0.23-0.18c0.07-0.09,0.25-0.29,0.4-0.44c0.14-0.15,0.27-0.29,0.27-0.31c0-0.06,0.32-0.44,0.5-0.61
				c0.61-0.54,0.97-0.85,1.03-0.85c0.04,0,0.07-0.06,0.07-0.13c0-0.07,0.05-0.13,0.09-0.13c0.05,0,0.27-0.16,0.48-0.35
				c1.08-1,1.54-1.43,1.78-1.62c0.54-0.4,0.79-0.62,1.07-0.88c0.16-0.15,0.35-0.26,0.42-0.26c0.06,0,0.22-0.09,0.32-0.21
				c0.11-0.11,0.22-0.21,0.25-0.21c0.03,0,0.14-0.09,0.24-0.2c0.1-0.1,0.27-0.22,0.35-0.22c0.08-0.02,0.17-0.12,0.18-0.22
				c0.02-0.1,0.11-0.2,0.22-0.22c0.1-0.04,0.31-0.16,0.45-0.31c0.16-0.14,0.34-0.24,0.41-0.24c0.07,0,0.12-0.06,0.12-0.11
				c0-0.07,0.12-0.17,0.25-0.23c0.14-0.06,0.25-0.16,0.25-0.22c0-0.06,0.07-0.14,0.16-0.16c0.2-0.08,1.06-0.66,1.19-0.82
				c0.06-0.06,0.14-0.12,0.18-0.12c0.05,0,0.22-0.09,0.39-0.23c0.15-0.14,0.33-0.25,0.39-0.25s0.17-0.07,0.26-0.16
				c0.08-0.1,0.19-0.17,0.25-0.17c0.06,0.01,0.17-0.07,0.27-0.17c0.14-0.15,0.86-0.57,1.98-1.15c0.24-0.12,0.45-0.25,0.48-0.29
				c0.02-0.04,0.2-0.12,0.38-0.18c0.18-0.06,0.55-0.22,0.8-0.37c0.25-0.15,0.6-0.33,0.78-0.41c0.17-0.06,0.31-0.16,0.31-0.19
				c0-0.04,0.32-0.23,0.74-0.42c0.4-0.21,0.81-0.45,0.92-0.51c0.11-0.09,0.26-0.15,0.34-0.15c0.08,0.01,0.27-0.08,0.42-0.19
				c0.15-0.1,0.41-0.22,0.57-0.25c0.17-0.02,0.47-0.14,0.68-0.24c1.1-0.53,1.49-0.69,1.63-0.69c0.1,0,0.24-0.07,0.33-0.16
				c0.1-0.09,0.36-0.19,0.59-0.24c0.23-0.05,0.45-0.13,0.48-0.18c0.03-0.04,0.29-0.13,0.57-0.2c0.29-0.06,0.62-0.19,0.74-0.27
				c0.11-0.1,0.38-0.18,0.61-0.2c0.23-0.04,0.45-0.1,0.5-0.17c0.05-0.06,0.3-0.15,0.56-0.21c0.26-0.05,0.49-0.13,0.53-0.16
				c0.08-0.09,0.54-0.22,0.96-0.28c0.23-0.02,0.55-0.12,0.71-0.18c0.16-0.1,0.5-0.18,0.75-0.21c0.25-0.03,0.57-0.1,0.71-0.16
				c0.14-0.06,0.53-0.15,0.85-0.19c0.32-0.04,0.71-0.14,0.87-0.22c0.14-0.07,0.56-0.16,0.9-0.19c0.41-0.04,0.66-0.1,0.73-0.19
				c0.06-0.08,0.39-0.18,0.88-0.25c0.44-0.07,0.99-0.18,1.21-0.26c0.23-0.07,0.79-0.17,1.25-0.21c0.46-0.01,1.03-0.09,1.25-0.15
				c0.23-0.05,0.86-0.14,1.37-0.19c1.17-0.09,1.52-0.14,2.38-0.27c1.73-0.29,8.04-0.41,11.38-0.22c4.44,0.25,4.89,0.28,5.29,0.41
				c0.24,0.07,0.99,0.18,1.79,0.22c0.76,0.06,1.57,0.15,1.8,0.2c1.12,0.24,1.69,0.34,2.03,0.35c0.21,0.01,0.6,0.07,0.88,0.14
				c0.27,0.07,0.86,0.22,1.29,0.3c0.99,0.19,1.25,0.25,1.25,0.33c0,0.05,0.28,0.14,0.61,0.19c0.33,0.06,0.72,0.15,0.85,0.22
				c0.14,0.06,0.39,0.14,0.58,0.17c0.41,0.07,0.79,0.24,0.79,0.33c0,0.16-0.57,0.61-0.89,0.71c-0.18,0.06-0.42,0.18-0.54,0.23
				c-0.11,0.08-0.36,0.22-0.54,0.31c-0.19,0.08-0.36,0.17-0.38,0.21c-0.02,0.02-0.14,0.09-0.23,0.11c-0.11,0.02-0.27,0.13-0.35,0.2
				c-0.08,0.1-0.23,0.16-0.31,0.16c-0.08,0-0.28,0.1-0.44,0.2c-0.16,0.09-0.45,0.23-0.62,0.29c-0.19,0.06-0.41,0.18-0.51,0.25
				c-0.09,0.09-0.2,0.15-0.23,0.15c-0.04,0-0.21,0.1-0.38,0.21c-0.17,0.11-0.43,0.22-0.55,0.26c-0.14,0.02-0.26,0.09-0.28,0.15
				c-0.02,0.06-0.13,0.13-0.26,0.17c-0.13,0.02-0.37,0.13-0.53,0.25c-0.18,0.11-0.34,0.19-0.37,0.19c-0.03,0-0.21,0.1-0.4,0.24
				c-0.33,0.22-1.25,0.66-1.35,0.66c-0.03,0-0.14,0.1-0.27,0.21c-0.13,0.13-0.36,0.24-0.5,0.28c-0.16,0.04-0.38,0.16-0.5,0.25
				c-0.13,0.1-0.27,0.17-0.31,0.17c-0.03,0-0.23,0.06-0.45,0.15c-0.2,0.1-0.46,0.21-0.57,0.25c-0.12,0.04-0.21,0.11-0.21,0.16
				c0,0.04-0.17,0.11-0.38,0.17c-0.21,0.07-0.5,0.22-0.63,0.33c-0.15,0.14-0.31,0.24-0.38,0.23c-0.06,0-0.14,0.04-0.17,0.11
				c-0.02,0.07-0.14,0.14-0.27,0.18c-0.28,0.07-1.47,0.63-1.51,0.72c-0.02,0.02-0.08,0.06-0.14,0.06c-0.07,0-0.12,0.04-0.12,0.08
				s-0.17,0.11-0.38,0.16c-0.2,0.05-0.4,0.14-0.44,0.2c-0.03,0.06-0.16,0.14-0.27,0.2c-0.12,0.06-0.39,0.21-0.63,0.34
				c-0.47,0.29-0.92,0.49-1.05,0.49c-0.05,0-0.17,0.08-0.26,0.16c-0.1,0.09-0.33,0.2-0.55,0.25c-0.21,0.06-0.37,0.15-0.37,0.22
				c0,0.06-0.06,0.11-0.12,0.11c-0.18,0-0.19,0.9-0.02,0.97c0.07,0.02,0.14,0.13,0.16,0.25c0.04,0.1,0.1,0.2,0.14,0.2
				c0.05,0,0.08,0.06,0.08,0.13c0,0.06,0.04,0.15,0.1,0.19c0.06,0.03,0.14,0.2,0.16,0.34c0.03,0.16,0.1,0.33,0.16,0.4
				c0.27,0.29,0.31,0.38,0.31,0.54c0,0.09,0.08,0.23,0.17,0.31c0.09,0.08,0.16,0.2,0.16,0.29c0,0.08,0.03,0.15,0.07,0.15
				c0.05,0.01,0.1,0.11,0.13,0.25c0.03,0.14,0.11,0.27,0.18,0.29c0.07,0.02,0.12,0.14,0.12,0.25c0,0.12,0.03,0.22,0.08,0.22
				c0.04,0,0.12,0.1,0.16,0.25c0.05,0.14,0.12,0.25,0.17,0.25c0.04,0,0.06,0.09,0.06,0.2c0,0.12,0.05,0.23,0.12,0.25
				c0.07,0.04,0.13,0.19,0.16,0.35c0.03,0.16,0.09,0.29,0.13,0.29c0.05,0,0.08,0.05,0.08,0.11c0,0.06,0.05,0.19,0.11,0.24
				c0.06,0.06,0.13,0.24,0.16,0.39c0.05,0.26,0.14,0.41,0.41,0.67c0.08,0.07,0.14,0.19,0.14,0.27c0,0.07,0.06,0.16,0.12,0.19
				s0.13,0.14,0.13,0.22c0,0.09,0.02,0.17,0.07,0.17c0.04,0,0.1,0.11,0.13,0.25c0.02,0.13,0.1,0.26,0.17,0.29
				c0.07,0.03,0.12,0.13,0.12,0.22c0,0.1,0.03,0.17,0.07,0.17c0.04,0.01,0.1,0.12,0.11,0.25c0.02,0.13,0.11,0.29,0.18,0.37
				c0.07,0.07,0.13,0.21,0.13,0.3c0,0.1,0.04,0.19,0.11,0.23c0.07,0.02,0.14,0.15,0.18,0.29c0.03,0.14,0.08,0.25,0.13,0.25
				c0.04,0,0.07,0.09,0.07,0.2c0,0.14,0.05,0.22,0.13,0.22c0.07,0,0.12,0.07,0.12,0.2c0,0.12,0.06,0.25,0.12,0.33
				c0.06,0.07,0.12,0.17,0.12,0.21s0.08,0.17,0.16,0.27c0.09,0.1,0.16,0.3,0.16,0.43c0,0.15,0.09,0.33,0.24,0.49
				c0.14,0.15,0.25,0.32,0.25,0.38c0,0.06,0.04,0.13,0.08,0.13c0.04,0,0.12,0.16,0.16,0.34c0.06,0.18,0.14,0.4,0.18,0.45
				c0.26,0.29,0.31,0.38,0.31,0.48c0,0.07,0.07,0.2,0.16,0.32c0.18,0.19,0.21,0.62,0.08,0.83c-0.04,0.05-0.27,0.13-0.49,0.14
				c-0.32,0.03-0.47,0-0.65-0.12c-0.19-0.14-0.49-0.2-1.6-0.29c-0.76-0.07-1.93-0.16-2.62-0.24c-1.72-0.15-5.27-0.16-7-0.02
				c-0.78,0.07-1.72,0.14-2.09,0.18c-0.36,0.02-0.88,0.11-1.13,0.18c-0.25,0.08-0.74,0.17-1.08,0.2c-0.34,0.03-0.75,0.1-0.9,0.15
				c-0.15,0.06-0.6,0.17-1,0.24c-0.4,0.08-0.85,0.18-0.99,0.24c-0.14,0.06-0.49,0.15-0.77,0.21c-0.29,0.02-0.59,0.11-0.68,0.16
				c-0.22,0.12-1.52,0.54-2.03,0.67c-0.21,0.06-0.45,0.17-0.52,0.24c-0.08,0.06-0.29,0.18-0.45,0.23c-0.17,0.04-0.42,0.16-0.53,0.24
				c-0.12,0.08-0.39,0.2-0.59,0.24c-0.2,0.04-0.41,0.14-0.46,0.21c-0.05,0.06-0.22,0.14-0.38,0.16c-0.16,0.03-0.35,0.1-0.45,0.16
				c-0.1,0.04-0.32,0.15-0.5,0.2c-0.19,0.06-0.4,0.16-0.47,0.22c-0.06,0.07-0.26,0.14-0.41,0.19c-0.17,0.06-0.38,0.19-0.49,0.29
				c-0.1,0.11-0.27,0.22-0.37,0.25c-0.09,0.02-0.25,0.1-0.33,0.17c-0.15,0.14-0.53,0.36-1,0.57c-0.18,0.08-0.32,0.19-0.33,0.25
				c0,0.05-0.05,0.1-0.1,0.1c-0.12,0-1.02,0.57-1.29,0.82c-0.1,0.07-0.32,0.24-0.5,0.35c-0.19,0.12-0.44,0.3-0.57,0.42
				c-0.12,0.12-0.27,0.22-0.31,0.22c-0.04,0-0.35,0.27-0.68,0.6c-0.34,0.33-0.68,0.65-0.76,0.68c-0.08,0.05-0.29,0.22-0.48,0.38
				c-0.17,0.18-0.37,0.32-0.39,0.32c-0.1,0-1.29,1.22-1.29,1.32c0,0.05-0.05,0.08-0.12,0.08c-0.1,0-1.06,0.99-1.06,1.1
				c0,0.02-0.18,0.22-0.4,0.46c-0.22,0.23-0.49,0.53-0.62,0.67c-0.12,0.14-0.31,0.37-0.44,0.5c-0.12,0.14-0.24,0.37-0.28,0.49
				c-0.03,0.14-0.12,0.29-0.22,0.35c-0.2,0.14-0.31,0.62-0.16,0.66c0.07,0.03,0.43,0.14,0.78,0.26c0.38,0.13,0.77,0.23,0.88,0.23
				c0.12,0,0.28,0.06,0.37,0.11c0.09,0.07,0.39,0.18,0.65,0.23c0.27,0.07,0.63,0.18,0.78,0.25c0.17,0.09,0.49,0.19,0.72,0.24
				c0.23,0.02,0.53,0.1,0.67,0.18c0.13,0.06,0.47,0.18,0.75,0.25c0.28,0.07,0.57,0.18,0.67,0.25c0.1,0.06,0.36,0.13,0.58,0.17
				c0.22,0.02,0.49,0.1,0.59,0.18c0.09,0.07,0.47,0.18,0.83,0.29c0.71,0.18,1.56,0.6,1.56,0.76c0,0.06-0.16,0.18-0.33,0.27
				c-0.18,0.1-0.36,0.22-0.41,0.28c-0.04,0.06-0.2,0.14-0.37,0.2c-0.17,0.05-0.38,0.16-0.48,0.25c-0.1,0.08-0.32,0.16-0.49,0.2
				c-0.23,0.03-0.36,0.1-0.42,0.23c-0.05,0.1-0.35,0.33-0.72,0.51c-0.36,0.17-0.68,0.34-0.73,0.4c-0.04,0.05-0.23,0.14-0.39,0.2
				c-0.18,0.05-0.33,0.12-0.35,0.16c-0.02,0.03-0.52,0.3-1.12,0.57c-1.19,0.58-2.03,1.06-2.03,1.15c0,0.04-0.04,0.07-0.09,0.07
				c-0.16,0-1.82,0.84-2.23,1.12c-0.12,0.08-0.33,0.19-0.43,0.22c-0.1,0.03-0.32,0.14-0.49,0.25c-0.17,0.11-0.35,0.2-0.39,0.2
				c-0.06,0-0.23,0.1-0.39,0.22c-0.16,0.1-0.6,0.34-0.98,0.51c-0.38,0.18-0.69,0.37-0.69,0.41c0,0.05-0.15,0.14-0.33,0.22
				c-0.18,0.06-0.33,0.16-0.33,0.19c0,0.05-0.14,0.11-0.31,0.17c-0.29,0.09-0.61,0.28-1.2,0.67c-0.14,0.08-0.51,0.27-0.84,0.44
				c-0.34,0.15-0.71,0.35-0.83,0.41c-0.12,0.07-0.34,0.19-0.5,0.25c-0.53,0.22-0.96,0.47-1.13,0.61c-0.1,0.07-0.43,0.27-0.76,0.41
				c-0.31,0.16-0.6,0.29-0.61,0.33c-0.02,0.05-0.17,0.14-0.34,0.22c-0.18,0.09-0.54,0.28-0.81,0.42c-0.28,0.15-0.64,0.33-0.8,0.41
				c-0.15,0.09-0.33,0.16-0.39,0.15c-0.06,0-0.1,0.02-0.1,0.07c0,0.04-0.15,0.15-0.32,0.22c-0.18,0.09-0.42,0.22-0.55,0.29
				c-0.11,0.1-0.27,0.15-0.34,0.15c-0.06,0-0.25,0.14-0.43,0.28c-0.18,0.16-0.42,0.3-0.52,0.3c-0.1-0.01-0.2,0.02-0.22,0.06
				c-0.06,0.12-0.82,0.61-1.15,0.71c-0.18,0.06-0.4,0.18-0.49,0.26c-0.1,0.1-0.29,0.21-0.43,0.24c-0.14,0.03-0.26,0.08-0.26,0.12
				c0,0.04-0.04,0.08-0.09,0.08c-0.1,0-1.02,0.41-1.08,0.49c-0.03,0.02-0.14,0.08-0.25,0.11c-0.12,0.03-0.23,0.09-0.25,0.13
				c-0.1,0.13-0.84,0.58-0.96,0.58c-0.19-0.02-0.57,0.17-0.74,0.34c-0.08,0.06-0.2,0.13-0.27,0.13c-0.06,0-0.25,0.13-0.4,0.25
				c-0.16,0.14-0.34,0.25-0.41,0.25c-0.27-0.01-0.65,0.17-0.7,0.33c-0.04,0.08-0.1,0.16-0.17,0.16c-0.06,0-0.12,0.05-0.12,0.08
				C50.96,101.3,50.58,101.31,50.4,101.22z"/>
		</g>
		<g>
			<path d="M50.36,101.65c0.17,0.15,0.31,0.17,0.43,0.06l33.58-18.08c0.33-0.16,0.43-0.34,0.3-0.52c-0.1-0.11-0.17-0.16-0.21-0.15
				L72.6,79.38l-0.08,0.57l11.09,3.4l-32.85,17.7L33.1,67.85l10.71,2.7c0.31-0.04,0.42-0.18,0.33-0.41
				c-0.04-0.1-0.13-0.17-0.27-0.19l-11.26-2.88c-0.04-0.03-0.14-0.02-0.28,0.04c-0.14,0.12-0.17,0.25-0.09,0.39l18.11,34.14"/>
		</g>
		<g>
			<path d="M73.4,81.04c4.06-6.69,9.55-11.18,16.48-13.47c4.76-1.69,9.42-2.71,13.98-3.07c1.78-0.12,3.46-0.09,5.05,0.11
				c1.5,0.16,3.4,0.6,5.71,1.34c0.12,0.02,0.22-0.01,0.29-0.09c0.1-0.11,0.11-0.23,0.04-0.37l-8.71-16.69
				c-0.34-0.04-0.48,0.08-0.42,0.37l8.28,15.99c-3.48-1.19-7.12-1.6-10.9-1.22c-4.9,0.47-9.71,1.6-14.42,3.4
				c-3.73,1.41-6.88,3.27-9.46,5.58c-1.61,1.44-3.08,3.06-4.41,4.87c-0.47,0.61-1.12,1.56-1.97,2.85L73.35,81"/>
		</g>
		<g>
			<path d="M42.93,71.75c0.22,0.08,0.36,0.04,0.43-0.11c3.01-4.68,5.79-8.49,8.32-11.43c2.72-3.18,5.59-6.16,8.63-8.94
				c4.76-4.57,10.12-7.94,16.09-10.14c8.2-3.45,15.92-5.31,23.18-5.57c4.71-0.28,8.88-0.25,12.54,0.09
				c1.82,0.08,6.22,0.87,13.21,2.36L102.6,50.26l0.21,0.55l23.53-12.62c0.22-0.09,0.25-0.26,0.1-0.5
				c-6.71-1.51-11.27-2.37-13.7-2.56c-3.64-0.37-7.81-0.43-12.52-0.18c-7.53,0.2-15.49,2.05-23.87,5.58
				c-6.2,2.23-11.88,5.87-17.06,10.9c-7.17,6.75-12.64,13.52-16.41,20.29"/>
		</g>
		<g>
			<path d="M100.33,165.31c-0.02,0.06-0.08,0.1-0.12,0.1c-0.05,0-0.12,0.04-0.18,0.07c-0.43,0.35-0.55,0.4-0.76,0.4
				c-0.16,0-0.31,0.08-0.43,0.18c-0.1,0.11-0.29,0.23-0.41,0.26c-0.12,0.02-0.23,0.1-0.23,0.14c0,0.05-0.04,0.08-0.09,0.08
				c-0.06,0-0.15,0.05-0.22,0.12c-0.08,0.06-0.22,0.12-0.33,0.1c-0.12,0-0.2,0.06-0.2,0.14c0,0.06-0.07,0.12-0.13,0.12
				c-0.07,0-0.12,0.03-0.12,0.08c0,0.04-0.11,0.09-0.25,0.09c-0.16,0-0.33,0.08-0.49,0.23c-0.14,0.13-0.34,0.26-0.46,0.29
				c-0.11,0.03-0.22,0.09-0.22,0.14c0,0.06-0.1,0.08-0.22,0.07c-0.12,0-0.21,0.02-0.21,0.07c0,0.03-0.08,0.1-0.18,0.14
				c-0.1,0.03-0.24,0.11-0.3,0.17c-0.06,0.06-0.19,0.12-0.27,0.12s-0.16,0.03-0.16,0.09c0,0.03-0.07,0.08-0.17,0.08
				s-0.19,0.06-0.22,0.11c-0.03,0.07-0.12,0.13-0.21,0.13c-0.08,0.02-0.2,0.07-0.28,0.13c-0.07,0.06-0.15,0.13-0.18,0.13
				c-0.03,0-0.1,0.06-0.17,0.12c-0.07,0.07-0.23,0.13-0.33,0.12c-0.12,0-0.27,0.04-0.32,0.1c-0.3,0.26-0.38,0.32-0.5,0.32
				c-0.06,0-0.18,0.05-0.23,0.12c-0.07,0.05-0.2,0.13-0.31,0.14c-0.1,0.03-0.18,0.11-0.18,0.15s-0.09,0.08-0.2,0.08
				c-0.11,0-0.22,0.06-0.25,0.12c-0.02,0.07-0.1,0.13-0.18,0.13c-0.06,0-0.12,0.02-0.12,0.07c0,0.05-0.1,0.1-0.25,0.13
				c-0.14,0.04-0.26,0.09-0.26,0.14c0,0.04-0.09,0.1-0.21,0.13c-0.12,0.03-0.21,0.09-0.21,0.13c0,0.04-0.09,0.08-0.2,0.07
				c-0.11-0.01-0.24,0.04-0.3,0.11c-0.06,0.06-0.16,0.13-0.22,0.13c-0.07,0-0.11,0.03-0.11,0.08c0,0.03-0.1,0.1-0.22,0.12
				c-0.12,0.03-0.27,0.11-0.34,0.18c-0.06,0.06-0.2,0.12-0.29,0.12c-0.08,0-0.16,0.03-0.16,0.09c0,0.03-0.1,0.1-0.22,0.13
				c-0.12,0.03-0.21,0.07-0.21,0.12c0,0.03-0.08,0.06-0.16,0.06s-0.21,0.06-0.29,0.13c-0.07,0.06-0.14,0.12-0.17,0.12
				c-0.03,0-0.12,0.06-0.18,0.13c-0.08,0.06-0.23,0.11-0.35,0.11c-0.14,0.01-0.3,0.09-0.43,0.24c-0.12,0.14-0.29,0.25-0.39,0.24
				c-0.11,0-0.19,0.04-0.19,0.08c0,0.03-0.1,0.1-0.21,0.13c-0.12,0.03-0.22,0.09-0.22,0.13c0,0.06-0.06,0.08-0.12,0.08
				c-0.08-0.01-0.22,0.09-0.34,0.21c-0.13,0.12-0.3,0.21-0.45,0.21c-0.14,0-0.25,0.02-0.25,0.07c0,0.03-0.19,0.14-0.4,0.22
				c-0.23,0.1-0.5,0.25-0.6,0.36c-0.11,0.1-0.28,0.17-0.38,0.17c-0.1-0.01-0.23,0.07-0.32,0.16c-0.08,0.09-0.22,0.17-0.31,0.17
				c-0.1,0-0.17,0.03-0.17,0.08c0,0.04-0.14,0.11-0.29,0.17c-0.16,0.05-0.29,0.12-0.29,0.16s-0.12,0.1-0.26,0.13
				c-0.13,0.04-0.25,0.1-0.25,0.13c0,0.04-0.16,0.11-0.33,0.17c-0.18,0.03-0.33,0.11-0.33,0.16c0,0.04-0.05,0.08-0.11,0.08
				c-0.1,0-0.22,0.08-0.71,0.49c-0.11,0.09-0.29,0.16-0.4,0.16s-0.21,0.02-0.21,0.07c0,0.04-0.1,0.1-0.25,0.13
				c-0.13,0.04-0.25,0.1-0.25,0.14c0,0.03-0.16,0.12-0.35,0.17c-0.2,0.04-0.39,0.14-0.43,0.2c-0.04,0.06-0.15,0.11-0.22,0.11
				c-0.1,0-0.17,0.03-0.17,0.09c0,0.04-0.07,0.08-0.15,0.08s-0.25,0.09-0.39,0.2c-0.14,0.11-0.36,0.22-0.48,0.22
				c-0.16,0-0.26,0.04-0.29,0.17c-0.03,0.1-0.11,0.15-0.17,0.15c-0.07-0.01-0.12,0.02-0.12,0.06c0,0.05-0.12,0.12-0.27,0.14
				c-0.14,0.02-0.31,0.11-0.38,0.18c-0.06,0.06-0.23,0.14-0.36,0.16c-0.13,0.02-0.25,0.09-0.28,0.16c-0.02,0.06-0.14,0.11-0.26,0.11
				c-0.12,0-0.21,0.03-0.21,0.08c0,0.05-0.04,0.09-0.1,0.08c-0.05,0-0.2,0.09-0.34,0.21c-0.14,0.1-0.33,0.19-0.41,0.19
				s-0.18,0.06-0.2,0.13c-0.06,0.14-0.66,0.45-0.9,0.44c-0.09,0-0.17,0.04-0.17,0.07c0,0.05-0.11,0.1-0.26,0.12
				c-0.14,0.04-0.33,0.14-0.43,0.22c-0.1,0.09-0.23,0.15-0.32,0.15s-0.16,0.03-0.16,0.08c0,0.03-0.1,0.11-0.25,0.16
				c-0.14,0.04-0.25,0.12-0.25,0.17c0,0.05-0.15,0.11-0.31,0.14s-0.38,0.14-0.48,0.23c-0.1,0.1-0.32,0.25-0.49,0.31
				c-0.17,0.06-0.31,0.13-0.31,0.17c0,0.02-0.12,0.08-0.28,0.1c-0.19,0.03-0.3,0.11-0.33,0.22c-0.03,0.14-0.12,0.17-0.38,0.16
				c-0.36-0.01-0.52-0.15-0.47-0.4c0.14-0.67,0.26-1.12,0.31-1.12c0.03,0.01,0.09-0.18,0.12-0.43c0.02-0.24,0.12-0.61,0.21-0.81
				c0.1-0.19,0.22-0.62,0.28-0.95c0.06-0.33,0.15-0.63,0.19-0.67c0.04-0.06,0.12-0.34,0.2-0.64c0.06-0.29,0.2-0.74,0.29-0.99
				c0.1-0.25,0.17-0.57,0.19-0.72c0-0.14,0.04-0.29,0.08-0.32c0.05-0.03,0.08-0.16,0.09-0.29c0-0.12,0.03-0.26,0.07-0.3
				c0.08-0.08,0.48-1.35,0.57-1.79c0.02-0.15,0.13-0.54,0.23-0.84c0.18-0.59,0.18-0.98-0.05-0.98c-0.07-0.02-0.14-0.06-0.17-0.14
				c-0.03-0.06-0.13-0.14-0.25-0.17c-0.11-0.02-0.2-0.08-0.2-0.12c0-0.06-0.08-0.09-0.16-0.09s-0.18-0.06-0.21-0.13
				c-0.02-0.06-0.1-0.12-0.17-0.12c-0.06-0.01-0.13-0.05-0.13-0.09c0-0.05-0.09-0.1-0.21-0.14c-0.12-0.02-0.21-0.09-0.21-0.12
				c0-0.04-0.08-0.1-0.2-0.12c-0.11-0.03-0.2-0.1-0.2-0.14c0-0.06-0.06-0.1-0.12-0.1c-0.08,0-0.16-0.06-0.18-0.13
				c-0.03-0.07-0.1-0.12-0.17-0.12c-0.06,0-0.11-0.04-0.11-0.1c0-0.03-0.1-0.11-0.21-0.14c-0.12-0.02-0.23-0.1-0.25-0.17
				c-0.03-0.06-0.1-0.12-0.17-0.12s-0.13-0.04-0.13-0.09c0-0.05-0.06-0.08-0.12-0.08c-0.07-0.01-0.15-0.06-0.17-0.14
				c-0.04-0.08-0.16-0.13-0.29-0.13c-0.16-0.01-0.33-0.1-0.48-0.26c-0.13-0.14-0.29-0.25-0.34-0.25c-0.06,0-0.18-0.09-0.27-0.2
				c-0.1-0.1-0.27-0.22-0.37-0.25c-0.11-0.03-0.19-0.1-0.19-0.14c0-0.04-0.06-0.08-0.12-0.08c-0.06,0-0.23-0.12-0.35-0.26
				c-0.14-0.14-0.29-0.25-0.33-0.25c-0.04,0-0.1-0.06-0.13-0.13c-0.02-0.07-0.1-0.13-0.17-0.13c-0.06,0-0.12-0.04-0.16-0.11
				c-0.02-0.07-0.11-0.13-0.18-0.14c-0.08,0-0.22-0.09-0.32-0.19c-0.09-0.11-0.23-0.22-0.31-0.25c-0.08-0.02-0.14-0.08-0.14-0.14
				c0-0.04-0.05-0.09-0.12-0.09c-0.06-0.01-0.13-0.06-0.16-0.13c-0.02-0.06-0.1-0.13-0.16-0.14c-0.06,0-0.17-0.1-0.23-0.21
				c-0.05-0.12-0.14-0.22-0.2-0.22c-0.1,0-0.32-0.17-0.72-0.52c-0.13-0.13-0.3-0.24-0.37-0.24c-0.06,0-0.11-0.04-0.11-0.08
				c0-0.05-0.06-0.1-0.14-0.14c-0.17-0.06-0.6-0.53-0.6-0.65c0-0.03-0.07-0.06-0.14-0.06c-0.08-0.01-0.24-0.11-0.35-0.25
				c-0.11-0.14-0.23-0.25-0.27-0.25c-0.04,0-0.15-0.1-0.26-0.21c-0.1-0.12-0.23-0.22-0.29-0.22c-0.11-0.01-0.66-0.56-0.66-0.68
				c0-0.04-0.04-0.08-0.09-0.08c-0.12,0-0.24-0.11-0.95-0.83c-0.34-0.33-0.61-0.66-0.61-0.7c0-0.04-0.06-0.08-0.12-0.08
				c-0.06,0-0.12-0.04-0.12-0.1c0-0.06-0.08-0.16-0.18-0.23c-0.1-0.06-0.3-0.25-0.44-0.4c-0.15-0.13-0.29-0.26-0.31-0.26
				c-0.05,0-0.43-0.31-0.61-0.5c-0.55-0.61-0.86-0.97-0.86-1.04c0-0.03-0.06-0.06-0.13-0.06c-0.07-0.01-0.12-0.05-0.12-0.1
				c0-0.04-0.17-0.26-0.37-0.49c-1-1.07-1.42-1.55-1.61-1.78c-0.41-0.53-0.63-0.79-0.88-1.06c-0.15-0.18-0.27-0.37-0.27-0.43
				c0-0.07-0.09-0.22-0.21-0.33c-0.12-0.12-0.21-0.22-0.21-0.25c0-0.04-0.08-0.14-0.2-0.24c-0.1-0.1-0.21-0.26-0.22-0.34
				c-0.02-0.08-0.1-0.17-0.21-0.2c-0.1-0.02-0.2-0.1-0.22-0.21c-0.03-0.1-0.15-0.29-0.28-0.44c-0.14-0.15-0.25-0.33-0.25-0.41
				c0-0.07-0.04-0.12-0.11-0.12c-0.06,0-0.17-0.12-0.23-0.26c-0.06-0.14-0.16-0.25-0.21-0.25c-0.06,0-0.14-0.06-0.16-0.14
				c-0.08-0.22-0.67-1.08-0.82-1.21c-0.07-0.06-0.13-0.14-0.13-0.18c0-0.04-0.1-0.22-0.24-0.37c-0.14-0.16-0.25-0.35-0.25-0.41
				c0-0.06-0.07-0.17-0.16-0.25c-0.1-0.08-0.16-0.2-0.16-0.25c0-0.06-0.08-0.17-0.18-0.26c-0.14-0.15-0.56-0.86-1.13-1.97
				c-0.12-0.25-0.25-0.46-0.29-0.49c-0.04-0.02-0.12-0.2-0.17-0.36c-0.06-0.18-0.24-0.55-0.38-0.79c-0.15-0.26-0.33-0.61-0.4-0.78
				c-0.06-0.18-0.16-0.31-0.2-0.31c-0.03,0-0.23-0.33-0.42-0.74c-0.21-0.41-0.44-0.83-0.51-0.93c-0.08-0.12-0.14-0.28-0.14-0.34
				c0-0.09-0.1-0.27-0.2-0.42c-0.12-0.15-0.23-0.41-0.25-0.57c-0.03-0.17-0.15-0.48-0.24-0.68c-0.54-1.12-0.7-1.5-0.7-1.64
				c0-0.08-0.06-0.23-0.15-0.32c-0.09-0.1-0.2-0.37-0.25-0.61c-0.06-0.22-0.13-0.44-0.18-0.47c-0.04-0.03-0.14-0.29-0.2-0.57
				c-0.06-0.3-0.19-0.64-0.27-0.75c-0.08-0.1-0.18-0.39-0.2-0.62c-0.03-0.22-0.1-0.45-0.16-0.49c-0.07-0.06-0.16-0.3-0.2-0.57
				c-0.06-0.25-0.14-0.49-0.16-0.52c-0.11-0.08-0.24-0.54-0.29-0.96c-0.03-0.24-0.12-0.55-0.19-0.72c-0.08-0.16-0.16-0.49-0.2-0.74
				c-0.02-0.25-0.1-0.57-0.16-0.71c-0.06-0.14-0.14-0.53-0.18-0.84c-0.05-0.32-0.15-0.71-0.22-0.86c-0.07-0.15-0.16-0.57-0.2-0.91
				c-0.04-0.41-0.12-0.66-0.2-0.73c-0.08-0.06-0.17-0.38-0.24-0.88c-0.07-0.44-0.2-0.99-0.27-1.22c-0.07-0.22-0.16-0.79-0.18-1.23
				c-0.03-0.46-0.1-1.04-0.17-1.26c-0.06-0.25-0.14-0.88-0.2-1.4c-0.08-1.17-0.13-1.52-0.27-2.37c-0.27-1.73-0.4-8.03-0.2-11.37
				c0.23-4.44,0.27-4.91,0.4-5.3c0.08-0.23,0.18-0.98,0.23-1.79c0.06-0.76,0.13-1.57,0.19-1.78c0.23-1.12,0.34-1.7,0.35-2.03
				c0-0.22,0.08-0.61,0.14-0.88c0.08-0.27,0.22-0.84,0.3-1.27c0.2-1,0.27-1.25,0.34-1.25c0.04,0,0.12-0.28,0.17-0.61
				c0.07-0.33,0.16-0.71,0.22-0.85c0.06-0.14,0.14-0.4,0.18-0.58c0.07-0.41,0.23-0.79,0.33-0.79c0.16,0,0.61,0.59,0.7,0.9
				c0.06,0.18,0.18,0.41,0.25,0.53c0.07,0.11,0.21,0.36,0.3,0.54c0.08,0.18,0.16,0.35,0.2,0.38c0.03,0.02,0.09,0.14,0.12,0.25
				c0.04,0.1,0.13,0.26,0.21,0.35c0.08,0.08,0.16,0.22,0.16,0.3s0.09,0.29,0.19,0.45c0.1,0.16,0.24,0.45,0.3,0.62
				c0.06,0.18,0.17,0.4,0.25,0.49c0.09,0.1,0.16,0.2,0.15,0.24c0,0.04,0.1,0.21,0.2,0.38c0.12,0.17,0.23,0.41,0.26,0.54
				c0.02,0.14,0.1,0.26,0.16,0.29c0.06,0.02,0.13,0.14,0.17,0.25c0.03,0.14,0.14,0.37,0.25,0.54c0.11,0.18,0.2,0.34,0.2,0.37
				c0,0.02,0.11,0.2,0.23,0.4c0.21,0.33,0.67,1.25,0.67,1.35c0,0.02,0.1,0.14,0.21,0.27c0.12,0.13,0.24,0.35,0.27,0.5
				c0.04,0.16,0.16,0.39,0.25,0.5c0.1,0.13,0.18,0.26,0.18,0.3c0,0.04,0.07,0.25,0.16,0.45c0.1,0.2,0.21,0.47,0.25,0.59
				c0.04,0.12,0.11,0.19,0.15,0.19c0.04,0,0.12,0.17,0.18,0.38c0.06,0.2,0.21,0.5,0.33,0.64c0.13,0.14,0.23,0.3,0.23,0.37
				c0,0.07,0.04,0.15,0.11,0.17c0.07,0.02,0.14,0.16,0.17,0.27c0.07,0.28,0.63,1.47,0.72,1.51c0.03,0.02,0.06,0.08,0.06,0.14
				c0,0.07,0.04,0.12,0.08,0.13c0.04,0,0.12,0.17,0.16,0.38c0.04,0.19,0.14,0.41,0.19,0.44c0.06,0.03,0.16,0.16,0.2,0.28
				c0.06,0.12,0.22,0.39,0.35,0.63c0.29,0.46,0.49,0.91,0.49,1.04c0,0.06,0.07,0.18,0.15,0.27c0.08,0.1,0.2,0.33,0.25,0.55
				c0.05,0.19,0.15,0.35,0.2,0.36c0.07,0,0.12,0.06,0.12,0.13c0,0.18,0.9,0.19,0.97,0.02c0.02-0.06,0.14-0.14,0.25-0.17
				c0.11-0.03,0.2-0.09,0.2-0.14c0-0.05,0.06-0.09,0.12-0.09c0.07,0,0.16-0.03,0.2-0.08c0.04-0.07,0.2-0.14,0.34-0.16
				c0.16-0.03,0.33-0.1,0.4-0.17c0.29-0.26,0.38-0.32,0.54-0.31c0.09,0,0.24-0.06,0.31-0.17c0.08-0.09,0.21-0.17,0.29-0.17
				s0.15-0.02,0.15-0.06c0-0.05,0.11-0.11,0.24-0.13c0.14-0.02,0.27-0.1,0.3-0.17c0.02-0.07,0.14-0.12,0.25-0.12
				c0.12,0,0.21-0.04,0.21-0.1c0-0.04,0.11-0.12,0.25-0.17c0.15-0.04,0.25-0.12,0.25-0.17c0-0.03,0.09-0.06,0.21-0.06
				c0.12,0,0.24-0.06,0.26-0.12c0.03-0.07,0.18-0.14,0.33-0.16c0.16-0.03,0.29-0.1,0.29-0.14c0-0.05,0.05-0.08,0.12-0.07
				c0.06,0,0.18-0.06,0.23-0.1c0.06-0.07,0.24-0.14,0.39-0.17c0.27-0.06,0.41-0.14,0.67-0.41c0.08-0.08,0.21-0.15,0.28-0.14
				c0.07,0,0.16-0.06,0.19-0.13c0.02-0.06,0.13-0.12,0.22-0.12c0.09,0,0.17-0.03,0.17-0.08c0-0.03,0.11-0.1,0.25-0.13
				c0.13-0.02,0.26-0.11,0.28-0.18c0.02-0.07,0.12-0.12,0.21-0.12c0.1,0,0.17-0.04,0.17-0.08c0-0.04,0.11-0.09,0.25-0.11
				c0.13-0.02,0.3-0.1,0.37-0.16c0.08-0.07,0.22-0.14,0.31-0.14c0.09,0,0.19-0.05,0.22-0.11c0.02-0.06,0.16-0.15,0.29-0.18
				c0.14-0.03,0.24-0.09,0.24-0.13c0-0.05,0.1-0.07,0.21-0.07c0.13,0,0.22-0.06,0.22-0.13s0.07-0.13,0.2-0.12
				c0.11,0,0.26-0.06,0.33-0.11c0.07-0.07,0.16-0.13,0.2-0.13c0.04,0,0.16-0.07,0.27-0.16c0.11-0.09,0.31-0.17,0.43-0.17
				c0.16,0,0.33-0.09,0.49-0.25c0.14-0.14,0.31-0.25,0.37-0.25c0.07,0,0.13-0.03,0.13-0.08c0-0.04,0.16-0.11,0.35-0.16
				c0.18-0.06,0.39-0.14,0.45-0.18c0.28-0.25,0.37-0.31,0.47-0.31c0.06,0,0.21-0.06,0.32-0.16c0.2-0.18,0.64-0.2,0.84-0.06
				c0.06,0.03,0.12,0.25,0.14,0.47c0.02,0.33,0,0.48-0.13,0.66c-0.14,0.19-0.19,0.49-0.28,1.61c-0.06,0.76-0.16,1.93-0.23,2.63
				c-0.17,1.71-0.18,5.26-0.02,6.99c0.06,0.79,0.15,1.73,0.16,2.09c0.03,0.37,0.11,0.88,0.19,1.13c0.08,0.25,0.17,0.74,0.2,1.08
				c0.03,0.34,0.1,0.74,0.16,0.88c0.07,0.15,0.18,0.61,0.24,1.01c0.07,0.4,0.17,0.86,0.24,0.99c0.07,0.14,0.15,0.49,0.2,0.76
				c0.04,0.29,0.12,0.59,0.17,0.68c0.11,0.22,0.53,1.53,0.65,2.01c0.06,0.21,0.16,0.45,0.24,0.53c0.08,0.07,0.18,0.28,0.23,0.45
				c0.05,0.18,0.16,0.41,0.24,0.53c0.08,0.12,0.19,0.38,0.23,0.59c0.04,0.2,0.14,0.4,0.2,0.45c0.08,0.05,0.16,0.22,0.18,0.39
				c0.03,0.15,0.09,0.36,0.15,0.45c0.05,0.1,0.15,0.32,0.2,0.5c0.06,0.18,0.16,0.4,0.22,0.48c0.06,0.06,0.16,0.25,0.2,0.41
				c0.06,0.17,0.18,0.37,0.29,0.48c0.11,0.12,0.22,0.29,0.25,0.39c0.02,0.09,0.1,0.24,0.17,0.32c0.14,0.16,0.36,0.53,0.56,1
				c0.08,0.18,0.2,0.31,0.25,0.32c0.05,0,0.1,0.06,0.1,0.1c0,0.13,0.56,1.03,0.81,1.29c0.08,0.1,0.24,0.33,0.36,0.51
				c0.12,0.18,0.3,0.44,0.43,0.57c0.12,0.12,0.22,0.27,0.22,0.3c0,0.05,0.27,0.37,0.6,0.71c0.34,0.34,0.64,0.67,0.68,0.76
				c0.04,0.06,0.22,0.29,0.39,0.48c0.16,0.18,0.3,0.37,0.3,0.4c0,0.1,1.23,1.28,1.32,1.28c0.04,0,0.08,0.05,0.08,0.12
				c0,0.1,0.99,1.07,1.1,1.07c0.03,0,0.24,0.18,0.47,0.39c0.23,0.24,0.53,0.5,0.67,0.61c0.13,0.12,0.35,0.31,0.5,0.45
				c0.12,0.11,0.35,0.25,0.49,0.29c0.14,0.03,0.29,0.12,0.36,0.22c0.15,0.19,0.62,0.3,0.67,0.14c0.02-0.06,0.12-0.42,0.25-0.79
				c0.13-0.37,0.23-0.76,0.23-0.87c0-0.12,0.05-0.28,0.12-0.37c0.06-0.09,0.16-0.39,0.22-0.65c0.06-0.28,0.18-0.63,0.26-0.76
				c0.09-0.17,0.19-0.49,0.23-0.72c0.03-0.22,0.12-0.52,0.19-0.67c0.07-0.13,0.18-0.46,0.25-0.75c0.07-0.27,0.17-0.57,0.23-0.68
				c0.06-0.1,0.15-0.36,0.18-0.58c0.04-0.22,0.12-0.49,0.19-0.59c0.06-0.09,0.18-0.45,0.27-0.84c0.17-0.7,0.6-1.57,0.77-1.57
				c0.06,0,0.18,0.17,0.27,0.34c0.1,0.2,0.21,0.37,0.27,0.41c0.06,0.04,0.15,0.21,0.21,0.37c0.04,0.17,0.16,0.37,0.25,0.46
				c0.08,0.1,0.17,0.33,0.2,0.49c0.03,0.23,0.11,0.36,0.23,0.43c0.11,0.06,0.33,0.35,0.51,0.72c0.17,0.36,0.35,0.68,0.4,0.72
				c0.06,0.05,0.15,0.24,0.2,0.41c0.04,0.18,0.12,0.33,0.16,0.35c0.04,0.03,0.3,0.53,0.58,1.12c0.57,1.19,1.05,2.03,1.15,2.03
				c0.04,0,0.08,0.03,0.08,0.09c0,0.15,0.84,1.82,1.12,2.24c0.08,0.12,0.19,0.32,0.22,0.43c0.03,0.1,0.15,0.33,0.25,0.49
				c0.1,0.17,0.19,0.34,0.19,0.39c0,0.06,0.1,0.24,0.22,0.4c0.11,0.16,0.35,0.59,0.52,0.97c0.18,0.38,0.36,0.7,0.4,0.7
				c0.04,0,0.14,0.15,0.21,0.33c0.07,0.18,0.16,0.33,0.2,0.33c0.04,0,0.12,0.14,0.18,0.3c0.09,0.3,0.27,0.61,0.66,1.22
				c0.09,0.13,0.28,0.5,0.44,0.84c0.16,0.34,0.34,0.71,0.41,0.84c0.07,0.11,0.18,0.33,0.24,0.5c0.22,0.51,0.47,0.95,0.61,1.12
				c0.09,0.1,0.27,0.44,0.43,0.78c0.15,0.32,0.29,0.61,0.34,0.61c0.04,0.02,0.14,0.17,0.22,0.33c0.08,0.18,0.26,0.51,0.41,0.78
				c0.15,0.29,0.33,0.65,0.41,0.8c0.09,0.15,0.16,0.33,0.16,0.39c0,0.06,0.03,0.11,0.07,0.11c0.04,0,0.14,0.14,0.22,0.3
				c0.08,0.18,0.21,0.42,0.29,0.55c0.09,0.11,0.16,0.28,0.16,0.34c0,0.06,0.14,0.26,0.29,0.45c0.15,0.18,0.28,0.41,0.28,0.51
				c0,0.1,0.03,0.21,0.06,0.22c0.12,0.05,0.6,0.82,0.72,1.15c0.06,0.18,0.17,0.39,0.27,0.49c0.09,0.09,0.19,0.29,0.22,0.42
				c0.03,0.14,0.09,0.27,0.13,0.27c0.04,0,0.08,0.04,0.08,0.09c0,0.1,0.41,1.02,0.49,1.08c0.02,0.03,0.08,0.14,0.11,0.26
				c0.03,0.11,0.09,0.22,0.12,0.24c0.13,0.1,0.58,0.84,0.58,0.96c0,0.18,0.17,0.57,0.35,0.74c0.07,0.07,0.14,0.2,0.14,0.27
				c0,0.06,0.12,0.25,0.25,0.41c0.14,0.14,0.25,0.34,0.25,0.41c0,0.27,0.18,0.65,0.33,0.71c0.08,0.03,0.16,0.1,0.16,0.18
				c0,0.06,0.04,0.11,0.08,0.11C100.4,164.74,100.4,165.11,100.33,165.31z"/>
		</g>
		<g>
			<path d="M100.75,165.34c0.15-0.18,0.17-0.33,0.08-0.44l-18.11-33.59c-0.16-0.32-0.34-0.42-0.52-0.3
				c-0.1,0.09-0.15,0.16-0.15,0.21l-3.58,11.87l0.57,0.09l3.4-11.09l17.72,32.87L66.93,182.6l2.69-10.72
				c-0.04-0.31-0.17-0.42-0.4-0.33c-0.1,0.03-0.17,0.11-0.19,0.26l-2.87,11.27c-0.04,0.05-0.04,0.14,0.02,0.29
				c0.13,0.13,0.25,0.16,0.39,0.09l34.16-18.11"/>
		</g>
		<g>
			<path d="M80.12,142.3c-6.68-4.07-11.17-9.56-13.46-16.49c-1.68-4.75-2.7-9.42-3.07-13.99c-0.13-1.78-0.09-3.46,0.11-5.04
				c0.16-1.5,0.61-3.4,1.35-5.7c0.02-0.12-0.01-0.22-0.09-0.29c-0.12-0.1-0.24-0.11-0.37-0.03l-16.69,8.69
				c-0.04,0.34,0.08,0.49,0.37,0.44l15.98-8.27c-1.18,3.48-1.59,7.11-1.22,10.89c0.48,4.91,1.61,9.72,3.4,14.43
				c1.41,3.73,3.27,6.88,5.59,9.45c1.43,1.61,3.05,3.08,4.85,4.41c0.61,0.46,1.56,1.12,2.86,1.98l0.34-0.41"/>
		</g>
		<g>
			<path d="M70.84,172.78c0.08-0.22,0.04-0.37-0.1-0.43c-4.69-3.02-8.5-5.8-11.42-8.32c-3.18-2.72-6.17-5.6-8.95-8.63
				c-4.55-4.76-7.93-10.12-10.13-16.1c-3.45-8.19-5.3-15.92-5.56-23.19c-0.28-4.7-0.25-8.88,0.1-12.53
				c0.08-1.81,0.86-6.21,2.35-13.2l12.24,22.73l0.56-0.21L37.27,89.37c-0.1-0.22-0.26-0.25-0.5-0.1c-1.5,6.71-2.35,11.27-2.55,13.7
				c-0.37,3.64-0.43,7.81-0.18,12.52c0.2,7.53,2.05,15.49,5.57,23.88c2.24,6.2,5.87,11.87,10.89,17.04
				c6.75,7.17,13.51,12.65,20.29,16.43"/>
		</g>
		<g>
			<path d="M164.78,114.84c0.06,0.02,0.11,0.07,0.11,0.11c0,0.06,0.04,0.13,0.08,0.19c0.34,0.43,0.39,0.54,0.39,0.76
				c0,0.14,0.07,0.31,0.19,0.42c0.1,0.1,0.22,0.28,0.25,0.42c0.02,0.12,0.09,0.22,0.13,0.22c0.05,0,0.08,0.05,0.08,0.09
				c0,0.06,0.05,0.15,0.12,0.22c0.07,0.08,0.12,0.22,0.12,0.33c0,0.12,0.05,0.2,0.13,0.2c0.07,0,0.13,0.06,0.13,0.13
				c0,0.07,0.03,0.12,0.08,0.12c0.04,0,0.09,0.12,0.09,0.25c0,0.16,0.08,0.33,0.23,0.49c0.13,0.14,0.25,0.34,0.29,0.48
				c0.02,0.11,0.09,0.21,0.13,0.21c0.05,0,0.08,0.09,0.08,0.22c0,0.11,0.04,0.2,0.07,0.2c0.04,0,0.1,0.09,0.14,0.18
				c0.02,0.11,0.1,0.24,0.16,0.31c0.06,0.06,0.12,0.18,0.12,0.27c0,0.08,0.03,0.15,0.08,0.15c0.04,0,0.08,0.08,0.07,0.17
				c0,0.1,0.06,0.21,0.12,0.23c0.07,0.03,0.12,0.12,0.12,0.21c0.02,0.07,0.07,0.2,0.13,0.28c0.07,0.06,0.12,0.14,0.12,0.18
				c0,0.03,0.06,0.1,0.13,0.17c0.07,0.08,0.12,0.22,0.12,0.33c-0.01,0.12,0.04,0.27,0.1,0.33c0.25,0.29,0.31,0.38,0.31,0.5
				c0,0.06,0.05,0.18,0.12,0.23c0.06,0.07,0.14,0.21,0.16,0.31c0.02,0.1,0.1,0.18,0.14,0.18c0.04,0,0.08,0.09,0.08,0.19
				c0,0.11,0.06,0.22,0.12,0.26c0.06,0.02,0.12,0.1,0.12,0.18c0,0.06,0.04,0.12,0.08,0.12c0.04,0,0.09,0.1,0.12,0.24
				c0.03,0.14,0.09,0.25,0.13,0.25c0.04,0,0.1,0.09,0.13,0.21c0.02,0.11,0.08,0.21,0.12,0.21c0.04,0,0.08,0.1,0.07,0.2
				c0,0.11,0.06,0.24,0.12,0.3c0.07,0.06,0.13,0.16,0.13,0.22c0,0.06,0.03,0.11,0.08,0.11c0.04,0,0.1,0.1,0.12,0.22
				c0.03,0.12,0.12,0.27,0.17,0.34c0.07,0.06,0.13,0.2,0.12,0.29c0,0.08,0.03,0.16,0.08,0.16c0.04,0,0.1,0.09,0.13,0.22
				c0.03,0.11,0.08,0.2,0.12,0.21c0.04,0,0.07,0.08,0.07,0.16c0,0.1,0.06,0.22,0.13,0.29c0.07,0.07,0.12,0.14,0.12,0.18
				c0,0.04,0.05,0.11,0.12,0.18c0.06,0.07,0.12,0.22,0.12,0.35c0,0.14,0.08,0.29,0.24,0.43c0.14,0.12,0.25,0.28,0.24,0.4
				c0,0.1,0.03,0.19,0.08,0.19c0.04,0,0.1,0.1,0.12,0.21c0.04,0.13,0.09,0.22,0.13,0.22s0.08,0.06,0.08,0.12
				c0,0.08,0.09,0.24,0.21,0.36c0.12,0.13,0.2,0.29,0.2,0.45c0,0.14,0.02,0.25,0.07,0.25c0.02,0,0.13,0.18,0.23,0.41
				c0.1,0.21,0.24,0.5,0.35,0.61c0.1,0.1,0.16,0.28,0.16,0.37c0,0.1,0.08,0.23,0.17,0.32c0.09,0.07,0.16,0.22,0.16,0.31
				c0,0.09,0.04,0.17,0.08,0.17c0.04,0,0.12,0.13,0.18,0.28c0.05,0.16,0.12,0.29,0.16,0.29c0.05,0,0.1,0.13,0.13,0.27
				c0.03,0.13,0.09,0.25,0.12,0.25c0.05,0,0.12,0.16,0.17,0.33c0.04,0.18,0.12,0.33,0.16,0.33c0.05,0,0.08,0.05,0.08,0.11
				c0,0.1,0.08,0.21,0.49,0.71c0.09,0.11,0.16,0.29,0.16,0.41c0,0.11,0.04,0.2,0.08,0.2c0.04,0,0.1,0.1,0.12,0.25
				c0.03,0.13,0.09,0.25,0.12,0.25c0.04,0,0.13,0.16,0.18,0.35c0.05,0.2,0.14,0.39,0.2,0.42c0.06,0.05,0.1,0.15,0.1,0.24
				c0,0.09,0.03,0.17,0.09,0.17c0.04,0,0.08,0.06,0.08,0.14c0,0.07,0.1,0.25,0.2,0.38c0.12,0.14,0.21,0.35,0.21,0.48
				c0,0.16,0.04,0.25,0.16,0.29c0.1,0.02,0.17,0.11,0.16,0.17c0,0.07,0.03,0.13,0.08,0.13s0.11,0.11,0.13,0.26
				c0.04,0.14,0.12,0.32,0.19,0.37c0.06,0.07,0.13,0.23,0.15,0.37c0.03,0.13,0.1,0.26,0.17,0.29c0.07,0.02,0.12,0.14,0.11,0.25
				c0,0.12,0.03,0.21,0.08,0.21c0.04,0,0.08,0.05,0.08,0.1c0,0.04,0.09,0.2,0.2,0.34c0.1,0.14,0.2,0.32,0.2,0.41
				c0,0.08,0.05,0.17,0.11,0.18c0.15,0.06,0.45,0.67,0.45,0.91c0,0.09,0.03,0.17,0.07,0.17c0.04,0,0.1,0.1,0.13,0.26
				c0.03,0.14,0.13,0.33,0.22,0.43c0.08,0.09,0.15,0.24,0.15,0.32c0,0.09,0.03,0.15,0.08,0.15c0.04,0,0.11,0.1,0.16,0.25
				c0.04,0.13,0.12,0.25,0.17,0.25c0.05,0.01,0.1,0.16,0.14,0.33s0.14,0.38,0.24,0.47c0.1,0.1,0.23,0.32,0.3,0.49
				c0.06,0.18,0.14,0.32,0.17,0.32c0.03,0,0.08,0.12,0.1,0.28c0.03,0.18,0.11,0.3,0.22,0.33c0.13,0.04,0.16,0.12,0.16,0.38
				c0,0.36-0.14,0.52-0.4,0.47c-0.67-0.14-1.1-0.26-1.1-0.32c0-0.02-0.2-0.08-0.43-0.1c-0.25-0.02-0.61-0.12-0.82-0.21
				c-0.2-0.1-0.63-0.23-0.95-0.29c-0.32-0.05-0.62-0.14-0.67-0.18c-0.06-0.04-0.34-0.13-0.63-0.2c-0.29-0.07-0.74-0.2-0.99-0.3
				c-0.25-0.1-0.57-0.18-0.72-0.18c-0.14,0-0.29-0.04-0.31-0.09c-0.02-0.04-0.16-0.08-0.28-0.09c-0.14-0.01-0.27-0.04-0.31-0.09
				c-0.08-0.08-1.35-0.46-1.78-0.56c-0.16-0.02-0.54-0.14-0.85-0.23c-0.59-0.18-0.98-0.18-0.98,0.06c0,0.07-0.05,0.14-0.12,0.17
				c-0.06,0.02-0.14,0.12-0.17,0.25c-0.03,0.1-0.08,0.19-0.12,0.19c-0.05,0-0.09,0.08-0.09,0.16c0,0.08-0.06,0.18-0.13,0.21
				c-0.06,0.02-0.12,0.1-0.12,0.17c0,0.07-0.03,0.13-0.09,0.13c-0.04,0-0.1,0.09-0.13,0.2c-0.02,0.13-0.09,0.22-0.13,0.22
				c-0.03,0-0.09,0.09-0.12,0.22c-0.03,0.11-0.1,0.2-0.14,0.2c-0.05,0-0.09,0.06-0.09,0.12c0,0.08-0.06,0.16-0.12,0.18
				c-0.06,0.04-0.12,0.11-0.13,0.17c0,0.07-0.04,0.12-0.09,0.12c-0.04,0-0.1,0.1-0.13,0.2c-0.02,0.13-0.1,0.22-0.16,0.25
				c-0.07,0.02-0.12,0.1-0.12,0.17c0,0.07-0.04,0.13-0.08,0.13c-0.06,0-0.09,0.05-0.1,0.12c0,0.07-0.06,0.15-0.13,0.18
				c-0.08,0.03-0.13,0.16-0.13,0.29c0,0.16-0.08,0.33-0.26,0.48c-0.14,0.14-0.25,0.29-0.25,0.34s-0.09,0.18-0.2,0.27
				c-0.11,0.1-0.22,0.27-0.25,0.37c-0.04,0.12-0.1,0.21-0.14,0.21c-0.04,0-0.07,0.05-0.07,0.12c0,0.07-0.12,0.24-0.25,0.37
				c-0.15,0.13-0.25,0.28-0.25,0.32c0,0.05-0.06,0.11-0.14,0.13c-0.06,0.02-0.12,0.1-0.12,0.17c0,0.06-0.06,0.12-0.12,0.15
				c-0.07,0.02-0.12,0.11-0.12,0.18c0,0.08-0.09,0.22-0.2,0.32c-0.11,0.1-0.22,0.24-0.26,0.33c-0.02,0.08-0.09,0.14-0.14,0.14
				c-0.04,0-0.09,0.05-0.09,0.11c0,0.07-0.06,0.14-0.13,0.16c-0.07,0.02-0.13,0.1-0.13,0.16c0,0.06-0.1,0.17-0.21,0.23
				c-0.12,0.05-0.21,0.14-0.21,0.21c0,0.1-0.17,0.32-0.54,0.72c-0.12,0.12-0.22,0.29-0.22,0.36c0,0.06-0.04,0.11-0.08,0.11
				c-0.05,0-0.11,0.06-0.14,0.14c-0.06,0.17-0.53,0.61-0.64,0.61c-0.04,0-0.07,0.06-0.07,0.14c-0.01,0.08-0.12,0.25-0.25,0.35
				c-0.15,0.11-0.26,0.23-0.26,0.28c0,0.03-0.09,0.14-0.2,0.25c-0.12,0.1-0.22,0.23-0.22,0.29c0,0.12-0.56,0.66-0.68,0.66
				c-0.04,0-0.08,0.05-0.08,0.08c0,0.14-0.12,0.25-0.83,0.96c-0.34,0.33-0.66,0.61-0.69,0.61c-0.04,0-0.08,0.06-0.08,0.12
				c0,0.07-0.04,0.14-0.11,0.14c-0.06,0-0.15,0.08-0.22,0.18c-0.06,0.1-0.25,0.29-0.41,0.44c-0.13,0.14-0.25,0.29-0.25,0.31
				c0,0.06-0.33,0.43-0.51,0.6c-0.6,0.55-0.98,0.87-1.03,0.87c-0.04,0-0.07,0.06-0.07,0.13c0,0.06-0.04,0.13-0.09,0.13
				c-0.05,0-0.27,0.16-0.49,0.36c-1.07,1-1.55,1.43-1.78,1.61c-0.55,0.41-0.8,0.63-1.08,0.88c-0.16,0.15-0.34,0.27-0.42,0.26
				c-0.06,0-0.22,0.1-0.32,0.22c-0.12,0.11-0.23,0.21-0.26,0.21c-0.03,0-0.14,0.09-0.24,0.19c-0.1,0.1-0.26,0.21-0.34,0.21
				c-0.08,0.02-0.17,0.12-0.19,0.22c-0.02,0.1-0.11,0.2-0.22,0.22c-0.1,0.03-0.3,0.15-0.45,0.29c-0.16,0.14-0.33,0.25-0.4,0.25
				c-0.07,0-0.12,0.05-0.12,0.11c0,0.07-0.13,0.17-0.26,0.24c-0.14,0.06-0.25,0.16-0.25,0.22s-0.06,0.13-0.15,0.15
				c-0.21,0.07-1.07,0.66-1.2,0.81c-0.06,0.06-0.14,0.13-0.18,0.13c-0.05,0-0.22,0.1-0.38,0.24c-0.15,0.14-0.33,0.25-0.39,0.25
				s-0.18,0.07-0.27,0.16c-0.08,0.1-0.18,0.18-0.24,0.18c-0.06-0.01-0.17,0.07-0.26,0.17c-0.14,0.16-0.87,0.58-1.98,1.15
				c-0.24,0.11-0.45,0.25-0.48,0.29c-0.03,0.05-0.2,0.12-0.37,0.18c-0.19,0.06-0.55,0.23-0.79,0.38c-0.25,0.15-0.61,0.33-0.79,0.4
				c-0.17,0.07-0.3,0.16-0.3,0.2s-0.33,0.24-0.74,0.42c-0.4,0.21-0.82,0.44-0.94,0.52c-0.1,0.07-0.25,0.14-0.33,0.14
				c-0.08,0-0.26,0.08-0.41,0.2c-0.15,0.1-0.4,0.21-0.57,0.25c-0.17,0.02-0.48,0.13-0.69,0.24c-1.11,0.53-1.49,0.69-1.63,0.69
				c-0.08-0.01-0.23,0.06-0.33,0.15c-0.1,0.09-0.36,0.19-0.59,0.25c-0.22,0.06-0.45,0.13-0.47,0.18c-0.04,0.04-0.29,0.14-0.58,0.2
				c-0.3,0.06-0.63,0.19-0.74,0.28c-0.11,0.09-0.39,0.18-0.62,0.19c-0.22,0.04-0.45,0.1-0.5,0.17c-0.05,0.06-0.3,0.15-0.56,0.21
				c-0.26,0.05-0.49,0.13-0.53,0.16c-0.08,0.1-0.54,0.23-0.96,0.28c-0.23,0.04-0.55,0.13-0.71,0.2c-0.16,0.08-0.5,0.18-0.75,0.21
				c-0.25,0.02-0.56,0.08-0.71,0.14c-0.14,0.06-0.52,0.15-0.85,0.19c-0.32,0.06-0.71,0.14-0.86,0.22c-0.15,0.07-0.56,0.16-0.9,0.19
				c-0.41,0.05-0.66,0.12-0.73,0.2c-0.06,0.09-0.38,0.17-0.88,0.25c-0.43,0.06-1,0.18-1.22,0.27c-0.23,0.06-0.79,0.16-1.24,0.19
				c-0.45,0.02-1.02,0.09-1.25,0.16c-0.23,0.05-0.86,0.14-1.39,0.18c-1.17,0.09-1.53,0.14-2.38,0.27c-1.74,0.29-8.04,0.4-11.38,0.21
				c-4.44-0.23-4.89-0.27-5.28-0.41c-0.23-0.08-0.98-0.17-1.79-0.22c-0.76-0.06-1.56-0.13-1.79-0.19c-1.12-0.23-1.7-0.33-2.03-0.34
				c-0.22-0.01-0.61-0.07-0.88-0.14c-0.27-0.08-0.85-0.21-1.27-0.31c-0.99-0.19-1.25-0.25-1.25-0.33c0-0.05-0.27-0.11-0.61-0.19
				c-0.33-0.05-0.72-0.14-0.85-0.21c-0.15-0.06-0.4-0.14-0.59-0.18c-0.41-0.06-0.78-0.24-0.78-0.34c0-0.16,0.57-0.6,0.89-0.69
				c0.18-0.06,0.41-0.18,0.54-0.25c0.12-0.07,0.36-0.22,0.54-0.3c0.18-0.09,0.36-0.17,0.38-0.2c0.02-0.03,0.13-0.1,0.23-0.11
				c0.11-0.03,0.28-0.14,0.37-0.22c0.08-0.08,0.23-0.16,0.31-0.16c0.08,0,0.28-0.09,0.44-0.2c0.16-0.1,0.45-0.24,0.62-0.29
				c0.19-0.05,0.41-0.16,0.49-0.24c0.09-0.09,0.2-0.15,0.24-0.15c0.04,0,0.21-0.1,0.38-0.19c0.17-0.13,0.42-0.24,0.55-0.28
				c0.14-0.02,0.26-0.09,0.28-0.15c0.03-0.06,0.15-0.12,0.27-0.15c0.13-0.03,0.36-0.14,0.53-0.26c0.18-0.1,0.33-0.19,0.36-0.19
				c0.03,0,0.21-0.1,0.4-0.24c0.33-0.22,1.25-0.66,1.35-0.66c0.03,0,0.14-0.1,0.27-0.21c0.12-0.13,0.36-0.24,0.51-0.28
				c0.16-0.04,0.39-0.17,0.51-0.25c0.13-0.09,0.26-0.17,0.3-0.17c0.04,0,0.24-0.07,0.45-0.16c0.2-0.1,0.46-0.21,0.57-0.25
				c0.12-0.05,0.2-0.11,0.2-0.16c0-0.04,0.17-0.11,0.37-0.18c0.21-0.05,0.5-0.21,0.63-0.33c0.14-0.14,0.31-0.23,0.38-0.23
				c0.06,0,0.15-0.04,0.18-0.11c0.02-0.07,0.14-0.14,0.27-0.18c0.28-0.06,1.47-0.63,1.51-0.72c0.02-0.03,0.08-0.07,0.14-0.07
				c0.07,0,0.12-0.02,0.12-0.06c0-0.05,0.17-0.11,0.38-0.16c0.2-0.06,0.4-0.14,0.44-0.2c0.03-0.06,0.16-0.16,0.27-0.19
				c0.12-0.06,0.4-0.22,0.63-0.35c0.47-0.3,0.91-0.49,1.04-0.49c0.05,0,0.17-0.07,0.26-0.16c0.1-0.07,0.34-0.18,0.55-0.25
				c0.2-0.04,0.36-0.14,0.36-0.2c0-0.06,0.06-0.11,0.13-0.11c0.18,0,0.19-0.91,0.02-0.96c-0.07-0.02-0.15-0.13-0.16-0.25
				c-0.04-0.11-0.1-0.2-0.14-0.2c-0.06,0-0.08-0.06-0.08-0.12c0-0.06-0.04-0.17-0.1-0.21c-0.07-0.03-0.14-0.19-0.16-0.34
				c-0.04-0.15-0.1-0.33-0.16-0.4c-0.26-0.29-0.32-0.38-0.32-0.54c0-0.09-0.07-0.24-0.16-0.31c-0.08-0.09-0.16-0.21-0.16-0.29
				c0-0.09-0.02-0.15-0.06-0.15c-0.04,0-0.11-0.12-0.14-0.25c-0.03-0.14-0.11-0.26-0.18-0.29c-0.06-0.02-0.11-0.14-0.11-0.25
				c0-0.12-0.04-0.21-0.09-0.21c-0.04,0-0.12-0.1-0.16-0.25c-0.05-0.15-0.12-0.25-0.17-0.25c-0.04,0-0.07-0.09-0.07-0.2
				c0-0.13-0.05-0.24-0.12-0.27c-0.07-0.02-0.14-0.18-0.17-0.33c-0.03-0.16-0.08-0.29-0.13-0.29c-0.05,0-0.08-0.05-0.08-0.11
				s-0.05-0.18-0.11-0.24c-0.07-0.06-0.14-0.24-0.16-0.39c-0.06-0.26-0.14-0.41-0.41-0.67c-0.08-0.07-0.14-0.19-0.14-0.27
				c0-0.07-0.05-0.16-0.11-0.2c-0.07-0.02-0.13-0.13-0.13-0.22c0-0.09-0.03-0.17-0.08-0.17c-0.04,0-0.1-0.11-0.13-0.25
				c-0.03-0.14-0.12-0.25-0.18-0.27c-0.06-0.03-0.12-0.13-0.11-0.22c0-0.09-0.03-0.17-0.08-0.17c-0.04,0-0.09-0.1-0.12-0.24
				c-0.02-0.13-0.11-0.29-0.17-0.37c-0.07-0.07-0.12-0.21-0.12-0.31c0-0.09-0.04-0.19-0.11-0.23c-0.07-0.02-0.15-0.16-0.18-0.29
				c-0.03-0.14-0.08-0.24-0.13-0.24c-0.04,0-0.07-0.1-0.07-0.21c0-0.14-0.05-0.22-0.13-0.22c-0.07,0-0.12-0.07-0.12-0.19
				s-0.05-0.26-0.12-0.33c-0.06-0.07-0.12-0.17-0.12-0.2c0-0.05-0.08-0.16-0.16-0.27c-0.09-0.11-0.17-0.3-0.16-0.43
				c0-0.15-0.09-0.34-0.25-0.49c-0.14-0.14-0.25-0.31-0.25-0.37c0-0.07-0.03-0.13-0.08-0.13c-0.04,0-0.12-0.15-0.17-0.36
				c-0.06-0.18-0.14-0.39-0.19-0.45c-0.25-0.28-0.29-0.37-0.29-0.48c0-0.07-0.07-0.21-0.16-0.33c-0.17-0.19-0.21-0.62-0.08-0.83
				c0.04-0.05,0.26-0.12,0.48-0.15c0.32-0.01,0.47,0.02,0.66,0.14c0.2,0.14,0.49,0.2,1.61,0.28c0.76,0.07,1.94,0.17,2.62,0.25
				c1.73,0.16,5.27,0.17,7,0.02c0.77-0.07,1.71-0.15,2.08-0.18c0.36-0.02,0.88-0.1,1.13-0.18c0.25-0.08,0.73-0.18,1.07-0.21
				c0.35-0.03,0.74-0.1,0.9-0.15c0.15-0.06,0.61-0.17,1.01-0.24c0.39-0.08,0.85-0.17,0.98-0.24c0.14-0.06,0.48-0.15,0.76-0.21
				c0.29-0.02,0.6-0.11,0.68-0.16c0.23-0.11,1.52-0.53,2.02-0.67c0.21-0.06,0.45-0.16,0.52-0.23c0.08-0.08,0.29-0.18,0.46-0.25
				c0.18-0.03,0.42-0.16,0.53-0.24c0.12-0.07,0.39-0.19,0.59-0.23c0.2-0.03,0.41-0.13,0.47-0.2c0.04-0.07,0.22-0.16,0.38-0.18
				c0.16-0.02,0.36-0.1,0.45-0.16c0.09-0.04,0.31-0.14,0.5-0.19c0.19-0.06,0.39-0.15,0.47-0.22c0.06-0.06,0.25-0.16,0.41-0.2
				c0.16-0.06,0.38-0.19,0.49-0.29c0.1-0.1,0.27-0.21,0.37-0.25c0.09-0.02,0.25-0.1,0.32-0.17c0.16-0.14,0.53-0.35,0.99-0.57
				c0.18-0.07,0.32-0.18,0.33-0.25c0-0.05,0.05-0.1,0.1-0.1c0.12,0,1.02-0.57,1.29-0.81c0.09-0.08,0.31-0.25,0.49-0.36
				c0.2-0.12,0.45-0.31,0.58-0.43c0.12-0.11,0.27-0.22,0.31-0.22c0.05,0,0.35-0.25,0.69-0.58c0.34-0.34,0.68-0.65,0.76-0.69
				c0.08-0.05,0.29-0.21,0.48-0.39c0.19-0.17,0.37-0.29,0.4-0.29c0.1,0,1.28-1.24,1.28-1.35c0-0.05,0.05-0.07,0.12-0.07
				c0.1,0,1.07-0.99,1.07-1.11c0-0.02,0.18-0.23,0.39-0.46c0.23-0.22,0.5-0.53,0.63-0.66c0.12-0.14,0.3-0.37,0.43-0.5
				c0.12-0.14,0.25-0.35,0.28-0.49c0.04-0.14,0.13-0.29,0.22-0.35c0.2-0.15,0.31-0.63,0.16-0.67c-0.07-0.03-0.43-0.14-0.79-0.27
				c-0.37-0.12-0.76-0.22-0.86-0.22c-0.12,0-0.27-0.06-0.36-0.12c-0.1-0.06-0.4-0.15-0.67-0.22c-0.28-0.06-0.64-0.18-0.78-0.26
				c-0.17-0.08-0.49-0.19-0.72-0.23c-0.23-0.02-0.52-0.11-0.67-0.18c-0.13-0.07-0.47-0.18-0.74-0.25c-0.27-0.06-0.57-0.17-0.68-0.23
				c-0.1-0.06-0.36-0.15-0.59-0.19c-0.22-0.03-0.49-0.1-0.58-0.18c-0.09-0.08-0.47-0.19-0.84-0.27c-0.71-0.18-1.57-0.61-1.56-0.77
				c0-0.06,0.16-0.18,0.34-0.26c0.19-0.11,0.36-0.22,0.4-0.29c0.03-0.05,0.2-0.15,0.36-0.22c0.17-0.04,0.4-0.14,0.49-0.24
				c0.1-0.08,0.32-0.18,0.49-0.22c0.23-0.03,0.35-0.1,0.41-0.22c0.06-0.11,0.35-0.33,0.72-0.52c0.36-0.16,0.69-0.35,0.74-0.4
				c0.04-0.06,0.22-0.14,0.39-0.2c0.18-0.05,0.33-0.13,0.36-0.16c0.02-0.05,0.53-0.3,1.11-0.57c1.19-0.58,2.03-1.05,2.03-1.15
				c0-0.03,0.04-0.07,0.09-0.07c0.16,0,1.82-0.84,2.24-1.12c0.12-0.08,0.33-0.2,0.44-0.22c0.1-0.03,0.32-0.15,0.48-0.25
				c0.17-0.1,0.34-0.2,0.39-0.2c0.06,0.02,0.24-0.1,0.41-0.21c0.16-0.1,0.59-0.35,0.97-0.53c0.38-0.18,0.69-0.35,0.7-0.4
				c0-0.04,0.15-0.14,0.33-0.21c0.19-0.07,0.34-0.17,0.34-0.2c0-0.05,0.14-0.12,0.31-0.17c0.29-0.09,0.62-0.26,1.22-0.65
				c0.13-0.09,0.51-0.29,0.84-0.46c0.35-0.14,0.71-0.33,0.83-0.41c0.12-0.06,0.34-0.18,0.51-0.22c0.51-0.24,0.96-0.49,1.13-0.63
				c0.1-0.07,0.43-0.26,0.77-0.41c0.31-0.15,0.59-0.29,0.61-0.33c0.02-0.04,0.17-0.14,0.33-0.23c0.18-0.08,0.52-0.25,0.79-0.41
				c0.27-0.14,0.65-0.33,0.8-0.41c0.15-0.09,0.33-0.14,0.39-0.14s0.11-0.04,0.11-0.08c0-0.05,0.14-0.14,0.31-0.22
				c0.18-0.08,0.43-0.22,0.55-0.29c0.12-0.09,0.27-0.14,0.34-0.14c0.06,0,0.25-0.14,0.43-0.29c0.19-0.16,0.42-0.29,0.52-0.29
				c0.1,0.01,0.2-0.03,0.21-0.06c0.05-0.14,0.82-0.61,1.15-0.72c0.18-0.06,0.4-0.18,0.5-0.27c0.09-0.1,0.28-0.2,0.43-0.23
				c0.14-0.02,0.26-0.09,0.26-0.12c0-0.05,0.04-0.08,0.09-0.08c0.1,0,1.01-0.41,1.07-0.49c0.03-0.02,0.14-0.08,0.25-0.11
				c0.11-0.04,0.23-0.1,0.25-0.13c0.1-0.14,0.84-0.57,0.95-0.57c0.19,0,0.57-0.18,0.74-0.36c0.09-0.06,0.21-0.13,0.27-0.13
				c0.07,0,0.26-0.12,0.41-0.26c0.15-0.14,0.33-0.25,0.41-0.24c0.26,0.01,0.65-0.18,0.7-0.33c0.04-0.08,0.11-0.16,0.17-0.16
				c0.07,0,0.12-0.04,0.12-0.08C164.23,114.77,164.6,114.76,164.78,114.84z"/>
		</g>
		<g>
			<path d="M164.82,114.42c-0.18-0.15-0.32-0.17-0.43-0.07l-33.6,18.1c-0.32,0.15-0.43,0.33-0.31,0.52
				c0.09,0.11,0.16,0.16,0.21,0.14l11.87,3.58l0.08-0.57l-11.1-3.39l32.88-17.72l17.66,33.22l-10.72-2.69
				c-0.31,0.04-0.42,0.18-0.34,0.41c0.04,0.1,0.12,0.17,0.27,0.19l11.27,2.87c0.04,0.03,0.14,0.02,0.28-0.04
				c0.13-0.12,0.17-0.25,0.1-0.39l-18.12-34.14"/>
		</g>
		<g>
			<path d="M141.79,135.04c-4.07,6.67-9.57,11.16-16.48,13.46c-4.76,1.7-9.42,2.72-13.97,3.08c-1.78,0.13-3.46,0.1-5.06-0.09
				c-1.49-0.16-3.4-0.62-5.71-1.37c-0.12-0.02-0.22,0.01-0.29,0.09c-0.09,0.11-0.1,0.23-0.02,0.37l8.69,16.68
				c0.34,0.04,0.49-0.08,0.43-0.37l-8.27-15.98c3.49,1.19,7.12,1.6,10.9,1.23c4.91-0.47,9.72-1.61,14.43-3.41
				c3.72-1.42,6.86-3.28,9.44-5.59c1.61-1.43,3.08-3.04,4.42-4.86c0.46-0.61,1.12-1.56,1.97-2.86l-0.42-0.34"/>
		</g>
		<g>
			<path d="M172.26,144.33c-0.22-0.07-0.37-0.03-0.43,0.11c-3.02,4.68-5.79,8.49-8.31,11.42c-2.73,3.18-5.62,6.16-8.65,8.95
				c-4.75,4.56-10.11,7.93-16.08,10.14c-8.2,3.45-15.93,5.31-23.19,5.57c-4.71,0.28-8.89,0.25-12.54-0.1
				c-1.8-0.08-6.2-0.87-13.2-2.35l22.73-12.25l-0.22-0.55l-23.51,12.63c-0.22,0.1-0.25,0.26-0.1,0.5c6.71,1.5,11.27,2.35,13.69,2.55
				c3.64,0.37,7.82,0.43,12.53,0.17c7.53-0.18,15.49-2.03,23.87-5.56c6.2-2.25,11.88-5.88,17.05-10.9
				c7.17-6.75,12.64-13.51,16.42-20.28"/>
		</g>
		<g>
			<path d="M114.59,49.53c0.02-0.06,0.08-0.1,0.12-0.1c0.05,0,0.13-0.05,0.18-0.09c0.42-0.33,0.54-0.38,0.75-0.38
				c0.15,0,0.32-0.08,0.43-0.19c0.1-0.11,0.29-0.22,0.41-0.25c0.12-0.02,0.22-0.09,0.22-0.14s0.04-0.08,0.09-0.08
				c0.06,0,0.14-0.06,0.21-0.12c0.08-0.07,0.22-0.12,0.33-0.12c0.12,0,0.2-0.06,0.2-0.12c0-0.07,0.06-0.14,0.12-0.14
				c0.06,0,0.12-0.03,0.13-0.08c0-0.04,0.11-0.09,0.25-0.09c0.16,0,0.33-0.08,0.5-0.24c0.13-0.12,0.34-0.25,0.46-0.29
				c0.11-0.02,0.22-0.08,0.22-0.12c0-0.05,0.09-0.09,0.21-0.09c0.11,0,0.21-0.03,0.21-0.08c0-0.03,0.09-0.1,0.19-0.14
				c0.1-0.02,0.23-0.1,0.3-0.16c0.06-0.06,0.18-0.12,0.27-0.12s0.16-0.03,0.16-0.08c0-0.04,0.08-0.09,0.17-0.09
				c0.1,0,0.2-0.06,0.22-0.12c0.03-0.07,0.12-0.12,0.2-0.12c0.08-0.01,0.2-0.06,0.28-0.12c0.07-0.07,0.15-0.14,0.18-0.14
				c0.03,0,0.11-0.06,0.17-0.12c0.08-0.07,0.23-0.13,0.33-0.13c0.12,0,0.27-0.03,0.33-0.09c0.29-0.25,0.38-0.32,0.49-0.32
				c0.07,0,0.18-0.05,0.23-0.12c0.07-0.06,0.21-0.13,0.31-0.14c0.1-0.03,0.18-0.1,0.18-0.15c0-0.04,0.09-0.07,0.2-0.07
				s0.22-0.06,0.25-0.13c0.02-0.06,0.1-0.13,0.18-0.13c0.07,0,0.13-0.02,0.13-0.06c0-0.05,0.1-0.11,0.25-0.14
				c0.13-0.02,0.25-0.09,0.25-0.14c0-0.04,0.1-0.1,0.21-0.12c0.12-0.02,0.21-0.09,0.21-0.13s0.09-0.06,0.2-0.06s0.24-0.06,0.3-0.12
				c0.06-0.07,0.16-0.12,0.22-0.12c0.06,0,0.11-0.04,0.11-0.08c0-0.05,0.1-0.1,0.22-0.13c0.13-0.03,0.28-0.12,0.35-0.18
				c0.07-0.07,0.2-0.12,0.29-0.12c0.08,0.01,0.16-0.03,0.16-0.08c0-0.04,0.09-0.1,0.21-0.14c0.12-0.01,0.21-0.07,0.21-0.12
				c0-0.03,0.08-0.06,0.17-0.06s0.22-0.06,0.29-0.14c0.06-0.06,0.14-0.12,0.17-0.11c0.04,0,0.11-0.06,0.18-0.13
				c0.08-0.06,0.23-0.11,0.36-0.11c0.14-0.01,0.31-0.09,0.43-0.25c0.12-0.14,0.28-0.23,0.39-0.23c0.11,0,0.19-0.03,0.19-0.08
				c0-0.03,0.1-0.1,0.21-0.12c0.12-0.04,0.22-0.09,0.22-0.14c0-0.06,0.06-0.08,0.12-0.08c0.07,0,0.23-0.1,0.34-0.2
				c0.13-0.13,0.3-0.22,0.45-0.22c0.14,0,0.26-0.02,0.26-0.06c0-0.02,0.19-0.12,0.4-0.22c0.22-0.1,0.5-0.25,0.6-0.36
				c0.11-0.09,0.29-0.16,0.38-0.16c0.1,0,0.23-0.08,0.32-0.16c0.07-0.09,0.22-0.17,0.3-0.17c0.09,0,0.17-0.02,0.17-0.07
				c0-0.03,0.14-0.12,0.29-0.18c0.16-0.05,0.3-0.13,0.3-0.17s0.11-0.09,0.25-0.12c0.14-0.04,0.25-0.09,0.25-0.13
				s0.16-0.11,0.34-0.17c0.18-0.04,0.33-0.12,0.33-0.17c0-0.04,0.05-0.08,0.11-0.07c0.11,0,0.21-0.07,0.72-0.47
				c0.11-0.1,0.29-0.17,0.4-0.17c0.11,0.01,0.2-0.03,0.2-0.07s0.1-0.1,0.25-0.14c0.14-0.03,0.26-0.1,0.26-0.13
				c0-0.04,0.15-0.13,0.35-0.18c0.2-0.03,0.39-0.13,0.42-0.19c0.04-0.06,0.14-0.1,0.22-0.1c0.1,0,0.17-0.04,0.17-0.09
				c0-0.05,0.07-0.08,0.15-0.08c0.08,0,0.26-0.1,0.39-0.22c0.13-0.1,0.35-0.2,0.47-0.2c0.16,0,0.26-0.04,0.29-0.16
				c0.03-0.1,0.11-0.17,0.17-0.17c0.07,0,0.12-0.05,0.12-0.09c0-0.04,0.12-0.11,0.26-0.13c0.15-0.02,0.33-0.1,0.39-0.18
				c0.07-0.06,0.23-0.14,0.36-0.16c0.13-0.03,0.25-0.1,0.29-0.17c0.02-0.07,0.14-0.1,0.25-0.1c0.12,0,0.21-0.03,0.21-0.08
				c0-0.04,0.05-0.08,0.1-0.08c0.05-0.01,0.2-0.1,0.34-0.22c0.14-0.1,0.33-0.18,0.41-0.18c0.09,0,0.17-0.06,0.19-0.12
				c0.06-0.15,0.67-0.46,0.9-0.46c0.09,0.02,0.16-0.02,0.16-0.06s0.11-0.11,0.26-0.13c0.14-0.04,0.34-0.14,0.44-0.22
				c0.09-0.1,0.24-0.16,0.32-0.16c0.09,0.01,0.16-0.02,0.16-0.07c0-0.03,0.1-0.11,0.24-0.16c0.14-0.04,0.25-0.12,0.25-0.17
				c0-0.05,0.14-0.11,0.31-0.14c0.17-0.03,0.38-0.14,0.47-0.23c0.1-0.1,0.32-0.25,0.49-0.32c0.18-0.06,0.32-0.14,0.32-0.18
				c0-0.02,0.12-0.08,0.28-0.09c0.18-0.04,0.3-0.12,0.33-0.22c0.03-0.14,0.12-0.16,0.37-0.16c0.36,0,0.52,0.14,0.47,0.4
				c-0.14,0.65-0.26,1.1-0.31,1.1c-0.04,0-0.09,0.21-0.12,0.44c-0.03,0.24-0.12,0.61-0.22,0.81c-0.09,0.21-0.22,0.64-0.28,0.95
				c-0.06,0.33-0.14,0.63-0.18,0.68c-0.04,0.06-0.13,0.34-0.2,0.63c-0.07,0.29-0.2,0.73-0.3,0.99c-0.09,0.25-0.18,0.57-0.2,0.72
				c0,0.14-0.04,0.29-0.08,0.31c-0.05,0.03-0.09,0.16-0.09,0.29s-0.04,0.26-0.08,0.31c-0.08,0.08-0.48,1.35-0.57,1.78
				c-0.02,0.16-0.13,0.53-0.23,0.85c-0.18,0.58-0.17,0.97,0.06,0.98c0.07,0,0.14,0.05,0.16,0.11c0.02,0.07,0.12,0.16,0.24,0.18
				c0.11,0.03,0.2,0.09,0.2,0.12c0,0.06,0.08,0.1,0.16,0.1c0.08,0,0.18,0.05,0.21,0.12c0.02,0.06,0.1,0.12,0.17,0.12
				c0.06,0,0.13,0.04,0.13,0.1c0,0.03,0.09,0.09,0.2,0.13c0.12,0.02,0.2,0.1,0.2,0.12c0,0.04,0.09,0.1,0.21,0.13
				c0.12,0.03,0.21,0.1,0.21,0.14c0,0.04,0.06,0.08,0.12,0.08c0.08,0,0.15,0.06,0.17,0.12c0.04,0.07,0.1,0.13,0.17,0.13
				c0.07,0.01,0.12,0.04,0.12,0.1c0,0.04,0.09,0.1,0.2,0.14c0.12,0.03,0.22,0.1,0.25,0.16c0.02,0.07,0.09,0.13,0.17,0.13
				c0.08,0.01,0.14,0.05,0.14,0.09c0,0.05,0.06,0.09,0.12,0.09c0.08,0,0.15,0.06,0.17,0.13c0.04,0.07,0.16,0.14,0.3,0.14
				c0.16,0,0.32,0.09,0.47,0.25c0.13,0.13,0.28,0.25,0.34,0.25s0.18,0.1,0.28,0.2c0.1,0.12,0.26,0.22,0.36,0.25
				c0.11,0.03,0.19,0.1,0.19,0.14s0.06,0.08,0.12,0.08c0.07,0,0.24,0.12,0.35,0.25c0.14,0.16,0.29,0.25,0.34,0.25
				c0.04,0,0.1,0.07,0.13,0.13c0.03,0.07,0.1,0.13,0.17,0.13c0.06,0,0.12,0.05,0.16,0.11c0.02,0.07,0.11,0.13,0.18,0.13
				c0.08,0,0.22,0.09,0.32,0.21c0.1,0.1,0.23,0.22,0.32,0.25c0.07,0.02,0.14,0.1,0.14,0.14c0,0.04,0.05,0.1,0.11,0.1
				c0.07,0,0.14,0.05,0.17,0.12c0.03,0.06,0.1,0.13,0.16,0.13c0.06,0,0.17,0.1,0.22,0.22c0.06,0.12,0.16,0.22,0.21,0.22
				c0.1,0,0.33,0.17,0.72,0.52c0.13,0.12,0.29,0.24,0.36,0.24c0.07,0,0.12,0.05,0.12,0.09c0,0.05,0.07,0.11,0.14,0.14
				c0.16,0.06,0.61,0.53,0.61,0.63c-0.01,0.03,0.06,0.07,0.13,0.07c0.08,0.02,0.25,0.12,0.36,0.25c0.11,0.14,0.23,0.25,0.27,0.25
				c0.03,0,0.14,0.09,0.25,0.2c0.11,0.13,0.23,0.23,0.29,0.23c0.12,0.01,0.67,0.57,0.67,0.69c0,0.05,0.04,0.07,0.09,0.07
				c0.12,0,0.25,0.11,0.94,0.84c0.34,0.34,0.61,0.65,0.61,0.68c0,0.05,0.05,0.07,0.12,0.08c0.06,0,0.12,0.05,0.12,0.1
				c0,0.06,0.08,0.16,0.18,0.23c0.1,0.06,0.29,0.25,0.44,0.4c0.14,0.13,0.29,0.25,0.31,0.25c0.05,0,0.43,0.33,0.61,0.53
				c0.55,0.59,0.86,0.96,0.86,1.03c0,0.03,0.06,0.06,0.13,0.06c0.06,0.01,0.12,0.06,0.12,0.09c0,0.06,0.17,0.27,0.37,0.49
				c1.01,1.08,1.43,1.55,1.61,1.79c0.41,0.53,0.62,0.78,0.88,1.07c0.14,0.16,0.26,0.34,0.26,0.42c0,0.06,0.1,0.22,0.21,0.33
				c0.11,0.11,0.21,0.22,0.21,0.25c0,0.03,0.09,0.14,0.2,0.23c0.1,0.11,0.21,0.28,0.23,0.36c0.02,0.09,0.11,0.17,0.21,0.18
				c0.1,0.02,0.2,0.11,0.22,0.22c0.03,0.1,0.15,0.3,0.29,0.45c0.13,0.16,0.25,0.34,0.25,0.41c0,0.06,0.05,0.11,0.12,0.11
				c0.06,0,0.17,0.12,0.23,0.25c0.06,0.14,0.16,0.25,0.21,0.25c0.06,0,0.14,0.07,0.16,0.16c0.08,0.2,0.66,1.07,0.82,1.19
				c0.06,0.06,0.12,0.14,0.12,0.18c0,0.05,0.1,0.23,0.23,0.4c0.15,0.15,0.25,0.33,0.25,0.4c0,0.05,0.07,0.17,0.16,0.25
				c0.09,0.08,0.16,0.19,0.16,0.25c0,0.06,0.07,0.17,0.17,0.25c0.16,0.14,0.57,0.86,1.14,1.96c0.12,0.25,0.25,0.46,0.29,0.49
				c0.04,0.02,0.12,0.2,0.18,0.37c0.06,0.18,0.23,0.55,0.38,0.8c0.15,0.25,0.33,0.6,0.39,0.77c0.08,0.17,0.17,0.31,0.21,0.31
				c0.04,0.01,0.23,0.33,0.42,0.74c0.2,0.41,0.43,0.83,0.51,0.94c0.08,0.1,0.15,0.25,0.15,0.33s0.09,0.26,0.2,0.42
				c0.11,0.14,0.22,0.4,0.25,0.57c0.02,0.16,0.14,0.47,0.24,0.68c0.54,1.1,0.7,1.49,0.7,1.63c-0.01,0.08,0.06,0.24,0.15,0.34
				c0.09,0.1,0.2,0.35,0.25,0.59c0.05,0.22,0.13,0.44,0.18,0.47c0.04,0.03,0.14,0.29,0.2,0.58c0.06,0.29,0.19,0.61,0.27,0.72
				c0.09,0.13,0.18,0.4,0.21,0.63c0.03,0.22,0.1,0.45,0.16,0.49c0.06,0.05,0.16,0.3,0.2,0.56c0.06,0.25,0.13,0.49,0.16,0.53
				c0.1,0.07,0.25,0.53,0.29,0.94c0.03,0.25,0.12,0.57,0.2,0.72c0.08,0.16,0.17,0.5,0.2,0.75c0.03,0.25,0.09,0.57,0.16,0.72
				c0.05,0.14,0.14,0.52,0.18,0.84c0.05,0.32,0.15,0.7,0.23,0.86c0.07,0.15,0.16,0.56,0.2,0.9c0.04,0.41,0.12,0.66,0.2,0.74
				c0.08,0.05,0.17,0.38,0.25,0.88c0.07,0.43,0.19,0.99,0.27,1.22c0.07,0.23,0.16,0.79,0.18,1.25c0.03,0.45,0.1,1.02,0.16,1.25
				c0.06,0.22,0.14,0.84,0.2,1.38c0.09,1.18,0.14,1.54,0.27,2.38c0.28,1.73,0.4,8.04,0.21,11.37c-0.24,4.43-0.28,4.87-0.41,5.27
				c-0.08,0.25-0.18,0.99-0.23,1.8c-0.06,0.76-0.14,1.55-0.18,1.78c-0.24,1.12-0.34,1.7-0.35,2.05c-0.01,0.22-0.07,0.61-0.14,0.88
				c-0.08,0.27-0.21,0.84-0.31,1.27c-0.19,0.99-0.26,1.24-0.34,1.24c-0.04,0-0.11,0.28-0.18,0.61c-0.06,0.33-0.16,0.72-0.21,0.86
				c-0.07,0.14-0.15,0.4-0.18,0.58c-0.08,0.41-0.24,0.79-0.34,0.79c-0.16-0.01-0.6-0.58-0.7-0.9c-0.06-0.18-0.17-0.41-0.25-0.53
				c-0.07-0.11-0.2-0.35-0.3-0.53c-0.08-0.2-0.17-0.37-0.2-0.4c-0.02-0.02-0.08-0.14-0.12-0.23c-0.03-0.1-0.13-0.27-0.22-0.36
				c-0.08-0.08-0.15-0.23-0.15-0.31c0-0.08-0.09-0.28-0.19-0.44c-0.1-0.15-0.24-0.44-0.29-0.61c-0.06-0.2-0.18-0.42-0.26-0.51
				c-0.08-0.1-0.15-0.21-0.15-0.24c0-0.05-0.09-0.21-0.2-0.38c-0.12-0.17-0.23-0.42-0.26-0.54c-0.02-0.14-0.1-0.25-0.15-0.29
				c-0.06-0.02-0.13-0.13-0.17-0.26c-0.02-0.12-0.14-0.37-0.25-0.53c-0.1-0.18-0.2-0.33-0.2-0.36c0-0.04-0.11-0.22-0.23-0.41
				c-0.21-0.33-0.67-1.26-0.67-1.35c0-0.03-0.1-0.14-0.21-0.27c-0.12-0.12-0.24-0.35-0.28-0.5c-0.04-0.15-0.15-0.38-0.24-0.51
				c-0.09-0.12-0.17-0.25-0.17-0.29s-0.07-0.24-0.16-0.45c-0.09-0.21-0.21-0.46-0.25-0.57c-0.05-0.13-0.12-0.21-0.16-0.21
				c-0.04-0.01-0.12-0.18-0.18-0.38c-0.06-0.21-0.22-0.49-0.33-0.62c-0.13-0.15-0.23-0.32-0.23-0.37c0-0.07-0.04-0.16-0.11-0.18
				c-0.07-0.03-0.14-0.15-0.18-0.28c-0.06-0.28-0.61-1.44-0.7-1.47c-0.03-0.02-0.06-0.09-0.06-0.15s-0.03-0.11-0.08-0.11
				c-0.04,0-0.11-0.18-0.16-0.4c-0.05-0.19-0.14-0.41-0.2-0.43c-0.06-0.04-0.15-0.16-0.2-0.29c-0.06-0.11-0.21-0.38-0.35-0.62
				c-0.29-0.48-0.49-0.92-0.49-1.06c0-0.05-0.07-0.17-0.15-0.25c-0.08-0.1-0.2-0.33-0.25-0.54c-0.05-0.19-0.15-0.35-0.2-0.35
				c-0.07,0-0.12-0.06-0.11-0.14c0-0.18-0.9-0.19-0.97-0.03c-0.03,0.07-0.14,0.15-0.25,0.17c-0.11,0.03-0.21,0.1-0.21,0.13
				c0,0.06-0.06,0.09-0.12,0.08c-0.06,0-0.16,0.05-0.2,0.1c-0.03,0.06-0.19,0.14-0.34,0.17c-0.15,0.02-0.32,0.1-0.39,0.15
				c-0.3,0.26-0.39,0.31-0.55,0.31c-0.09,0-0.23,0.08-0.31,0.17c-0.08,0.09-0.21,0.17-0.29,0.17c-0.08,0-0.15,0.04-0.16,0.07
				c0,0.05-0.11,0.1-0.24,0.14c-0.13,0.02-0.27,0.1-0.29,0.17c-0.03,0.06-0.15,0.11-0.26,0.11c-0.12,0-0.22,0.05-0.22,0.1
				c0,0.04-0.1,0.13-0.25,0.16c-0.15,0.04-0.25,0.12-0.25,0.16c0,0.04-0.1,0.07-0.21,0.07c-0.12,0-0.24,0.06-0.27,0.12
				c-0.02,0.06-0.18,0.14-0.33,0.17c-0.16,0.02-0.29,0.07-0.29,0.12c0,0.04-0.06,0.08-0.12,0.08c-0.07,0-0.18,0.05-0.23,0.11
				c-0.06,0.06-0.23,0.14-0.38,0.17c-0.27,0.06-0.41,0.14-0.67,0.41c-0.07,0.08-0.2,0.15-0.27,0.15c-0.07,0-0.16,0.04-0.2,0.11
				c-0.02,0.06-0.12,0.13-0.22,0.13c-0.09,0-0.17,0.02-0.17,0.07c0,0.04-0.11,0.1-0.24,0.13c-0.14,0.02-0.25,0.12-0.27,0.18
				c-0.03,0.07-0.12,0.13-0.22,0.13c-0.1,0-0.17,0.03-0.17,0.07c0,0.04-0.12,0.1-0.24,0.11c-0.14,0.01-0.32,0.1-0.39,0.16
				c-0.07,0.06-0.21,0.11-0.3,0.11c-0.1,0-0.2,0.05-0.22,0.12c-0.03,0.06-0.16,0.14-0.3,0.17c-0.13,0.02-0.23,0.08-0.23,0.13
				c0,0.04-0.1,0.07-0.21,0.07c-0.13,0-0.21,0.06-0.21,0.14c0,0.07-0.08,0.12-0.21,0.12c-0.12,0-0.25,0.06-0.33,0.13
				c-0.07,0.06-0.17,0.1-0.2,0.1c-0.04,0-0.16,0.08-0.27,0.17c-0.11,0.09-0.3,0.17-0.43,0.17c-0.15,0-0.33,0.09-0.49,0.24
				c-0.15,0.14-0.31,0.25-0.38,0.25c-0.06,0-0.12,0.04-0.12,0.08c0,0.05-0.16,0.13-0.35,0.16c-0.19,0.06-0.39,0.14-0.46,0.18
				c-0.28,0.26-0.37,0.31-0.47,0.31c-0.07,0-0.21,0.06-0.32,0.17c-0.2,0.17-0.63,0.21-0.83,0.07c-0.06-0.04-0.12-0.26-0.15-0.49
				c-0.02-0.33,0-0.47,0.13-0.67c0.14-0.18,0.19-0.48,0.28-1.59c0.07-0.75,0.17-1.92,0.24-2.61c0.16-1.73,0.17-5.27,0.02-7.01
				c-0.07-0.77-0.14-1.71-0.17-2.09c-0.02-0.36-0.11-0.88-0.18-1.12c-0.08-0.25-0.18-0.75-0.2-1.08s-0.1-0.74-0.15-0.88
				c-0.06-0.14-0.18-0.61-0.23-1.02c-0.08-0.39-0.19-0.84-0.25-0.99c-0.07-0.14-0.16-0.48-0.2-0.76c-0.04-0.29-0.12-0.6-0.17-0.68
				c-0.12-0.22-0.54-1.52-0.67-2.03c-0.06-0.22-0.16-0.45-0.23-0.53c-0.08-0.08-0.18-0.28-0.25-0.45c-0.04-0.18-0.16-0.42-0.24-0.54
				c-0.08-0.11-0.19-0.38-0.23-0.58c-0.04-0.2-0.14-0.41-0.21-0.46c-0.07-0.06-0.16-0.22-0.18-0.38c-0.04-0.15-0.1-0.36-0.16-0.45
				c-0.05-0.09-0.15-0.32-0.21-0.49c-0.05-0.18-0.15-0.4-0.21-0.46c-0.07-0.08-0.16-0.28-0.21-0.42c-0.05-0.17-0.19-0.39-0.29-0.5
				c-0.11-0.1-0.21-0.28-0.24-0.37c-0.03-0.09-0.1-0.25-0.17-0.32c-0.14-0.15-0.37-0.53-0.56-0.99c-0.09-0.18-0.2-0.32-0.25-0.32
				c-0.06,0-0.1-0.06-0.1-0.1c0-0.13-0.56-1.02-0.8-1.29c-0.08-0.1-0.25-0.31-0.36-0.5c-0.12-0.18-0.31-0.44-0.43-0.57
				c-0.12-0.13-0.22-0.27-0.22-0.31c0-0.05-0.27-0.35-0.59-0.69c-0.34-0.34-0.65-0.68-0.69-0.76c-0.04-0.08-0.2-0.3-0.38-0.49
				c-0.17-0.18-0.3-0.37-0.3-0.4c0-0.1-1.23-1.27-1.33-1.27c-0.04,0-0.08-0.05-0.08-0.11c0-0.1-1-1.08-1.11-1.08
				c-0.02,0-0.24-0.18-0.47-0.4c-0.23-0.23-0.53-0.5-0.68-0.62c-0.13-0.11-0.35-0.29-0.49-0.43c-0.13-0.12-0.35-0.25-0.48-0.29
				c-0.14-0.03-0.29-0.12-0.36-0.22c-0.14-0.2-0.62-0.31-0.67-0.15c-0.02,0.06-0.13,0.42-0.25,0.79c-0.13,0.37-0.23,0.76-0.23,0.87
				c0,0.12-0.05,0.28-0.12,0.37c-0.06,0.09-0.17,0.4-0.22,0.66c-0.06,0.26-0.17,0.63-0.27,0.76c-0.08,0.17-0.18,0.49-0.22,0.72
				c-0.03,0.23-0.12,0.52-0.2,0.67c-0.06,0.13-0.18,0.46-0.25,0.75c-0.06,0.27-0.17,0.58-0.23,0.68c-0.06,0.1-0.15,0.35-0.18,0.58
				c-0.04,0.22-0.12,0.49-0.19,0.59c-0.07,0.09-0.19,0.45-0.27,0.84c-0.17,0.72-0.61,1.56-0.78,1.56c-0.06,0-0.18-0.16-0.26-0.33
				c-0.1-0.18-0.22-0.37-0.28-0.41c-0.06-0.04-0.14-0.2-0.2-0.37c-0.05-0.17-0.16-0.37-0.25-0.46c-0.08-0.1-0.17-0.33-0.2-0.5
				c-0.04-0.23-0.11-0.35-0.24-0.41c-0.1-0.06-0.32-0.36-0.51-0.73c-0.17-0.35-0.35-0.68-0.41-0.73c-0.05-0.04-0.14-0.22-0.2-0.39
				c-0.05-0.18-0.12-0.33-0.15-0.36c-0.04-0.02-0.31-0.53-0.58-1.1c-0.57-1.2-1.04-2.05-1.15-2.05c-0.04,0-0.07-0.04-0.07-0.09
				c0-0.16-0.85-1.82-1.14-2.23c-0.07-0.13-0.18-0.33-0.22-0.45c-0.03-0.1-0.14-0.33-0.25-0.47c-0.11-0.17-0.2-0.34-0.2-0.4
				c0-0.06-0.1-0.24-0.22-0.4c-0.12-0.16-0.35-0.59-0.51-0.97c-0.19-0.38-0.36-0.7-0.41-0.7c-0.04,0-0.14-0.14-0.21-0.33
				c-0.06-0.18-0.16-0.33-0.2-0.33c-0.04,0-0.12-0.14-0.17-0.31c-0.09-0.29-0.26-0.61-0.65-1.2c-0.09-0.13-0.27-0.5-0.44-0.84
				c-0.16-0.34-0.34-0.72-0.4-0.84c-0.07-0.11-0.18-0.34-0.25-0.5c-0.23-0.52-0.47-0.95-0.62-1.12c-0.07-0.11-0.26-0.45-0.42-0.78
				c-0.15-0.32-0.29-0.6-0.33-0.61c-0.04-0.02-0.14-0.17-0.22-0.33c-0.08-0.18-0.25-0.53-0.41-0.8c-0.15-0.28-0.33-0.64-0.41-0.79
				c-0.09-0.16-0.16-0.33-0.16-0.4c0-0.06-0.03-0.1-0.08-0.1c-0.04,0-0.13-0.14-0.21-0.31c-0.08-0.18-0.21-0.43-0.29-0.56
				c-0.1-0.11-0.16-0.26-0.16-0.33c0-0.06-0.13-0.25-0.28-0.43c-0.16-0.19-0.28-0.43-0.28-0.53s-0.04-0.2-0.07-0.22
				c-0.12-0.05-0.61-0.82-0.72-1.15c-0.06-0.18-0.18-0.4-0.27-0.49c-0.09-0.1-0.19-0.28-0.23-0.43c-0.02-0.14-0.08-0.25-0.12-0.25
				c-0.04,0-0.08-0.05-0.08-0.1c0-0.1-0.42-1.04-0.49-1.08c-0.02-0.03-0.08-0.14-0.12-0.25c-0.03-0.11-0.09-0.22-0.12-0.24
				c-0.13-0.1-0.57-0.84-0.57-0.96c0-0.18-0.18-0.57-0.35-0.73c-0.08-0.08-0.14-0.2-0.14-0.27c0-0.06-0.12-0.25-0.25-0.4
				c-0.14-0.15-0.25-0.33-0.25-0.41c0-0.27-0.18-0.66-0.33-0.72c-0.08-0.03-0.16-0.1-0.16-0.18c0-0.06-0.04-0.11-0.08-0.11
				C114.53,50.1,114.51,49.72,114.59,49.53z"/>
		</g>
		<g>
			<path d="M114.17,49.51c-0.15,0.18-0.17,0.31-0.07,0.43l18.09,33.58c0.16,0.33,0.33,0.43,0.52,0.31c0.1-0.1,0.15-0.17,0.15-0.22
				l3.58-11.86l-0.57-0.09l-3.39,11.1l-17.71-32.87l33.22-17.66l-2.7,10.71c0.04,0.31,0.17,0.42,0.4,0.34
				c0.11-0.04,0.17-0.13,0.2-0.27l2.87-11.27c0.04-0.04,0.03-0.14-0.03-0.29c-0.12-0.14-0.25-0.17-0.39-0.1L114.19,49.5"/>
		</g>
		<g>
			<path d="M134.79,72.53c6.68,4.07,11.17,9.56,13.46,16.48c1.69,4.77,2.72,9.43,3.07,13.98c0.13,1.78,0.1,3.47-0.1,5.07
				c-0.16,1.48-0.61,3.38-1.35,5.69c-0.02,0.12,0,0.22,0.08,0.29c0.12,0.09,0.24,0.1,0.36,0.02l16.7-8.68
				c0.04-0.33-0.08-0.48-0.37-0.42l-16,8.26c1.19-3.48,1.6-7.11,1.23-10.9c-0.47-4.9-1.61-9.71-3.4-14.43
				c-1.41-3.73-3.27-6.87-5.59-9.45c-1.43-1.6-3.05-3.07-4.87-4.41c-0.61-0.47-1.57-1.12-2.86-1.97l-0.35,0.41"/>
		</g>
		<g>
			<path d="M144.08,42.05c-0.08,0.22-0.04,0.37,0.1,0.43c4.69,3.03,8.5,5.8,11.43,8.33c3.17,2.74,6.16,5.62,8.95,8.65
				c4.56,4.76,7.93,10.12,10.13,16.09c3.45,8.21,5.3,15.93,5.57,23.19c0.28,4.71,0.25,8.89-0.1,12.53
				c-0.08,1.81-0.86,6.21-2.34,13.22l-12.25-22.75l-0.56,0.22l12.64,23.52c0.1,0.22,0.26,0.25,0.5,0.1
				c1.5-6.71,2.35-11.28,2.54-13.71c0.37-3.63,0.44-7.81,0.19-12.52c-0.2-7.53-2.05-15.48-5.57-23.87
				c-2.24-6.19-5.86-11.87-10.89-17.04c-6.75-7.17-13.52-12.65-20.29-16.44"/>
		</g>
	</g>
</g>
</svg>
