<?xml version="1.0" encoding="utf-8"?>
<!-- Generator: Adobe Illustrator 27.7.0, SVG Export Plug-In . SVG Version: 6.00 Build 0)  -->
<svg version="1.1" id="Layer_1" xmlns="http://www.w3.org/2000/svg" xmlns:xlink="http://www.w3.org/1999/xlink" x="0px" y="0px"
	 viewBox="0 0 216 216" style="enable-background:new 0 0 216 216;" xml:space="preserve">
<style type="text/css">
	.st0{fill:none;stroke:#006B50;stroke-width:7.5281;stroke-miterlimit:3;}
	.st1{fill-rule:evenodd;clip-rule:evenodd;fill:#006B50;}
	.st2{fill:#006B50;}
	.st3{fill:#FFFFFF;}
	.st4{fill:url(#SVGID_1_);}
	.st5{fill:#FFFF00;}
	.st6{fill:url(#SVGID_00000142173812084547558940000016187378215854507194_);}
	.st7{fill:url(#SVGID_00000126305618533215496240000017871973391363729041_);}
	
		.st8{fill:url(#SVGID_00000147204876623439528870000004580856000600802194_);stroke:#FFFF00;stroke-width:0.1097;stroke-miterlimit:10;}
	.st9{fill:url(#SVGID_00000090262193490493750090000014166166671768468355_);}
	
		.st10{fill:url(#SVGID_00000053526763724908631670000006314580984818606741_);stroke:#FFFF00;stroke-width:0.1097;stroke-miterlimit:10;}
	.st11{fill:#006B50;stroke:#006B50;stroke-width:0.1097;stroke-miterlimit:10;}
	.st12{fill:#FFFFFF;stroke:#FFFFFF;stroke-width:0.1097;stroke-miterlimit:10;}
	.st13{fill:#006B50;stroke:#FFFFFF;stroke-width:0.1097;stroke-miterlimit:10;}
</style>
<path class="st0" d="M182.97,202.45H31.32c-7.1,0-12.91-5.81-12.91-12.91V66.32c0-7.1,5.81-12.91,12.91-12.91h151.64
	c7.1,0,12.91,5.81,12.91,12.91v123.23C195.87,196.64,190.06,202.45,182.97,202.45z"/>
<g>
	<path class="st1" d="M69.57,110.09c2.64,1.52,4.41,4.39,4.41,7.65c0,4.88-3.96,8.84-8.84,8.84s-8.84-3.96-8.84-8.84
		c0-3.27,1.77-6.13,4.41-7.65V71.21c0-2.43,1.99-4.41,4.41-4.41c2.43,0,4.41,1.99,4.41,4.41v8.07h3.04v1.13h-3.04v7.14h3.04v1.13
		h-3.04v7.14h3.04v1.13h-3.04v7.14h3.04v1.13h-3.04v4.88L69.57,110.09z M66.86,111.73V93.47h-3.43v18.25
		c-2.63,0.74-4.55,3.15-4.55,6.01c0,3.46,2.8,6.26,6.26,6.26s6.26-2.8,6.26-6.26C71.4,114.88,69.48,112.47,66.86,111.73z M67.97,111
		V71.21c0-1.55-1.28-2.83-2.83-2.83c-1.55,0-2.83,1.28-2.83,2.83V111l-0.8,0.46c-2.24,1.29-3.63,3.69-3.63,6.29
		c0,4.01,3.25,7.25,7.25,7.25c4.01,0,7.25-3.25,7.25-7.25c0-2.6-1.38-4.98-3.63-6.29l-0.8-0.46H67.97z"/>
</g>
<path class="st1" d="M151.96,65.05l-24.21,23.51l13.05,0.43l-20.71,19.61l8.77,0.16l-14.53,15.3l35.12-18.66l-13.07,0.13
	l26.46-20.13l-14.31-0.03l23.52-20.94L151.96,65.05L151.96,65.05z"/>
<g>
	<path class="st2" d="M64.52,192.3c-10.2,0-18.47-9.22-18.47-20.58c0-11.37,8.56-23.46,18.73-33.64
		c9.77,9.89,18.21,22.27,18.21,33.64S74.72,192.3,64.52,192.3L64.52,192.3z"/>
	<path class="st3" d="M56.1,157.24c0,0-6.55,7.46-6.16,16.03c0.35,7.77,8.16,12.1,8.16,12.1s-3.25-4.76-4.41-13.53
		C52.79,165.04,56.1,157.24,56.1,157.24z"/>
</g>
<g>
	
		<linearGradient id="SVGID_1_" gradientUnits="userSpaceOnUse" x1="402.861" y1="1322.5052" x2="359.5623" y2="1287.2167" gradientTransform="matrix(-1 0 0 -1 525.9 1465.5)">
		<stop  offset="0" style="stop-color:#FFFFFF;stop-opacity:0.1"/>
		<stop  offset="0.03" style="stop-color:#FFFFF5;stop-opacity:0.14"/>
		<stop  offset="0.07" style="stop-color:#FFFFD8;stop-opacity:0.24"/>
		<stop  offset="0.12" style="stop-color:#FFFFAA;stop-opacity:0.4"/>
		<stop  offset="0.19" style="stop-color:#FFFF6A;stop-opacity:0.63"/>
		<stop  offset="0.26" style="stop-color:#FFFF19;stop-opacity:0.91"/>
		<stop  offset="0.28" style="stop-color:#FFFF00"/>
		<stop  offset="0.99" style="stop-color:#F7931E"/>
	</linearGradient>
	<path class="st4" d="M145.65,161.32c-0.04-0.02-0.08-0.04-0.12-0.06s-0.1,0-0.12,0.05v0.01v0.01L145.65,161.32L145.65,161.32z"/>
	<path class="st5" d="M145.48,161.25c-0.04,0-0.07,0.02-0.08,0.06v0.01h0.25c-0.04-0.02-0.08-0.04-0.12-0.06
		C145.51,161.26,145.5,161.26,145.48,161.25L145.48,161.25z"/>
	
		<linearGradient id="SVGID_00000175303877636076537530000011874709219588661130_" gradientUnits="userSpaceOnUse" x1="402.852" y1="1322.5111" x2="359.5581" y2="1287.2255" gradientTransform="matrix(-1 0 0 -1 525.9 1465.5)">
		<stop  offset="0" style="stop-color:#FFFFFF;stop-opacity:0.1"/>
		<stop  offset="0.03" style="stop-color:#FFFFF5;stop-opacity:0.14"/>
		<stop  offset="0.07" style="stop-color:#FFFFD8;stop-opacity:0.24"/>
		<stop  offset="0.12" style="stop-color:#FFFFAA;stop-opacity:0.4"/>
		<stop  offset="0.19" style="stop-color:#FFFF6A;stop-opacity:0.63"/>
		<stop  offset="0.26" style="stop-color:#FFFF19;stop-opacity:0.91"/>
		<stop  offset="0.28" style="stop-color:#FFFF00"/>
		<stop  offset="0.99" style="stop-color:#F7931E"/>
	</linearGradient>
	<path style="fill:url(#SVGID_00000175303877636076537530000011874709219588661130_);" d="M145.65,161.32
		c-0.02-0.06-0.06-0.08-0.12-0.06c-0.04-0.02-0.1,0-0.12,0.05v0.01v0.01L145.65,161.32L145.65,161.32L145.65,161.32z"/>
	<path class="st5" d="M145.57,161.25c-0.01,0-0.03,0-0.04,0.01c-0.01,0-0.03-0.01-0.04-0.01c-0.04,0-0.07,0.02-0.08,0.06l0,0l0,0
		v0.01h0.13h0.13v-0.01l0,0l0,0C145.64,161.28,145.61,161.25,145.57,161.25L145.57,161.25z"/>
	
		<linearGradient id="SVGID_00000103963937160581566180000004148644500856579471_" gradientUnits="userSpaceOnUse" x1="402.6427" y1="1322.3317" x2="359.7594" y2="1287.3799" gradientTransform="matrix(-1 0 0 -1 525.9 1465.5)">
		<stop  offset="0" style="stop-color:#FFFFFF;stop-opacity:0.1"/>
		<stop  offset="0.03" style="stop-color:#FFFFF5;stop-opacity:0.14"/>
		<stop  offset="0.07" style="stop-color:#FFFFD8;stop-opacity:0.24"/>
		<stop  offset="0.12" style="stop-color:#FFFFAA;stop-opacity:0.4"/>
		<stop  offset="0.19" style="stop-color:#FFFF6A;stop-opacity:0.63"/>
		<stop  offset="0.26" style="stop-color:#FFFF19;stop-opacity:0.91"/>
		<stop  offset="0.28" style="stop-color:#FFFF00"/>
		<stop  offset="0.99" style="stop-color:#F7931E"/>
	</linearGradient>
	<path style="fill:url(#SVGID_00000103963937160581566180000004148644500856579471_);" d="M145.65,161.33h-0.25
		c0.04-0.02,0.08-0.04,0.12-0.06C145.59,161.25,145.63,161.27,145.65,161.33L145.65,161.33z"/>
	<path class="st5" d="M145.57,161.25c-0.01,0-0.03,0-0.04,0.01c-0.04,0.01-0.08,0.03-0.12,0.06h0.25v-0.01
		C145.64,161.27,145.61,161.25,145.57,161.25L145.57,161.25z"/>
	
		<linearGradient id="SVGID_00000017516369906837622310000000201648933544758696_" gradientUnits="userSpaceOnUse" x1="402.6427" y1="1322.3317" x2="359.7594" y2="1287.3799" gradientTransform="matrix(-1 0 0 -1 525.9 1465.5)">
		<stop  offset="0" style="stop-color:#FFFFFF;stop-opacity:0.1"/>
		<stop  offset="0.03" style="stop-color:#FFFFF5;stop-opacity:0.14"/>
		<stop  offset="0.07" style="stop-color:#FFFFD8;stop-opacity:0.24"/>
		<stop  offset="0.12" style="stop-color:#FFFFAA;stop-opacity:0.4"/>
		<stop  offset="0.19" style="stop-color:#FFFF6A;stop-opacity:0.63"/>
		<stop  offset="0.26" style="stop-color:#FFFF19;stop-opacity:0.91"/>
		<stop  offset="0.28" style="stop-color:#FFFF00"/>
		<stop  offset="0.99" style="stop-color:#F7931E"/>
	</linearGradient>
	
		<path style="fill:url(#SVGID_00000017516369906837622310000000201648933544758696_);stroke:#FFFF00;stroke-width:0.1097;stroke-miterlimit:10;" d="
		M145.65,161.33h-0.25c0.04-0.02,0.08-0.04,0.12-0.06C145.59,161.25,145.63,161.27,145.65,161.33L145.65,161.33z"/>
	
		<linearGradient id="SVGID_00000173146742406572237870000007701003120463839381_" gradientUnits="userSpaceOnUse" x1="402.8603" y1="1322.5056" x2="359.5623" y2="1287.2175" gradientTransform="matrix(-1 0 0 -1 525.9 1465.5)">
		<stop  offset="0" style="stop-color:#FFFFFF;stop-opacity:0.1"/>
		<stop  offset="0.03" style="stop-color:#FFFFF5;stop-opacity:0.14"/>
		<stop  offset="0.07" style="stop-color:#FFFFD8;stop-opacity:0.24"/>
		<stop  offset="0.12" style="stop-color:#FFFFAA;stop-opacity:0.4"/>
		<stop  offset="0.19" style="stop-color:#FFFF6A;stop-opacity:0.63"/>
		<stop  offset="0.26" style="stop-color:#FFFF19;stop-opacity:0.91"/>
		<stop  offset="0.28" style="stop-color:#FFFF00"/>
		<stop  offset="0.99" style="stop-color:#F7931E"/>
	</linearGradient>
	<path style="fill:url(#SVGID_00000173146742406572237870000007701003120463839381_);" d="M145.65,161.32h-0.25v-0.01
		c0.02-0.05,0.07-0.08,0.11-0.06h0.01C145.57,161.27,145.61,161.29,145.65,161.32L145.65,161.32z"/>
	<path class="st5" d="M145.48,161.25c-0.04,0-0.07,0.02-0.08,0.06v0.01h0.25c-0.04-0.02-0.08-0.04-0.12-0.06
		C145.51,161.26,145.5,161.26,145.48,161.25L145.48,161.25z"/>
	
		<linearGradient id="SVGID_00000097466262537472698450000017969230434788149634_" gradientUnits="userSpaceOnUse" x1="402.8603" y1="1322.5056" x2="359.5623" y2="1287.2175" gradientTransform="matrix(-1 0 0 -1 525.9 1465.5)">
		<stop  offset="0" style="stop-color:#FFFFFF;stop-opacity:0.1"/>
		<stop  offset="0.03" style="stop-color:#FFFFF5;stop-opacity:0.14"/>
		<stop  offset="0.07" style="stop-color:#FFFFD8;stop-opacity:0.24"/>
		<stop  offset="0.12" style="stop-color:#FFFFAA;stop-opacity:0.4"/>
		<stop  offset="0.19" style="stop-color:#FFFF6A;stop-opacity:0.63"/>
		<stop  offset="0.26" style="stop-color:#FFFF19;stop-opacity:0.91"/>
		<stop  offset="0.28" style="stop-color:#FFFF00"/>
		<stop  offset="0.99" style="stop-color:#F7931E"/>
	</linearGradient>
	
		<path style="fill:url(#SVGID_00000097466262537472698450000017969230434788149634_);stroke:#FFFF00;stroke-width:0.1097;stroke-miterlimit:10;" d="
		M145.65,161.32h-0.25v-0.01c0.02-0.05,0.07-0.08,0.11-0.06h0.01C145.57,161.27,145.61,161.29,145.65,161.32L145.65,161.32z"/>
	<path class="st2" d="M139.54,186.33c-0.64,0-1.17-0.53-1.17-1.19c0-0.32,0.12-0.62,0.34-0.84c0.23-0.22,0.52-0.35,0.83-0.34h0.36
		v-0.06c-0.24-5.07-3.06-10.46-6.05-16.17c-0.53-1.02-1.09-2.08-1.62-3.13c-1.84-2.69-2.83-5.96-2.84-9.32
		c0-9.07,7.23-16.46,16.12-16.48c8.89,0.02,16.13,7.41,16.13,16.48c0,3.36-0.99,6.62-2.83,9.32c-0.54,1.05-1.09,2.11-1.62,3.13
		c-2.98,5.71-5.8,11.1-6.04,16.17v0.06h0.35c0.64,0,1.17,0.53,1.17,1.19c0,0.32-0.12,0.62-0.34,0.84c-0.23,0.22-0.52,0.35-0.83,0.34
		H139.54z"/>
	<path class="st2" d="M145.52,138.85L145.52,138.85c4.3,0.01,8.33,1.72,11.37,4.82s4.7,7.22,4.7,11.6c0,3.34-0.99,6.6-2.82,9.28
		v0.01v0.01c-0.53,1.05-1.08,2.1-1.62,3.13c-2.99,5.72-5.81,11.11-6.05,16.2l-0.01,0.12h0.42c0.61,0,1.11,0.51,1.11,1.13
		c0,0.3-0.12,0.59-0.32,0.8c-0.22,0.22-0.5,0.34-0.79,0.33h-11.98c-0.61,0-1.11-0.51-1.11-1.13c0-0.3,0.12-0.59,0.32-0.8
		c0.22-0.22,0.5-0.34,0.79-0.33h0.42l-0.01-0.12c-0.24-5.08-3.07-10.48-6.05-16.2c-0.53-1.02-1.09-2.08-1.62-3.13v-0.01v-0.01
		c-1.83-2.68-2.82-5.94-2.82-9.28c0-4.38,1.67-8.5,4.7-11.6S141.22,138.86,145.52,138.85"/>
	<path class="st11" d="M145.19,125.08h0.06c0.51,0,0.92,0.45,0.92,1v6.38c0,0.55-0.41,1-0.92,1h-0.06c-0.51,0-0.92-0.45-0.92-1
		v-6.38C144.27,125.53,144.68,125.08,145.19,125.08z"/>
	<path class="st11" d="M131.7,139.97l-0.02,0.03c-0.35,0.4-0.93,0.41-1.3,0.02c-0.01-0.01-0.01-0.01-0.02-0.02l-4-4.46
		c-0.36-0.41-0.36-1.06,0-1.47l0.02-0.03c0.35-0.4,0.93-0.41,1.3-0.02c0.01,0.01,0.01,0.01,0.02,0.02l4,4.46
		C132.07,138.91,132.07,139.56,131.7,139.97z"/>
	<path class="st11" d="M118.75,155.3v-0.06c0-0.57,0.42-1.03,0.94-1.03h5.63c0.52,0,0.94,0.46,0.94,1.03v0.06
		c0,0.57-0.42,1.03-0.94,1.03h-5.63C119.17,156.33,118.75,155.87,118.75,155.3z"/>
	<path class="st11" d="M172.3,154.56v0.06c0,0.57-0.42,1.03-0.94,1.03h-5.63c-0.52,0-0.94-0.46-0.94-1.03v-0.06
		c0-0.57,0.42-1.03,0.94-1.03h5.63C171.88,153.54,172.3,154,172.3,154.56z"/>
	<path class="st11" d="M158.94,139.52l-0.02-0.03c-0.36-0.41-0.36-1.06,0-1.47l4-4.46c0.35-0.4,0.93-0.41,1.3-0.02
		c0.01,0.01,0.01,0.01,0.02,0.02l0.02,0.03c0.36,0.41,0.36,1.06,0,1.47l-4,4.46c-0.35,0.4-0.93,0.41-1.3,0.02
		C158.95,139.53,158.94,139.53,158.94,139.52z"/>
	<path class="st12" d="M132.83,154.29c-0.36,0-0.66-0.32-0.68-0.71c-0.01-0.11-0.13-2.88,1.31-5.81c0.85-1.72,2.09-3.18,3.61-4.22
		c1.9-1.33,4.31-2.13,7.14-2.39c0.38-0.01,0.7,0.31,0.71,0.73c0.01,0.39-0.25,0.73-0.61,0.77c-4.69,0.43-7.93,2.37-9.64,5.77
		c-0.77,1.55-1.18,3.29-1.18,5.06c0.02,0.41-0.26,0.77-0.64,0.79L132.83,154.29z"/>
	<path class="st13" d="M139.43,187.21h12.19c0.61,0,1.11,0.54,1.11,1.21v0.06c0,0.67-0.5,1.21-1.11,1.21h-12.19
		c-0.61,0-1.11-0.54-1.11-1.21v-0.06C138.32,187.76,138.81,187.21,139.43,187.21z"/>
	<path class="st13" d="M150.84,190.52v0.17c0.01,0.61-0.44,1.11-1,1.12l0,0h-8.63c-0.47,0-0.87-0.36-0.97-0.86
		c-0.02-0.08-0.03-0.17-0.03-0.26v-0.17H150.84z"/>
	<path class="st13" d="M139.43,183.89h12.19c0.61,0,1.11,0.54,1.11,1.21v0.06c0,0.67-0.5,1.21-1.11,1.21h-12.19
		c-0.61,0-1.11-0.54-1.11-1.21v-0.06C138.32,184.44,138.81,183.89,139.43,183.89z"/>
</g>
<g>
	<path class="st2" d="M73.68,29.12c-0.82,0-1.65-0.24-2.34-0.74c-1.65-1.18-1.94-3.36-0.65-4.86c0.81-0.95,4.43-4.42,10.2-7.86
		c7.44-4.44,15.56-7.04,23.49-7.53c13.59-0.84,26.67,4.22,38.89,15.04c1.5,1.33,1.54,3.52,0.07,4.9c-1.46,1.37-3.87,1.4-5.38,0.07
		c-10.52-9.32-21.56-13.73-32.82-13.11c-8.38,0.46-15.44,3.68-19.88,6.31c-4.93,2.91-8.08,5.89-8.59,6.46
		C75.92,28.66,74.81,29.12,73.68,29.12z M85.35,36.6c0.87-0.91,8.87-8.93,20.36-9.42c7.83-0.33,15.73,2.92,23.48,9.65
		c1.52,1.32,3.93,1.27,5.38-0.11c1.45-1.38,1.39-3.58-0.13-4.89c-9.31-8.09-19.09-11.97-29.08-11.55
		c-14.34,0.6-23.96,9.92-25.74,11.78c-1.38,1.44-1.21,3.63,0.37,4.88c0.72,0.57,1.61,0.85,2.5,0.85
		C83.54,37.79,84.6,37.38,85.35,36.6z M94.39,45.44c0.73-1.12,5.19-5.25,11.1-5.83c5.01-0.49,10.02,1.67,14.91,6.42
		c1.43,1.4,3.84,1.47,5.38,0.16c1.53-1.31,1.61-3.5,0.18-4.89c-8.22-8-16.1-9.08-21.27-8.58c-8.72,0.85-15.1,6.54-16.82,9.17
		c-1.08,1.64-0.49,3.77,1.32,4.75c0.61,0.33,1.28,0.49,1.95,0.49C92.42,47.13,93.68,46.53,94.39,45.44z"/>
</g>
</svg>
