<?xml version="1.0" encoding="utf-8"?>
<!-- Generator: Adobe Illustrator 27.7.0, SVG Export Plug-In . SVG Version: 6.00 Build 0)  -->
<svg version="1.1" id="Layer_1" xmlns="http://www.w3.org/2000/svg" xmlns:xlink="http://www.w3.org/1999/xlink" x="0px" y="0px"
	 viewBox="0 0 216 216" style="enable-background:new 0 0 216 216;" xml:space="preserve">
<style type="text/css">
	.st0{fill:#231F20;}
	.st1{fill:#FFFFFF;}
</style>
<path shape-rendering="auto" color-rendering="auto" image-rendering="auto" class="st0" d="M71.44,22.71
	c-29.68,0-53.86,24.17-53.86,53.86c0,0,0,0.01,0,0.01c0.02,11.47,3.74,22.62,10.54,31.84c0.21,0.42,0.47,0.81,0.77,1.16l0.54,0.61
	l-0.2-0.24c1.28,1.63,2.66,3.19,4.12,4.66l-0.21-0.23l72.87,82.47c1.96,2.22,5.34,2.42,7.56,0.47c0.17-0.15,0.32-0.3,0.47-0.47
	l72.86-82.46l-0.23,0.24c1.6-1.59,3.09-3.28,4.48-5.06l-0.21,0.26l0.23-0.26c0.27-0.3,0.5-0.64,0.69-0.99
	c6.86-9.25,10.61-20.46,10.62-32c0,0,0,0,0-0.01c0-29.68-24.17-53.86-53.86-53.86c0,0,0,0-0.01,0
	c-14.63,0.02-28.52,5.99-38.59,16.36C99.97,28.7,86.08,22.72,71.44,22.71C71.44,22.7,71.44,22.7,71.44,22.71L71.44,22.71z
	 M37.56,108.66L37.56,108.66c0.08-0.12,0.24-0.4-0.03,0.05C37.54,108.7,37.55,108.68,37.56,108.66L37.56,108.66z M184.95,110.89
	c0.01,0.01,0.03,0.01,0.04,0.02C184.99,110.9,184.95,110.89,184.95,110.89C184.95,110.89,184.95,110.89,184.95,110.89L184.95,110.89
	L184.95,110.89z"/>
<path class="st1" d="M160.23,108.61c-0.51,0.21-1.01,0.33-1.56,0.35h-1.04l-26.88,1.23c-1.86-0.06-3.67-1.33-4.26-3.04l-5.47-16.33
	l-13.03,66.45c-0.36,2.05-2.37,3.74-4.52,3.74c-2.15,0-4.25-1.68-4.6-3.74L81.41,69.72l-10.25,34.66c-0.54,1.8-2.32,3.17-4.26,3.21
	l-39.33,0.51l-4.65-7.95l40.24-1.42l14.77-49.25c0.48-1.68,2.04-3,3.82-3.21l0,0h0.43c2.18-0.07,4.3,1.57,4.69,3.65l16.5,82.86
	l11.99-60.63c0.36-1.93,2.24-3.51,4.26-3.65c2.02-0.14,4.05,1.18,4.69,3.04l9.99,29.88"/>
</svg>
