<?xml version="1.0" encoding="utf-8"?>
<!-- Generator: Adobe Illustrator 27.7.0, SVG Export Plug-In . SVG Version: 6.00 Build 0)  -->
<svg version="1.1" id="Layer_1" xmlns="http://www.w3.org/2000/svg" xmlns:xlink="http://www.w3.org/1999/xlink" x="0px" y="0px"
	 viewBox="0 0 216 216" style="enable-background:new 0 0 216 216;" xml:space="preserve">
<style type="text/css">
	.st0{fill:none;stroke:#FFFFFF;stroke-width:9.0274;stroke-linecap:round;stroke-linejoin:round;stroke-miterlimit:4.4207;}
	.st1{fill:#FFFFFF;stroke:#006B50;stroke-width:3.0092;stroke-linecap:round;stroke-linejoin:round;stroke-miterlimit:4.4207;}
	.st2{fill:#006B50;stroke:#006B50;stroke-width:3.0092;stroke-linecap:round;stroke-linejoin:round;stroke-miterlimit:4.4207;}
	.st3{fill:none;stroke:#006B50;stroke-width:2.8977;stroke-linecap:round;stroke-linejoin:round;stroke-miterlimit:4.0998;}
	.st4{fill:none;stroke:#006B50;stroke-width:13.9823;stroke-linecap:round;stroke-miterlimit:3.24;}
	.st5{fill:#006B50;}
</style>
<g transform="matrix(1.0124 0 0 1.0124 -.37266 -.37266)">
	<g transform="matrix(1.0384 0 0 1.0384 -1.1507 -1.1507)">
		<path class="st0" d="M137.56,194.31V138.5h31.7l10.09,10.09v45.73L137.56,194.31L137.56,194.31z"/>
		<path class="st1" d="M137.56,194.31V138.5h31.7l10.09,10.09v45.73L137.56,194.31L137.56,194.31z"/>
		<path class="st2" d="M169.26,148.59V138.5l10.09,10.09H169.26z"/>
	</g>
	<path class="st3" d="M148.74,174.12h29.29"/>
	<path class="st3" d="M148.74,179.84h29.29"/>
	<path class="st3" d="M148.74,185.57h29.29"/>
	<path class="st3" d="M148.74,191.29h29.29"/>
	<path class="st3" d="M148.74,168.4h29.29"/>
	<path class="st3" d="M148.74,162.67h29.29"/>
</g>
<g transform="matrix(1.0124 0 0 1.0124 -.37266 -.37266)">
	<g transform="matrix(1.0384 0 0 1.0384 -1.1507 -1.1507)">
		<path class="st0" d="M31.37,70.75V14.94h31.7l10.09,10.09v45.73L31.37,70.75L31.37,70.75z"/>
		<path class="st1" d="M31.37,70.75V14.94h31.7l10.09,10.09v45.73L31.37,70.75L31.37,70.75z"/>
		<path class="st2" d="M63.07,25.03V14.94l10.09,10.09C73.16,25.03,63.07,25.03,63.07,25.03z"/>
	</g>
	<path class="st3" d="M38.48,45.82h29.29"/>
	<path class="st3" d="M38.48,51.54h29.29"/>
	<path class="st3" d="M38.48,57.27h29.29"/>
	<path class="st3" d="M38.48,62.99h29.29"/>
	<path class="st3" d="M38.48,40.09h29.29"/>
	<path class="st3" d="M38.48,34.37h29.29"/>
</g>
<g transform="translate(0 -540.36)">
	<g transform="matrix(.93969 .34202 -.34202 .93969 288.96 -29.281)">
		<path class="st4" d="M116.6,678.02c-12.14-33.82-49.56-51.86-83.58-40.31"/>
		<path class="st5" d="M95.71,686.38l40.73-15.35l-11.21,35.21L95.71,686.38z"/>
	</g>
</g>
<g transform="translate(0 -540.36)">
	<g transform="matrix(.93969 .34202 -.34202 .93969 288.96 -29.281)">
		<path class="st4" d="M10.12,720.39c12.14,33.82,49.56,51.86,83.58,40.31"/>
		<path class="st5" d="M31.02,712.03l-40.73,15.35L1.5,692.17L31.02,712.03z"/>
	</g>
</g>
</svg>
