<?xml version="1.0" encoding="utf-8"?>
<!-- Generator: Adobe Illustrator 27.7.0, SVG Export Plug-In . SVG Version: 6.00 Build 0)  -->
<svg version="1.1" id="Layer_1" xmlns="http://www.w3.org/2000/svg" xmlns:xlink="http://www.w3.org/1999/xlink" x="0px" y="0px"
	 viewBox="0 0 216 216" style="enable-background:new 0 0 216 216;" xml:space="preserve">
<style type="text/css">
	.st0{fill:#FFFFFF;}
	.st1{stroke:#FFFFFF;stroke-width:1.0413;stroke-miterlimit:10;}
</style>
<g>
	<path d="M92.06,202.43c-34.08,0-61.71-30.79-61.71-68.77c0-37.98,28.61-78.39,62.56-112.39c32.63,33.03,60.84,74.42,60.84,112.39
		C153.75,171.64,126.13,202.43,92.06,202.43L92.06,202.43z"/>
	<path class="st0" d="M63.91,85.28c0,0-21.88,24.93-20.58,53.55c1.18,25.94,27.25,40.41,27.25,40.41s-10.86-15.91-14.72-45.21
		C52.86,111.33,63.91,85.28,63.91,85.28z"/>
</g>
<g>
	<path class="st1" d="M153.4,112.77c-19.36,0-35.05-17.49-35.05-39.07c0-21.58,16.25-44.53,35.54-63.85
		c18.53,18.76,34.56,42.27,34.56,63.85C188.45,95.28,172.76,112.77,153.4,112.77L153.4,112.77z"/>
	<path class="st0" d="M137.41,46.23c0,0-12.43,14.16-11.69,30.42c0.67,14.74,15.48,22.96,15.48,22.96s-6.17-9.04-8.36-25.68
		C131.13,61.02,137.41,46.23,137.41,46.23z"/>
</g>
</svg>
