<?xml version="1.0" encoding="utf-8"?>
<!-- Generator: Adobe Illustrator 27.7.0, SVG Export Plug-In . SVG Version: 6.00 Build 0)  -->
<svg version="1.1" id="Layer_1" xmlns="http://www.w3.org/2000/svg" xmlns:xlink="http://www.w3.org/1999/xlink" x="0px" y="0px"
	 viewBox="0 0 216 216" style="enable-background:new 0 0 216 216;" xml:space="preserve">
<style type="text/css">
	.st0{fill:#006B50;}
</style>
<g>
	<path class="st0" d="M31.25,69.35c-1.01-0.84-0.58-2.24,1.16-2.44c5.35,0.14,13.59,0.21,21.26,0.21c8.82,0,14.75-0.07,18.07-0.21
		c1.59,0.42,1.59,1.96,0,2.44l-4.48,0.42c-2.75,0.28-5.06,0.7-5.06,0.77c-0.14,0.63,0.14,1.4,1.16,2.86
		c2.02,3.21,4.77,6.92,7.08,10.06c6.94-3.14,15.18-7.19,21.11-10.62c2.02-1.19,2.46-1.61,2.46-2.1c0-0.35-0.72-0.7-3.04-0.98
		l-4.63-0.42c-1.45-0.7-0.72-2.1,1.01-2.44c5.78,0.14,11.86,0.21,17.64,0.21c6.51,0,11.71-0.07,16.05-0.21
		c1.45,0.28,1.59,1.89,0.14,2.44l-4.77,0.49c-4.48,0.49-8.39,1.19-14.6,3.77c-9.54,3.98-19.66,8.8-29.21,13.48
		c3.61,5.94,7.95,12.43,12.72,18.93c2.31,3.14,3.33,4.12,10.7,4.68l3.76,0.28c1.16,0.56,0.72,2.17-0.72,2.45
		c-4.63-0.14-12-0.21-20.82-0.21c-9.54,0-15.18,0.07-20.82,0.21c-1.88-0.35-1.88-2.17,0-2.45l4.34-0.28
		c3.18-0.21,5.06-0.7,5.06-1.19c0-0.56,0-1.61-1.45-3.84c-2.6-3.84-5.21-8.31-7.66-11.95c-7.95,4.05-17.06,8.8-24.73,13.34
		c-2.02,1.12-2.89,1.75-2.89,2.23c0,0.49,2.75,1.05,6.07,1.4l2.89,0.28c1.3,0.49,0.87,2.17-1.01,2.45
		c-7.08-0.14-13.74-0.21-20.39-0.21c-6.94,0-12.15,0.07-16.48,0.21c-1.3-0.56-1.16-2.03,0.43-2.45l4.05-0.28
		c1.59-0.14,4.63-0.56,6.07-0.91c3.47-0.84,8.39-2.31,14.03-5.03c9.98-4.82,20.39-9.64,29.5-14.74l-1.16-1.82
		c-2.31-3.56-6.94-10.2-9.83-14.04c-2.89-3.7-5.49-3.84-8.82-4.26L31.25,69.35z"/>
	<path class="st0" d="M201.14,67.12c5.93,0,8.1-0.56,10.12-1.82c1.16-0.42,4.19-0.28,4.77,0.21c-2.75,2.72-7.37,8.73-8.96,12.08
		c-1.01,0.7-4.92,0.7-5.78,0c0.43-2.51,0.58-5.24-1.3-6.01c-2.75-1.05-6.65-1.26-10.41-1.26h-6.36c-4.34,0-4.48,0-5.78,1.96
		l-19.66,30.88c-3.62,5.66-3.76,6.99,3.61,7.47l5.35,0.35c0.87,0.42,0.43,2.03-0.87,2.45c-9.11-0.14-16.48-0.21-23.13-0.21
		c-6.94,0-13.45,0.07-22.12,0.21c-1.45-0.42-1.59-2.17,0.43-2.45l5.64-0.35c6.22-0.42,7.37-0.98,11.57-7.47l20.1-30.88
		c1.16-1.75,1.01-1.96-3.76-1.96h-5.93c-4.05,0-8.24,0.14-12.15,1.61c-2.89,1.12-6.51,2.72-10.27,5.87
		c-1.3,0.42-5.35,0.07-5.35-0.84c4.48-4.47,8.39-8.45,10.84-11.67c0.87-0.42,2.75-0.42,4.05-0.07c0,1.4,1.45,1.89,11.28,1.89
		L201.14,67.12L201.14,67.12z"/>
</g>
<g>
	<path class="st0" d="M206.68,141.07c-16.81-2.7-31.04-3.39-44.76-2.17c-12.39,1.1-23.32,3.67-34.89,6.39
		c-12.29,2.89-26.21,6.16-44.26,8.2c-23.6,2.67-52.27,1.28-82.92-4.03v1.26c22.38,4.2,56.03,8.44,89.8,5
		c19.41-1.98,34.43-5.44,47.68-8.49c21.44-4.94,39.95-9.2,69.31-5.99c0.06,0.01,0.11-0.03,0.12-0.07
		C206.78,141.13,206.74,141.08,206.68,141.07z"/>
	<path class="st0" d="M215.82,143.3c-34.04-4.48-53.77,0.18-76.54,5.57c-12.89,3.05-27.51,6.51-46.46,8.68
		c-33.27,3.82-68.88-0.68-92.96-5.15v1.23c15.29,3.09,30.71,5.27,45.85,6.5c19.36,1.57,37.64,1.49,54.34-0.24
		c20.38-2.11,36.14-5.76,50.04-8.98c20.83-4.83,38.88-9.01,65.73-7.03V143.3z"/>
</g>
</svg>
